<?xml version="1.0" encoding="UTF-8" standalone="no"?><!-- Generator: Gravit.io --><svg xmlns="http://www.w3.org/2000/svg" xmlns:xlink="http://www.w3.org/1999/xlink" style="isolation:isolate" viewBox="0 0 300 150" width="300pt" height="150pt"><defs><clipPath id="_clipPath_3fwWTlMHPfaY0Mt3ifTJ89mJHxGGSsIe"><rect width="300" height="150"/></clipPath></defs><g clip-path="url(#_clipPath_3fwWTlMHPfaY0Mt3ifTJ89mJHxGGSsIe)"><rect width="300" height="150" style="fill:rgb(0,0,0)" fill-opacity="0"/><g><g><mask id="_mask_WY9bb3VEaNP1zOhQtgkWO2qa0esLCor2" x="-200%" y="-200%" width="400%" height="400%"><rect x="-200%" y="-200%" width="400%" height="400%" style="fill:white;"/><path d=" M 244.433 44.837 C 244.394 29.298 244.083 28.194 243.342 27.11 C 242.602 26.025 241.432 24.96 240.304 24.211 C 239.176 23.462 238.09 23.028 236.976 22.693 C 235.861 22.358 234.719 22.121 233.552 22.081 C 232.385 22.042 231.194 22.2 230.02 22.535 C 228.847 22.87 227.692 23.383 226.759 24.053 C 225.825 24.724 225.113 25.552 224.679 26.439 C 224.245 27.327 224.09 28.273 223.623 28.556 C 223.156 28.838 222.378 28.457 221.6 28.102 C 220.822 27.747 220.044 27.419 219.262 27.228 C 218.48 27.037 217.694 26.985 216.815 27.044 C 215.937 27.103 214.967 27.274 214.136 27.586 C 213.306 27.898 212.616 28.352 211.995 28.835 C 211.374 29.318 210.821 29.831 210.45 30.492 C 210.079 31.152 209.888 31.961 209.757 32.72 C 209.627 33.479 209.556 34.189 209.641 34.899 C 209.727 35.609 209.968 36.318 209.941 36.949 C 209.914 37.58 209.619 38.132 209.086 38.448 C 208.554 38.764 207.785 38.842 206.833 39.079 C 205.882 39.316 204.748 39.71 203.786 40.321 C 202.825 40.933 202.036 41.761 201.464 42.757 C 200.893 43.752 200.538 44.916 200.479 46.045 C 200.42 47.174 200.656 48.268 200.913 49.219 C 201.169 50.171 201.445 50.979 201.8 51.585 C 202.155 52.192 202.589 52.596 202.907 53.133 C 203.225 53.671 203.427 54.341 203.295 54.874 C 203.163 55.406 202.696 55.8 202.037 55.958 C 201.378 56.116 200.527 56.038 199.471 56.206 C 198.414 56.374 197.153 56.788 196.167 57.645 C 195.181 58.503 194.471 59.805 194.405 61.17 C 194.339 62.536 194.916 63.965 195.602 64.931 C 196.287 65.897 197.081 66.4 197.465 66.996 C 197.848 67.592 197.822 68.282 197.614 68.825 C 197.406 69.367 197.017 69.761 196.317 70.234 C 195.617 70.708 194.605 71.26 193.635 71.773 C 192.664 72.286 191.734 72.759 190.884 73.489 C 190.034 74.219 189.265 75.205 188.841 76.132 C 188.417 77.058 188.338 77.926 188.319 78.804 C 188.299 79.681 188.339 80.568 188.644 81.397 C 188.95 82.225 189.522 82.994 190.197 83.713 C 190.872 84.433 191.649 85.103 192.887 85.744 C 194.125 86.384 195.822 86.996 196.631 87.617 C 197.44 88.239 197.361 88.87 197.149 89.402 C 196.937 89.935 196.591 90.369 196.149 90.728 C 195.706 91.088 195.167 91.373 194.68 91.831 C 194.193 92.289 193.76 92.919 193.479 93.739 C 193.197 94.559 193.069 95.569 193.228 96.612 C 193.388 97.654 193.837 98.728 194.467 99.501 C 195.097 100.273 195.908 100.744 196.758 101.048 C 197.607 101.352 198.494 101.49 199.224 101.49 C 199.954 101.49 200.527 101.351 201.05 101.4 C 201.572 101.45 202.045 101.687 202.33 102.104 C 202.615 102.521 202.714 103.119 202.493 103.872 C 202.272 104.626 201.732 105.535 201.442 106.277 C 201.152 107.019 201.113 107.593 201.239 108.546 C 201.365 109.499 201.657 110.83 202.362 111.904 C 203.066 112.978 204.184 113.796 205.281 114.238 C 206.379 114.681 207.458 114.75 208.346 114.597 C 209.234 114.444 209.933 114.069 210.788 113.763 C 211.643 113.458 212.654 113.221 213.315 113.379 C 213.976 113.537 214.288 114.089 214.381 114.828 C 214.475 115.568 214.352 116.495 214.468 117.432 C 214.584 118.369 214.939 119.316 215.55 120.163 C 216.161 121.011 217.029 121.761 218.041 122.125 C 219.053 122.49 220.21 122.47 221.45 122.262 C 222.689 122.055 224.012 121.661 224.751 122.016 C 225.49 122.371 225.646 123.475 226.112 124.5 C 226.579 125.525 227.357 126.472 228.307 127.271 C 229.257 128.07 230.38 128.721 231.671 129.027 C 232.962 129.333 234.421 129.293 235.921 128.889 C 237.421 128.484 238.963 127.715 240.201 126.936 C 241.438 126.156 242.372 125.368 243.033 124.618 C 243.694 123.869 244.083 123.159 244.2 122.449 C 244.316 121.739 244.161 121.03 244.2 105.689 C 244.239 90.347 244.472 60.375 244.433 44.837 L 244.433 44.837 Z " fill-rule="evenodd" fill="black" stroke="none"/></mask><path d=" M 244.433 44.837 C 244.394 29.298 244.083 28.194 243.342 27.11 C 242.602 26.025 241.432 24.96 240.304 24.211 C 239.176 23.462 238.09 23.028 236.976 22.693 C 235.861 22.358 234.719 22.121 233.552 22.081 C 232.385 22.042 231.194 22.2 230.02 22.535 C 228.847 22.87 227.692 23.383 226.759 24.053 C 225.825 24.724 225.113 25.552 224.679 26.439 C 224.245 27.327 224.09 28.273 223.623 28.556 C 223.156 28.838 222.378 28.457 221.6 28.102 C 220.822 27.747 220.044 27.419 219.262 27.228 C 218.48 27.037 217.694 26.985 216.815 27.044 C 215.937 27.103 214.967 27.274 214.136 27.586 C 213.306 27.898 212.616 28.352 211.995 28.835 C 211.374 29.318 210.821 29.831 210.45 30.492 C 210.079 31.152 209.888 31.961 209.757 32.72 C 209.627 33.479 209.556 34.189 209.641 34.899 C 209.727 35.609 209.968 36.318 209.941 36.949 C 209.914 37.58 209.619 38.132 209.086 38.448 C 208.554 38.764 207.785 38.842 206.833 39.079 C 205.882 39.316 204.748 39.71 203.786 40.321 C 202.825 40.933 202.036 41.761 201.464 42.757 C 200.893 43.752 200.538 44.916 200.479 46.045 C 200.42 47.174 200.656 48.268 200.913 49.219 C 201.169 50.171 201.445 50.979 201.8 51.585 C 202.155 52.192 202.589 52.596 202.907 53.133 C 203.225 53.671 203.427 54.341 203.295 54.874 C 203.163 55.406 202.696 55.8 202.037 55.958 C 201.378 56.116 200.527 56.038 199.471 56.206 C 198.414 56.374 197.153 56.788 196.167 57.645 C 195.181 58.503 194.471 59.805 194.405 61.17 C 194.339 62.536 194.916 63.965 195.602 64.931 C 196.287 65.897 197.081 66.4 197.465 66.996 C 197.848 67.592 197.822 68.282 197.614 68.825 C 197.406 69.367 197.017 69.761 196.317 70.234 C 195.617 70.708 194.605 71.26 193.635 71.773 C 192.664 72.286 191.734 72.759 190.884 73.489 C 190.034 74.219 189.265 75.205 188.841 76.132 C 188.417 77.058 188.338 77.926 188.319 78.804 C 188.299 79.681 188.339 80.568 188.644 81.397 C 188.95 82.225 189.522 82.994 190.197 83.713 C 190.872 84.433 191.649 85.103 192.887 85.744 C 194.125 86.384 195.822 86.996 196.631 87.617 C 197.44 88.239 197.361 88.87 197.149 89.402 C 196.937 89.935 196.591 90.369 196.149 90.728 C 195.706 91.088 195.167 91.373 194.68 91.831 C 194.193 92.289 193.76 92.919 193.479 93.739 C 193.197 94.559 193.069 95.569 193.228 96.612 C 193.388 97.654 193.837 98.728 194.467 99.501 C 195.097 100.273 195.908 100.744 196.758 101.048 C 197.607 101.352 198.494 101.49 199.224 101.49 C 199.954 101.49 200.527 101.351 201.05 101.4 C 201.572 101.45 202.045 101.687 202.33 102.104 C 202.615 102.521 202.714 103.119 202.493 103.872 C 202.272 104.626 201.732 105.535 201.442 106.277 C 201.152 107.019 201.113 107.593 201.239 108.546 C 201.365 109.499 201.657 110.83 202.362 111.904 C 203.066 112.978 204.184 113.796 205.281 114.238 C 206.379 114.681 207.458 114.75 208.346 114.597 C 209.234 114.444 209.933 114.069 210.788 113.763 C 211.643 113.458 212.654 113.221 213.315 113.379 C 213.976 113.537 214.288 114.089 214.381 114.828 C 214.475 115.568 214.352 116.495 214.468 117.432 C 214.584 118.369 214.939 119.316 215.55 120.163 C 216.161 121.011 217.029 121.761 218.041 122.125 C 219.053 122.49 220.21 122.47 221.45 122.262 C 222.689 122.055 224.012 121.661 224.751 122.016 C 225.49 122.371 225.646 123.475 226.112 124.5 C 226.579 125.525 227.357 126.472 228.307 127.271 C 229.257 128.07 230.38 128.721 231.671 129.027 C 232.962 129.333 234.421 129.293 235.921 128.889 C 237.421 128.484 238.963 127.715 240.201 126.936 C 241.438 126.156 242.372 125.368 243.033 124.618 C 243.694 123.869 244.083 123.159 244.2 122.449 C 244.316 121.739 244.161 121.03 244.2 105.689 C 244.239 90.347 244.472 60.375 244.433 44.837 L 244.433 44.837 Z " fill-rule="evenodd" fill="rgb(229,9,127)"/><path d=" M 244.433 44.837 C 244.394 29.298 244.083 28.194 243.342 27.11 C 242.602 26.025 241.432 24.96 240.304 24.211 C 239.176 23.462 238.09 23.028 236.976 22.693 C 235.861 22.358 234.719 22.121 233.552 22.081 C 232.385 22.042 231.194 22.2 230.02 22.535 C 228.847 22.87 227.692 23.383 226.759 24.053 C 225.825 24.724 225.113 25.552 224.679 26.439 C 224.245 27.327 224.09 28.273 223.623 28.556 C 223.156 28.838 222.378 28.457 221.6 28.102 C 220.822 27.747 220.044 27.419 219.262 27.228 C 218.48 27.037 217.694 26.985 216.815 27.044 C 215.937 27.103 214.967 27.274 214.136 27.586 C 213.306 27.898 212.616 28.352 211.995 28.835 C 211.374 29.318 210.821 29.831 210.45 30.492 C 210.079 31.152 209.888 31.961 209.757 32.72 C 209.627 33.479 209.556 34.189 209.641 34.899 C 209.727 35.609 209.968 36.318 209.941 36.949 C 209.914 37.58 209.619 38.132 209.086 38.448 C 208.554 38.764 207.785 38.842 206.833 39.079 C 205.882 39.316 204.748 39.71 203.786 40.321 C 202.825 40.933 202.036 41.761 201.464 42.757 C 200.893 43.752 200.538 44.916 200.479 46.045 C 200.42 47.174 200.656 48.268 200.913 49.219 C 201.169 50.171 201.445 50.979 201.8 51.585 C 202.155 52.192 202.589 52.596 202.907 53.133 C 203.225 53.671 203.427 54.341 203.295 54.874 C 203.163 55.406 202.696 55.8 202.037 55.958 C 201.378 56.116 200.527 56.038 199.471 56.206 C 198.414 56.374 197.153 56.788 196.167 57.645 C 195.181 58.503 194.471 59.805 194.405 61.17 C 194.339 62.536 194.916 63.965 195.602 64.931 C 196.287 65.897 197.081 66.4 197.465 66.996 C 197.848 67.592 197.822 68.282 197.614 68.825 C 197.406 69.367 197.017 69.761 196.317 70.234 C 195.617 70.708 194.605 71.26 193.635 71.773 C 192.664 72.286 191.734 72.759 190.884 73.489 C 190.034 74.219 189.265 75.205 188.841 76.132 C 188.417 77.058 188.338 77.926 188.319 78.804 C 188.299 79.681 188.339 80.568 188.644 81.397 C 188.95 82.225 189.522 82.994 190.197 83.713 C 190.872 84.433 191.649 85.103 192.887 85.744 C 194.125 86.384 195.822 86.996 196.631 87.617 C 197.44 88.239 197.361 88.87 197.149 89.402 C 196.937 89.935 196.591 90.369 196.149 90.728 C 195.706 91.088 195.167 91.373 194.68 91.831 C 194.193 92.289 193.76 92.919 193.479 93.739 C 193.197 94.559 193.069 95.569 193.228 96.612 C 193.388 97.654 193.837 98.728 194.467 99.501 C 195.097 100.273 195.908 100.744 196.758 101.048 C 197.607 101.352 198.494 101.49 199.224 101.49 C 199.954 101.49 200.527 101.351 201.05 101.4 C 201.572 101.45 202.045 101.687 202.33 102.104 C 202.615 102.521 202.714 103.119 202.493 103.872 C 202.272 104.626 201.732 105.535 201.442 106.277 C 201.152 107.019 201.113 107.593 201.239 108.546 C 201.365 109.499 201.657 110.83 202.362 111.904 C 203.066 112.978 204.184 113.796 205.281 114.238 C 206.379 114.681 207.458 114.75 208.346 114.597 C 209.234 114.444 209.933 114.069 210.788 113.763 C 211.643 113.458 212.654 113.221 213.315 113.379 C 213.976 113.537 214.288 114.089 214.381 114.828 C 214.475 115.568 214.352 116.495 214.468 117.432 C 214.584 118.369 214.939 119.316 215.55 120.163 C 216.161 121.011 217.029 121.761 218.041 122.125 C 219.053 122.49 220.21 122.47 221.45 122.262 C 222.689 122.055 224.012 121.661 224.751 122.016 C 225.49 122.371 225.646 123.475 226.112 124.5 C 226.579 125.525 227.357 126.472 228.307 127.271 C 229.257 128.07 230.38 128.721 231.671 129.027 C 232.962 129.333 234.421 129.293 235.921 128.889 C 237.421 128.484 238.963 127.715 240.201 126.936 C 241.438 126.156 242.372 125.368 243.033 124.618 C 243.694 123.869 244.083 123.159 244.2 122.449 C 244.316 121.739 244.161 121.03 244.2 105.689 C 244.239 90.347 244.472 60.375 244.433 44.837 L 244.433 44.837 Z " fill-rule="evenodd" fill="rgb(229,9,127)" mask="url(#_mask_WY9bb3VEaNP1zOhQtgkWO2qa0esLCor2)" vector-effect="non-scaling-stroke" stroke-width="2.187" stroke="rgb(254,254,254)" stroke-linejoin="miter" stroke-linecap="butt" stroke-miterlimit="22.9256"/><mask id="_mask_uctt2VMhNkoioJitwfzMcO5wTp5Zpok3" x="-200%" y="-200%" width="400%" height="400%"><rect x="-200%" y="-200%" width="400%" height="400%" style="fill:white;"/><path d=" M 210.399 54.214 C 210.049 53.849 209.698 53.485 209.517 52.838 C 209.336 52.192 209.324 51.263 209.712 50.245 C 210.099 49.228 210.886 48.123 211.653 47.442 C 212.419 46.76 213.165 46.503 213.858 46.337 C 214.552 46.171 215.193 46.096 215.78 46.134 C 216.367 46.172 216.898 46.322 217.353 46.582 C 217.808 46.843 218.185 47.213 218.563 47.584" fill-rule="evenodd" fill="black" stroke="none"/></mask><path d=" M 210.399 54.214 C 210.049 53.849 209.698 53.485 209.517 52.838 C 209.336 52.192 209.324 51.263 209.712 50.245 C 210.099 49.228 210.886 48.123 211.653 47.442 C 212.419 46.76 213.165 46.503 213.858 46.337 C 214.552 46.171 215.193 46.096 215.78 46.134 C 216.367 46.172 216.898 46.322 217.353 46.582 C 217.808 46.843 218.185 47.213 218.563 47.584" fill-rule="evenodd" fill="none"/><path d=" M 210.399 54.214 C 210.049 53.849 209.698 53.485 209.517 52.838 C 209.336 52.192 209.324 51.263 209.712 50.245 C 210.099 49.228 210.886 48.123 211.653 47.442 C 212.419 46.76 213.165 46.503 213.858 46.337 C 214.552 46.171 215.193 46.096 215.78 46.134 C 216.367 46.172 216.898 46.322 217.353 46.582 C 217.808 46.843 218.185 47.213 218.563 47.584" fill-rule="evenodd" fill="none" mask="url(#_mask_uctt2VMhNkoioJitwfzMcO5wTp5Zpok3)" vector-effect="non-scaling-stroke" stroke-width="2.187" stroke="rgb(254,254,254)" stroke-linejoin="miter" stroke-linecap="butt" stroke-miterlimit="22.9256"/><mask id="_mask_4DnEMPxAuxqXrEs8u1GQsDG5hpRDxmaW" x="-200%" y="-200%" width="400%" height="400%"><rect x="-200%" y="-200%" width="400%" height="400%" style="fill:white;"/><path d=" M 215.78 46.134 C 215.45 45.534 215.119 44.935 215.152 44.049 C 215.184 43.162 215.579 41.989 216.348 41.166 C 217.117 40.343 218.261 39.87 219.286 39.771 C 220.312 39.672 221.219 39.948 221.948 40.343 C 222.678 40.737 223.23 41.25 223.782 41.762" fill-rule="evenodd" fill="black" stroke="none"/></mask><path d=" M 215.78 46.134 C 215.45 45.534 215.119 44.935 215.152 44.049 C 215.184 43.162 215.579 41.989 216.348 41.166 C 217.117 40.343 218.261 39.87 219.286 39.771 C 220.312 39.672 221.219 39.948 221.948 40.343 C 222.678 40.737 223.23 41.25 223.782 41.762" fill-rule="evenodd" fill="none"/><path d=" M 215.78 46.134 C 215.45 45.534 215.119 44.935 215.152 44.049 C 215.184 43.162 215.579 41.989 216.348 41.166 C 217.117 40.343 218.261 39.87 219.286 39.771 C 220.312 39.672 221.219 39.948 221.948 40.343 C 222.678 40.737 223.23 41.25 223.782 41.762" fill-rule="evenodd" fill="none" mask="url(#_mask_4DnEMPxAuxqXrEs8u1GQsDG5hpRDxmaW)" vector-effect="non-scaling-stroke" stroke-width="2.187" stroke="rgb(254,254,254)" stroke-linejoin="miter" stroke-linecap="butt" stroke-miterlimit="22.9256"/><mask id="_mask_AcfXyjTqRe7zjzOdpVzv35KQpvjGhIYQ" x="-200%" y="-200%" width="400%" height="400%"><rect x="-200%" y="-200%" width="400%" height="400%" style="fill:white;"/><path d=" M 234.853 59.502 C 234.347 59.515 233.842 59.529 233.242 59.228 C 232.641 58.927 231.946 58.31 231.455 57.339 C 230.963 56.368 230.675 55.042 230.687 54.017 C 230.699 52.991 231.011 52.267 231.355 51.642 C 231.698 51.017 232.075 50.492 232.497 50.084 C 232.92 49.675 233.389 49.384 233.888 49.222 C 234.386 49.061 234.915 49.031 235.443 49.001" fill-rule="evenodd" fill="black" stroke="none"/></mask><path d=" M 234.853 59.502 C 234.347 59.515 233.842 59.529 233.242 59.228 C 232.641 58.927 231.946 58.31 231.455 57.339 C 230.963 56.368 230.675 55.042 230.687 54.017 C 230.699 52.991 231.011 52.267 231.355 51.642 C 231.698 51.017 232.075 50.492 232.497 50.084 C 232.92 49.675 233.389 49.384 233.888 49.222 C 234.386 49.061 234.915 49.031 235.443 49.001" fill-rule="evenodd" fill="none"/><path d=" M 234.853 59.502 C 234.347 59.515 233.842 59.529 233.242 59.228 C 232.641 58.927 231.946 58.31 231.455 57.339 C 230.963 56.368 230.675 55.042 230.687 54.017 C 230.699 52.991 231.011 52.267 231.355 51.642 C 231.698 51.017 232.075 50.492 232.497 50.084 C 232.92 49.675 233.389 49.384 233.888 49.222 C 234.386 49.061 234.915 49.031 235.443 49.001" fill-rule="evenodd" fill="none" mask="url(#_mask_AcfXyjTqRe7zjzOdpVzv35KQpvjGhIYQ)" vector-effect="non-scaling-stroke" stroke-width="2.187" stroke="rgb(254,254,254)" stroke-linejoin="miter" stroke-linecap="butt" stroke-miterlimit="22.9256"/><mask id="_mask_09a6V4KxRx1t9WAoGE2DL7tpJA3vfLGU" x="-200%" y="-200%" width="400%" height="400%"><rect x="-200%" y="-200%" width="400%" height="400%" style="fill:white;"/><path d=" M 203.009 77.784 C 202.648 77.794 202.288 77.804 201.859 77.589 C 201.43 77.374 200.934 76.934 200.583 76.24 C 200.232 75.547 200.026 74.6 200.035 73.868 C 200.043 73.136 200.266 72.619 200.512 72.173 C 200.757 71.726 201.026 71.352 201.328 71.06 C 201.629 70.768 201.964 70.56 202.32 70.445 C 202.676 70.33 203.054 70.308 203.431 70.287" fill-rule="evenodd" fill="black" stroke="none"/></mask><path d=" M 203.009 77.784 C 202.648 77.794 202.288 77.804 201.859 77.589 C 201.43 77.374 200.934 76.934 200.583 76.24 C 200.232 75.547 200.026 74.6 200.035 73.868 C 200.043 73.136 200.266 72.619 200.512 72.173 C 200.757 71.726 201.026 71.352 201.328 71.06 C 201.629 70.768 201.964 70.56 202.32 70.445 C 202.676 70.33 203.054 70.308 203.431 70.287" fill-rule="evenodd" fill="none"/><path d=" M 203.009 77.784 C 202.648 77.794 202.288 77.804 201.859 77.589 C 201.43 77.374 200.934 76.934 200.583 76.24 C 200.232 75.547 200.026 74.6 200.035 73.868 C 200.043 73.136 200.266 72.619 200.512 72.173 C 200.757 71.726 201.026 71.352 201.328 71.06 C 201.629 70.768 201.964 70.56 202.32 70.445 C 202.676 70.33 203.054 70.308 203.431 70.287" fill-rule="evenodd" fill="none" mask="url(#_mask_09a6V4KxRx1t9WAoGE2DL7tpJA3vfLGU)" vector-effect="non-scaling-stroke" stroke-width="2.187" stroke="rgb(254,254,254)" stroke-linejoin="miter" stroke-linecap="butt" stroke-miterlimit="22.9256"/><mask id="_mask_JcE8DUeJmm01Vz3WGU5Vesw0pbF3VIbj" x="-200%" y="-200%" width="400%" height="400%"><rect x="-200%" y="-200%" width="400%" height="400%" style="fill:white;"/><path d=" M 222.618 85.773 C 222.119 85.685 221.62 85.598 221.092 85.184 C 220.565 84.77 220.009 84.029 219.726 82.982 C 219.443 81.935 219.432 80.583 219.654 79.584 C 219.877 78.585 220.332 77.939 220.798 77.398 C 221.264 76.856 221.741 76.419 222.24 76.104 C 222.739 75.79 223.259 75.599 223.782 75.541 C 224.305 75.483 224.83 75.559 225.354 75.635" fill-rule="evenodd" fill="black" stroke="none"/></mask><path d=" M 222.618 85.773 C 222.119 85.685 221.62 85.598 221.092 85.184 C 220.565 84.77 220.009 84.029 219.726 82.982 C 219.443 81.935 219.432 80.583 219.654 79.584 C 219.877 78.585 220.332 77.939 220.798 77.398 C 221.264 76.856 221.741 76.419 222.24 76.104 C 222.739 75.79 223.259 75.599 223.782 75.541 C 224.305 75.483 224.83 75.559 225.354 75.635" fill-rule="evenodd" fill="none"/><path d=" M 222.618 85.773 C 222.119 85.685 221.62 85.598 221.092 85.184 C 220.565 84.77 220.009 84.029 219.726 82.982 C 219.443 81.935 219.432 80.583 219.654 79.584 C 219.877 78.585 220.332 77.939 220.798 77.398 C 221.264 76.856 221.741 76.419 222.24 76.104 C 222.739 75.79 223.259 75.599 223.782 75.541 C 224.305 75.483 224.83 75.559 225.354 75.635" fill-rule="evenodd" fill="none" mask="url(#_mask_JcE8DUeJmm01Vz3WGU5Vesw0pbF3VIbj)" vector-effect="non-scaling-stroke" stroke-width="2.187" stroke="rgb(254,254,254)" stroke-linejoin="miter" stroke-linecap="butt" stroke-miterlimit="22.9256"/><mask id="_mask_eF4Dql0QHqBJ2uqlVCFuuqawNoGK3Ihs" x="-200%" y="-200%" width="400%" height="400%"><rect x="-200%" y="-200%" width="400%" height="400%" style="fill:white;"/><path d=" M 223.531 75.42 C 223.102 75.153 222.673 74.885 222.341 74.304 C 222.009 73.723 221.774 72.828 221.907 71.75 C 222.04 70.673 222.541 69.412 223.123 68.567 C 223.706 67.723 224.37 67.293 225.006 66.964 C 225.641 66.634 226.248 66.406 226.829 66.299 C 227.409 66.193 227.963 66.209 228.468 66.351 C 228.974 66.492 229.431 66.758 229.888 67.024" fill-rule="evenodd" fill="black" stroke="none"/></mask><path d=" M 223.531 75.42 C 223.102 75.153 222.673 74.885 222.341 74.304 C 222.009 73.723 221.774 72.828 221.907 71.75 C 222.04 70.673 222.541 69.412 223.123 68.567 C 223.706 67.723 224.37 67.293 225.006 66.964 C 225.641 66.634 226.248 66.406 226.829 66.299 C 227.409 66.193 227.963 66.209 228.468 66.351 C 228.974 66.492 229.431 66.758 229.888 67.024" fill-rule="evenodd" fill="none"/><path d=" M 223.531 75.42 C 223.102 75.153 222.673 74.885 222.341 74.304 C 222.009 73.723 221.774 72.828 221.907 71.75 C 222.04 70.673 222.541 69.412 223.123 68.567 C 223.706 67.723 224.37 67.293 225.006 66.964 C 225.641 66.634 226.248 66.406 226.829 66.299 C 227.409 66.193 227.963 66.209 228.468 66.351 C 228.974 66.492 229.431 66.758 229.888 67.024" fill-rule="evenodd" fill="none" mask="url(#_mask_eF4Dql0QHqBJ2uqlVCFuuqawNoGK3Ihs)" vector-effect="non-scaling-stroke" stroke-width="2.187" stroke="rgb(254,254,254)" stroke-linejoin="miter" stroke-linecap="butt" stroke-miterlimit="22.9256"/><mask id="_mask_d7uDFNWyh7dAQvUwFmHhq1K0TsFgGJao" x="-200%" y="-200%" width="400%" height="400%"><rect x="-200%" y="-200%" width="400%" height="400%" style="fill:white;"/><path d=" M 233.072 110.674 C 232.566 110.688 232.061 110.702 231.46 110.401 C 230.86 110.099 230.165 109.483 229.674 108.512 C 229.182 107.541 228.894 106.214 228.906 105.189 C 228.918 104.164 229.229 103.439 229.574 102.815 C 229.917 102.19 230.294 101.665 230.716 101.256 C 231.139 100.848 231.608 100.556 232.107 100.395 C 232.605 100.234 233.133 100.204 233.662 100.173" fill-rule="evenodd" fill="black" stroke="none"/></mask><path d=" M 233.072 110.674 C 232.566 110.688 232.061 110.702 231.46 110.401 C 230.86 110.099 230.165 109.483 229.674 108.512 C 229.182 107.541 228.894 106.214 228.906 105.189 C 228.918 104.164 229.229 103.439 229.574 102.815 C 229.917 102.19 230.294 101.665 230.716 101.256 C 231.139 100.848 231.608 100.556 232.107 100.395 C 232.605 100.234 233.133 100.204 233.662 100.173" fill-rule="evenodd" fill="none"/><path d=" M 233.072 110.674 C 232.566 110.688 232.061 110.702 231.46 110.401 C 230.86 110.099 230.165 109.483 229.674 108.512 C 229.182 107.541 228.894 106.214 228.906 105.189 C 228.918 104.164 229.229 103.439 229.574 102.815 C 229.917 102.19 230.294 101.665 230.716 101.256 C 231.139 100.848 231.608 100.556 232.107 100.395 C 232.605 100.234 233.133 100.204 233.662 100.173" fill-rule="evenodd" fill="none" mask="url(#_mask_d7uDFNWyh7dAQvUwFmHhq1K0TsFgGJao)" vector-effect="non-scaling-stroke" stroke-width="2.187" stroke="rgb(254,254,254)" stroke-linejoin="miter" stroke-linecap="butt" stroke-miterlimit="22.9256"/><mask id="_mask_65xU23ZEqIgPWZ4WpPghGKpKsTAk2Khv" x="-200%" y="-200%" width="400%" height="400%"><rect x="-200%" y="-200%" width="400%" height="400%" style="fill:white;"/><path d=" M 215.894 107.313 C 215.393 107.243 214.891 107.173 214.349 106.778 C 213.807 106.382 213.226 105.661 212.906 104.625 C 212.586 103.589 212.528 102.237 212.715 101.231 C 212.903 100.225 213.335 99.564 213.781 99.007 C 214.228 98.449 214.69 97.995 215.177 97.663 C 215.665 97.331 216.178 97.122 216.699 97.046 C 217.219 96.97 217.746 97.028 218.273 97.085" fill-rule="evenodd" fill="black" stroke="none"/></mask><path d=" M 215.894 107.313 C 215.393 107.243 214.891 107.173 214.349 106.778 C 213.807 106.382 213.226 105.661 212.906 104.625 C 212.586 103.589 212.528 102.237 212.715 101.231 C 212.903 100.225 213.335 99.564 213.781 99.007 C 214.228 98.449 214.69 97.995 215.177 97.663 C 215.665 97.331 216.178 97.122 216.699 97.046 C 217.219 96.97 217.746 97.028 218.273 97.085" fill-rule="evenodd" fill="none"/><path d=" M 215.894 107.313 C 215.393 107.243 214.891 107.173 214.349 106.778 C 213.807 106.382 213.226 105.661 212.906 104.625 C 212.586 103.589 212.528 102.237 212.715 101.231 C 212.903 100.225 213.335 99.564 213.781 99.007 C 214.228 98.449 214.69 97.995 215.177 97.663 C 215.665 97.331 216.178 97.122 216.699 97.046 C 217.219 96.97 217.746 97.028 218.273 97.085" fill-rule="evenodd" fill="none" mask="url(#_mask_65xU23ZEqIgPWZ4WpPghGKpKsTAk2Khv)" vector-effect="non-scaling-stroke" stroke-width="2.187" stroke="rgb(254,254,254)" stroke-linejoin="miter" stroke-linecap="butt" stroke-miterlimit="22.9256"/><mask id="_mask_GicnfyAtpTOGbRDjNKAFiTNtO3XTuhA6" x="-200%" y="-200%" width="400%" height="400%"><rect x="-200%" y="-200%" width="400%" height="400%" style="fill:white;"/><path d=" M 212.987 100.304 C 212.484 100.358 211.982 100.413 211.362 100.16 C 210.743 99.907 210.006 99.347 209.446 98.417 C 208.886 97.487 208.503 96.186 208.44 95.162 C 208.378 94.137 208.636 93.389 208.933 92.738 C 209.23 92.087 209.567 91.533 209.958 91.091 C 210.349 90.65 210.795 90.321 211.28 90.12 C 211.765 89.92 212.289 89.847 212.813 89.775" fill-rule="evenodd" fill="black" stroke="none"/></mask><path d=" M 212.987 100.304 C 212.484 100.358 211.982 100.413 211.362 100.16 C 210.743 99.907 210.006 99.347 209.446 98.417 C 208.886 97.487 208.503 96.186 208.44 95.162 C 208.378 94.137 208.636 93.389 208.933 92.738 C 209.23 92.087 209.567 91.533 209.958 91.091 C 210.349 90.65 210.795 90.321 211.28 90.12 C 211.765 89.92 212.289 89.847 212.813 89.775" fill-rule="evenodd" fill="none"/><path d=" M 212.987 100.304 C 212.484 100.358 211.982 100.413 211.362 100.16 C 210.743 99.907 210.006 99.347 209.446 98.417 C 208.886 97.487 208.503 96.186 208.44 95.162 C 208.378 94.137 208.636 93.389 208.933 92.738 C 209.23 92.087 209.567 91.533 209.958 91.091 C 210.349 90.65 210.795 90.321 211.28 90.12 C 211.765 89.92 212.289 89.847 212.813 89.775" fill-rule="evenodd" fill="none" mask="url(#_mask_GicnfyAtpTOGbRDjNKAFiTNtO3XTuhA6)" vector-effect="non-scaling-stroke" stroke-width="2.187" stroke="rgb(254,254,254)" stroke-linejoin="miter" stroke-linecap="butt" stroke-miterlimit="22.9256"/><mask id="_mask_bTXDAhlNh5IsytUnyBAn1obHxqXpY9Yw" x="-200%" y="-200%" width="400%" height="400%"><rect x="-200%" y="-200%" width="400%" height="400%" style="fill:white;"/><path d=" M 246.951 44.775 C 246.988 29.231 247.282 28.127 247.982 27.042 C 248.682 25.957 249.789 24.892 250.855 24.142 C 251.921 23.393 252.948 22.959 254.001 22.623 C 255.054 22.288 256.134 22.051 257.237 22.012 C 258.34 21.972 259.466 22.13 260.575 22.466 C 261.685 22.801 262.776 23.314 263.659 23.984 C 264.541 24.655 265.214 25.484 265.625 26.371 C 266.035 27.259 266.182 28.206 266.623 28.488 C 267.064 28.771 267.8 28.39 268.535 28.035 C 269.27 27.68 270.006 27.351 270.745 27.16 C 271.485 26.969 272.228 26.917 273.058 26.976 C 273.889 27.035 274.806 27.206 275.591 27.519 C 276.376 27.831 277.028 28.285 277.615 28.768 C 278.202 29.251 278.724 29.764 279.075 30.425 C 279.426 31.086 279.607 31.894 279.73 32.654 C 279.854 33.413 279.921 34.123 279.84 34.833 C 279.759 35.544 279.531 36.254 279.556 36.885 C 279.582 37.516 279.861 38.068 280.365 38.384 C 280.868 38.7 281.595 38.779 282.494 39.015 C 283.394 39.252 284.466 39.647 285.375 40.258 C 286.283 40.87 287.029 41.698 287.569 42.694 C 288.11 43.69 288.445 44.854 288.501 45.984 C 288.557 47.113 288.333 48.207 288.091 49.159 C 287.849 50.111 287.588 50.92 287.252 51.526 C 286.917 52.133 286.507 52.537 286.206 53.075 C 285.905 53.612 285.714 54.283 285.839 54.815 C 285.964 55.348 286.405 55.743 287.028 55.901 C 287.651 56.059 288.455 55.98 289.454 56.148 C 290.453 56.316 291.645 56.73 292.577 57.588 C 293.509 58.446 294.18 59.748 294.243 61.114 C 294.306 62.48 293.76 63.91 293.112 64.877 C 292.463 65.843 291.713 66.346 291.35 66.942 C 290.988 67.539 291.013 68.229 291.209 68.771 C 291.406 69.314 291.773 69.708 292.435 70.182 C 293.097 70.655 294.053 71.207 294.971 71.721 C 295.889 72.234 296.768 72.708 297.571 73.438 C 298.374 74.168 299.101 75.154 299.502 76.081 C 299.903 77.008 299.977 77.876 299.996 78.754 C 300.015 79.632 299.977 80.519 299.688 81.348 C 299.399 82.176 298.859 82.946 298.221 83.665 C 297.583 84.385 296.848 85.055 295.678 85.696 C 294.508 86.337 292.903 86.949 292.138 87.571 C 291.374 88.192 291.448 88.823 291.649 89.356 C 291.849 89.889 292.176 90.323 292.594 90.683 C 293.012 91.042 293.523 91.328 293.983 91.786 C 294.443 92.244 294.853 92.874 295.118 93.695 C 295.384 94.515 295.506 95.525 295.355 96.568 C 295.204 97.611 294.78 98.686 294.184 99.458 C 293.589 100.231 292.822 100.702 292.019 101.006 C 291.216 101.31 290.377 101.448 289.687 101.448 C 288.997 101.448 288.455 101.309 287.961 101.359 C 287.467 101.408 287.021 101.645 286.751 102.063 C 286.481 102.48 286.388 103.078 286.597 103.832 C 286.806 104.585 287.316 105.495 287.59 106.237 C 287.864 106.979 287.902 107.554 287.782 108.507 C 287.663 109.46 287.387 110.791 286.721 111.866 C 286.055 112.941 284.999 113.758 283.961 114.201 C 282.924 114.644 281.904 114.713 281.064 114.56 C 280.224 114.407 279.564 114.032 278.756 113.726 C 277.948 113.42 276.992 113.183 276.367 113.341 C 275.742 113.499 275.448 114.051 275.359 114.791 C 275.27 115.531 275.387 116.459 275.277 117.396 C 275.168 118.333 274.832 119.28 274.254 120.128 C 273.676 120.976 272.856 121.726 271.899 122.091 C 270.943 122.455 269.849 122.435 268.677 122.228 C 267.506 122.021 266.255 121.626 265.557 121.981 C 264.858 122.336 264.711 123.441 264.27 124.467 C 263.829 125.492 263.093 126.439 262.195 127.238 C 261.297 128.037 260.236 128.689 259.015 128.995 C 257.795 129.301 256.416 129.261 254.997 128.857 C 253.579 128.452 252.122 127.682 250.952 126.903 C 249.782 126.123 248.9 125.335 248.275 124.585 C 247.65 123.835 247.282 123.125 247.172 122.415 C 247.061 121.705 247.209 120.995 247.172 105.648 C 247.135 90.302 246.914 60.319 246.951 44.775 L 246.951 44.775 Z " fill-rule="evenodd" fill="black" stroke="none"/></mask><path d=" M 246.951 44.775 C 246.988 29.231 247.282 28.127 247.982 27.042 C 248.682 25.957 249.789 24.892 250.855 24.142 C 251.921 23.393 252.948 22.959 254.001 22.623 C 255.054 22.288 256.134 22.051 257.237 22.012 C 258.34 21.972 259.466 22.13 260.575 22.466 C 261.685 22.801 262.776 23.314 263.659 23.984 C 264.541 24.655 265.214 25.484 265.625 26.371 C 266.035 27.259 266.182 28.206 266.623 28.488 C 267.064 28.771 267.8 28.39 268.535 28.035 C 269.27 27.68 270.006 27.351 270.745 27.16 C 271.485 26.969 272.228 26.917 273.058 26.976 C 273.889 27.035 274.806 27.206 275.591 27.519 C 276.376 27.831 277.028 28.285 277.615 28.768 C 278.202 29.251 278.724 29.764 279.075 30.425 C 279.426 31.086 279.607 31.894 279.73 32.654 C 279.854 33.413 279.921 34.123 279.84 34.833 C 279.759 35.544 279.531 36.254 279.556 36.885 C 279.582 37.516 279.861 38.068 280.365 38.384 C 280.868 38.7 281.595 38.779 282.494 39.015 C 283.394 39.252 284.466 39.647 285.375 40.258 C 286.283 40.87 287.029 41.698 287.569 42.694 C 288.11 43.69 288.445 44.854 288.501 45.984 C 288.557 47.113 288.333 48.207 288.091 49.159 C 287.849 50.111 287.588 50.92 287.252 51.526 C 286.917 52.133 286.507 52.537 286.206 53.075 C 285.905 53.612 285.714 54.283 285.839 54.815 C 285.964 55.348 286.405 55.743 287.028 55.901 C 287.651 56.059 288.455 55.98 289.454 56.148 C 290.453 56.316 291.645 56.73 292.577 57.588 C 293.509 58.446 294.18 59.748 294.243 61.114 C 294.306 62.48 293.76 63.91 293.112 64.877 C 292.463 65.843 291.713 66.346 291.35 66.942 C 290.988 67.539 291.013 68.229 291.209 68.771 C 291.406 69.314 291.773 69.708 292.435 70.182 C 293.097 70.655 294.053 71.207 294.971 71.721 C 295.889 72.234 296.768 72.708 297.571 73.438 C 298.374 74.168 299.101 75.154 299.502 76.081 C 299.903 77.008 299.977 77.876 299.996 78.754 C 300.015 79.632 299.977 80.519 299.688 81.348 C 299.399 82.176 298.859 82.946 298.221 83.665 C 297.583 84.385 296.848 85.055 295.678 85.696 C 294.508 86.337 292.903 86.949 292.138 87.571 C 291.374 88.192 291.448 88.823 291.649 89.356 C 291.849 89.889 292.176 90.323 292.594 90.683 C 293.012 91.042 293.523 91.328 293.983 91.786 C 294.443 92.244 294.853 92.874 295.118 93.695 C 295.384 94.515 295.506 95.525 295.355 96.568 C 295.204 97.611 294.78 98.686 294.184 99.458 C 293.589 100.231 292.822 100.702 292.019 101.006 C 291.216 101.31 290.377 101.448 289.687 101.448 C 288.997 101.448 288.455 101.309 287.961 101.359 C 287.467 101.408 287.021 101.645 286.751 102.063 C 286.481 102.48 286.388 103.078 286.597 103.832 C 286.806 104.585 287.316 105.495 287.59 106.237 C 287.864 106.979 287.902 107.554 287.782 108.507 C 287.663 109.46 287.387 110.791 286.721 111.866 C 286.055 112.941 284.999 113.758 283.961 114.201 C 282.924 114.644 281.904 114.713 281.064 114.56 C 280.224 114.407 279.564 114.032 278.756 113.726 C 277.948 113.42 276.992 113.183 276.367 113.341 C 275.742 113.499 275.448 114.051 275.359 114.791 C 275.27 115.531 275.387 116.459 275.277 117.396 C 275.168 118.333 274.832 119.28 274.254 120.128 C 273.676 120.976 272.856 121.726 271.899 122.091 C 270.943 122.455 269.849 122.435 268.677 122.228 C 267.506 122.021 266.255 121.626 265.557 121.981 C 264.858 122.336 264.711 123.441 264.27 124.467 C 263.829 125.492 263.093 126.439 262.195 127.238 C 261.297 128.037 260.236 128.689 259.015 128.995 C 257.795 129.301 256.416 129.261 254.997 128.857 C 253.579 128.452 252.122 127.682 250.952 126.903 C 249.782 126.123 248.9 125.335 248.275 124.585 C 247.65 123.835 247.282 123.125 247.172 122.415 C 247.061 121.705 247.209 120.995 247.172 105.648 C 247.135 90.302 246.914 60.319 246.951 44.775 L 246.951 44.775 Z " fill-rule="evenodd" fill="rgb(0,160,227)"/><path d=" M 246.951 44.775 C 246.988 29.231 247.282 28.127 247.982 27.042 C 248.682 25.957 249.789 24.892 250.855 24.142 C 251.921 23.393 252.948 22.959 254.001 22.623 C 255.054 22.288 256.134 22.051 257.237 22.012 C 258.34 21.972 259.466 22.13 260.575 22.466 C 261.685 22.801 262.776 23.314 263.659 23.984 C 264.541 24.655 265.214 25.484 265.625 26.371 C 266.035 27.259 266.182 28.206 266.623 28.488 C 267.064 28.771 267.8 28.39 268.535 28.035 C 269.27 27.68 270.006 27.351 270.745 27.16 C 271.485 26.969 272.228 26.917 273.058 26.976 C 273.889 27.035 274.806 27.206 275.591 27.519 C 276.376 27.831 277.028 28.285 277.615 28.768 C 278.202 29.251 278.724 29.764 279.075 30.425 C 279.426 31.086 279.607 31.894 279.73 32.654 C 279.854 33.413 279.921 34.123 279.84 34.833 C 279.759 35.544 279.531 36.254 279.556 36.885 C 279.582 37.516 279.861 38.068 280.365 38.384 C 280.868 38.7 281.595 38.779 282.494 39.015 C 283.394 39.252 284.466 39.647 285.375 40.258 C 286.283 40.87 287.029 41.698 287.569 42.694 C 288.11 43.69 288.445 44.854 288.501 45.984 C 288.557 47.113 288.333 48.207 288.091 49.159 C 287.849 50.111 287.588 50.92 287.252 51.526 C 286.917 52.133 286.507 52.537 286.206 53.075 C 285.905 53.612 285.714 54.283 285.839 54.815 C 285.964 55.348 286.405 55.743 287.028 55.901 C 287.651 56.059 288.455 55.98 289.454 56.148 C 290.453 56.316 291.645 56.73 292.577 57.588 C 293.509 58.446 294.18 59.748 294.243 61.114 C 294.306 62.48 293.76 63.91 293.112 64.877 C 292.463 65.843 291.713 66.346 291.35 66.942 C 290.988 67.539 291.013 68.229 291.209 68.771 C 291.406 69.314 291.773 69.708 292.435 70.182 C 293.097 70.655 294.053 71.207 294.971 71.721 C 295.889 72.234 296.768 72.708 297.571 73.438 C 298.374 74.168 299.101 75.154 299.502 76.081 C 299.903 77.008 299.977 77.876 299.996 78.754 C 300.015 79.632 299.977 80.519 299.688 81.348 C 299.399 82.176 298.859 82.946 298.221 83.665 C 297.583 84.385 296.848 85.055 295.678 85.696 C 294.508 86.337 292.903 86.949 292.138 87.571 C 291.374 88.192 291.448 88.823 291.649 89.356 C 291.849 89.889 292.176 90.323 292.594 90.683 C 293.012 91.042 293.523 91.328 293.983 91.786 C 294.443 92.244 294.853 92.874 295.118 93.695 C 295.384 94.515 295.506 95.525 295.355 96.568 C 295.204 97.611 294.78 98.686 294.184 99.458 C 293.589 100.231 292.822 100.702 292.019 101.006 C 291.216 101.31 290.377 101.448 289.687 101.448 C 288.997 101.448 288.455 101.309 287.961 101.359 C 287.467 101.408 287.021 101.645 286.751 102.063 C 286.481 102.48 286.388 103.078 286.597 103.832 C 286.806 104.585 287.316 105.495 287.59 106.237 C 287.864 106.979 287.902 107.554 287.782 108.507 C 287.663 109.46 287.387 110.791 286.721 111.866 C 286.055 112.941 284.999 113.758 283.961 114.201 C 282.924 114.644 281.904 114.713 281.064 114.56 C 280.224 114.407 279.564 114.032 278.756 113.726 C 277.948 113.42 276.992 113.183 276.367 113.341 C 275.742 113.499 275.448 114.051 275.359 114.791 C 275.27 115.531 275.387 116.459 275.277 117.396 C 275.168 118.333 274.832 119.28 274.254 120.128 C 273.676 120.976 272.856 121.726 271.899 122.091 C 270.943 122.455 269.849 122.435 268.677 122.228 C 267.506 122.021 266.255 121.626 265.557 121.981 C 264.858 122.336 264.711 123.441 264.27 124.467 C 263.829 125.492 263.093 126.439 262.195 127.238 C 261.297 128.037 260.236 128.689 259.015 128.995 C 257.795 129.301 256.416 129.261 254.997 128.857 C 253.579 128.452 252.122 127.682 250.952 126.903 C 249.782 126.123 248.9 125.335 248.275 124.585 C 247.65 123.835 247.282 123.125 247.172 122.415 C 247.061 121.705 247.209 120.995 247.172 105.648 C 247.135 90.302 246.914 60.319 246.951 44.775 L 246.951 44.775 Z " fill-rule="evenodd" fill="rgb(0,160,227)" mask="url(#_mask_bTXDAhlNh5IsytUnyBAn1obHxqXpY9Yw)" vector-effect="non-scaling-stroke" stroke-width="2.187" stroke="rgb(254,254,254)" stroke-linejoin="miter" stroke-linecap="butt" stroke-miterlimit="22.9256"/><mask id="_mask_X1l8UpBJrQb6D4AA8UI1Owh0VVHEPSaZ" x="-200%" y="-200%" width="400%" height="400%"><rect x="-200%" y="-200%" width="400%" height="400%" style="fill:white;"/><path d=" M 279.123 54.873 C 279.455 54.508 279.786 54.144 279.957 53.497 C 280.128 52.85 280.14 51.922 279.773 50.904 C 279.407 49.887 278.663 48.782 277.939 48.1 C 277.214 47.419 276.509 47.162 275.853 46.996 C 275.198 46.83 274.591 46.755 274.037 46.793 C 273.482 46.83 272.98 46.981 272.55 47.241 C 272.12 47.502 271.763 47.872 271.406 48.242" fill-rule="evenodd" fill="black" stroke="none"/></mask><path d=" M 279.123 54.873 C 279.455 54.508 279.786 54.144 279.957 53.497 C 280.128 52.85 280.14 51.922 279.773 50.904 C 279.407 49.887 278.663 48.782 277.939 48.1 C 277.214 47.419 276.509 47.162 275.853 46.996 C 275.198 46.83 274.591 46.755 274.037 46.793 C 273.482 46.83 272.98 46.981 272.55 47.241 C 272.12 47.502 271.763 47.872 271.406 48.242" fill-rule="evenodd" fill="none"/><path d=" M 279.123 54.873 C 279.455 54.508 279.786 54.144 279.957 53.497 C 280.128 52.85 280.14 51.922 279.773 50.904 C 279.407 49.887 278.663 48.782 277.939 48.1 C 277.214 47.419 276.509 47.162 275.853 46.996 C 275.198 46.83 274.591 46.755 274.037 46.793 C 273.482 46.83 272.98 46.981 272.55 47.241 C 272.12 47.502 271.763 47.872 271.406 48.242" fill-rule="evenodd" fill="none" mask="url(#_mask_X1l8UpBJrQb6D4AA8UI1Owh0VVHEPSaZ)" vector-effect="non-scaling-stroke" stroke-width="2.187" stroke="rgb(254,254,254)" stroke-linejoin="miter" stroke-linecap="butt" stroke-miterlimit="22.9256"/><mask id="_mask_zYAq2vUChWHwMWcRrsOUiBVWNzHXTFpz" x="-200%" y="-200%" width="400%" height="400%"><rect x="-200%" y="-200%" width="400%" height="400%" style="fill:white;"/><path d=" M 274.037 46.793 C 274.349 46.193 274.662 45.594 274.631 44.708 C 274.601 43.821 274.227 42.648 273.5 41.825 C 272.773 41.002 271.692 40.528 270.722 40.43 C 269.753 40.331 268.896 40.607 268.206 41.002 C 267.516 41.396 266.994 41.909 266.472 42.421" fill-rule="evenodd" fill="black" stroke="none"/></mask><path d=" M 274.037 46.793 C 274.349 46.193 274.662 45.594 274.631 44.708 C 274.601 43.821 274.227 42.648 273.5 41.825 C 272.773 41.002 271.692 40.528 270.722 40.43 C 269.753 40.331 268.896 40.607 268.206 41.002 C 267.516 41.396 266.994 41.909 266.472 42.421" fill-rule="evenodd" fill="none"/><path d=" M 274.037 46.793 C 274.349 46.193 274.662 45.594 274.631 44.708 C 274.601 43.821 274.227 42.648 273.5 41.825 C 272.773 41.002 271.692 40.528 270.722 40.43 C 269.753 40.331 268.896 40.607 268.206 41.002 C 267.516 41.396 266.994 41.909 266.472 42.421" fill-rule="evenodd" fill="none" mask="url(#_mask_zYAq2vUChWHwMWcRrsOUiBVWNzHXTFpz)" vector-effect="non-scaling-stroke" stroke-width="2.187" stroke="rgb(254,254,254)" stroke-linejoin="miter" stroke-linecap="butt" stroke-miterlimit="22.9256"/><mask id="_mask_N7IWzyr2yeXXEAfCfpqTguTUcltBBBq1" x="-200%" y="-200%" width="400%" height="400%"><rect x="-200%" y="-200%" width="400%" height="400%" style="fill:white;"/><path d=" M 256.008 60.161 C 256.485 60.174 256.963 60.188 257.531 59.887 C 258.098 59.586 258.755 58.969 259.22 57.998 C 259.684 57.027 259.957 55.701 259.945 54.676 C 259.934 53.65 259.64 52.926 259.314 52.301 C 258.989 51.676 258.634 51.151 258.234 50.743 C 257.835 50.334 257.391 50.042 256.92 49.881 C 256.448 49.72 255.949 49.69 255.45 49.66" fill-rule="evenodd" fill="black" stroke="none"/></mask><path d=" M 256.008 60.161 C 256.485 60.174 256.963 60.188 257.531 59.887 C 258.098 59.586 258.755 58.969 259.22 57.998 C 259.684 57.027 259.957 55.701 259.945 54.676 C 259.934 53.65 259.64 52.926 259.314 52.301 C 258.989 51.676 258.634 51.151 258.234 50.743 C 257.835 50.334 257.391 50.042 256.92 49.881 C 256.448 49.72 255.949 49.69 255.45 49.66" fill-rule="evenodd" fill="none"/><path d=" M 256.008 60.161 C 256.485 60.174 256.963 60.188 257.531 59.887 C 258.098 59.586 258.755 58.969 259.22 57.998 C 259.684 57.027 259.957 55.701 259.945 54.676 C 259.934 53.65 259.64 52.926 259.314 52.301 C 258.989 51.676 258.634 51.151 258.234 50.743 C 257.835 50.334 257.391 50.042 256.92 49.881 C 256.448 49.72 255.949 49.69 255.45 49.66" fill-rule="evenodd" fill="none" mask="url(#_mask_N7IWzyr2yeXXEAfCfpqTguTUcltBBBq1)" vector-effect="non-scaling-stroke" stroke-width="2.187" stroke="rgb(254,254,254)" stroke-linejoin="miter" stroke-linecap="butt" stroke-miterlimit="22.9256"/><mask id="_mask_hOMjweVdLWAyagjGiMy6CqIXoZK6EDeL" x="-200%" y="-200%" width="400%" height="400%"><rect x="-200%" y="-200%" width="400%" height="400%" style="fill:white;"/><path d=" M 286.109 78.443 C 286.45 78.453 286.791 78.463 287.197 78.248 C 287.602 78.033 288.071 77.593 288.403 76.899 C 288.734 76.206 288.929 75.259 288.921 74.527 C 288.913 73.795 288.702 73.278 288.47 72.831 C 288.238 72.385 287.984 72.011 287.699 71.719 C 287.414 71.427 287.097 71.219 286.76 71.104 C 286.424 70.989 286.067 70.967 285.711 70.946" fill-rule="evenodd" fill="black" stroke="none"/></mask><path d=" M 286.109 78.443 C 286.45 78.453 286.791 78.463 287.197 78.248 C 287.602 78.033 288.071 77.593 288.403 76.899 C 288.734 76.206 288.929 75.259 288.921 74.527 C 288.913 73.795 288.702 73.278 288.47 72.831 C 288.238 72.385 287.984 72.011 287.699 71.719 C 287.414 71.427 287.097 71.219 286.76 71.104 C 286.424 70.989 286.067 70.967 285.711 70.946" fill-rule="evenodd" fill="none"/><path d=" M 286.109 78.443 C 286.45 78.453 286.791 78.463 287.197 78.248 C 287.602 78.033 288.071 77.593 288.403 76.899 C 288.734 76.206 288.929 75.259 288.921 74.527 C 288.913 73.795 288.702 73.278 288.47 72.831 C 288.238 72.385 287.984 72.011 287.699 71.719 C 287.414 71.427 287.097 71.219 286.76 71.104 C 286.424 70.989 286.067 70.967 285.711 70.946" fill-rule="evenodd" fill="none" mask="url(#_mask_hOMjweVdLWAyagjGiMy6CqIXoZK6EDeL)" vector-effect="non-scaling-stroke" stroke-width="2.187" stroke="rgb(254,254,254)" stroke-linejoin="miter" stroke-linecap="butt" stroke-miterlimit="22.9256"/><mask id="_mask_KRAvolkYiavI4wlTZBG815kVqZZ2AAda" x="-200%" y="-200%" width="400%" height="400%"><rect x="-200%" y="-200%" width="400%" height="400%" style="fill:white;"/><path d=" M 267.573 86.432 C 268.045 86.344 268.516 86.257 269.015 85.843 C 269.514 85.429 270.039 84.688 270.307 83.641 C 270.575 82.594 270.585 81.242 270.374 80.243 C 270.164 79.244 269.734 78.598 269.294 78.057 C 268.853 77.515 268.402 77.078 267.93 76.763 C 267.459 76.449 266.967 76.257 266.473 76.2 C 265.979 76.142 265.482 76.218 264.986 76.294" fill-rule="evenodd" fill="black" stroke="none"/></mask><path d=" M 267.573 86.432 C 268.045 86.344 268.516 86.257 269.015 85.843 C 269.514 85.429 270.039 84.688 270.307 83.641 C 270.575 82.594 270.585 81.242 270.374 80.243 C 270.164 79.244 269.734 78.598 269.294 78.057 C 268.853 77.515 268.402 77.078 267.93 76.763 C 267.459 76.449 266.967 76.257 266.473 76.2 C 265.979 76.142 265.482 76.218 264.986 76.294" fill-rule="evenodd" fill="none"/><path d=" M 267.573 86.432 C 268.045 86.344 268.516 86.257 269.015 85.843 C 269.514 85.429 270.039 84.688 270.307 83.641 C 270.575 82.594 270.585 81.242 270.374 80.243 C 270.164 79.244 269.734 78.598 269.294 78.057 C 268.853 77.515 268.402 77.078 267.93 76.763 C 267.459 76.449 266.967 76.257 266.473 76.2 C 265.979 76.142 265.482 76.218 264.986 76.294" fill-rule="evenodd" fill="none" mask="url(#_mask_KRAvolkYiavI4wlTZBG815kVqZZ2AAda)" vector-effect="non-scaling-stroke" stroke-width="2.187" stroke="rgb(254,254,254)" stroke-linejoin="miter" stroke-linecap="butt" stroke-miterlimit="22.9256"/><mask id="_mask_eQYSeHMDMRdnmhaOjC9Vrrp7cc9Zc8xe" x="-200%" y="-200%" width="400%" height="400%"><rect x="-200%" y="-200%" width="400%" height="400%" style="fill:white;"/><path d=" M 266.71 76.079 C 267.115 75.811 267.521 75.544 267.835 74.963 C 268.148 74.382 268.37 73.487 268.245 72.409 C 268.119 71.332 267.646 70.071 267.095 69.226 C 266.545 68.381 265.917 67.952 265.316 67.622 C 264.715 67.293 264.141 67.065 263.593 66.958 C 263.044 66.852 262.521 66.868 262.043 67.01 C 261.565 67.151 261.133 67.417 260.701 67.683" fill-rule="evenodd" fill="black" stroke="none"/></mask><path d=" M 266.71 76.079 C 267.115 75.811 267.521 75.544 267.835 74.963 C 268.148 74.382 268.37 73.487 268.245 72.409 C 268.119 71.332 267.646 70.071 267.095 69.226 C 266.545 68.381 265.917 67.952 265.316 67.622 C 264.715 67.293 264.141 67.065 263.593 66.958 C 263.044 66.852 262.521 66.868 262.043 67.01 C 261.565 67.151 261.133 67.417 260.701 67.683" fill-rule="evenodd" fill="none"/><path d=" M 266.71 76.079 C 267.115 75.811 267.521 75.544 267.835 74.963 C 268.148 74.382 268.37 73.487 268.245 72.409 C 268.119 71.332 267.646 70.071 267.095 69.226 C 266.545 68.381 265.917 67.952 265.316 67.622 C 264.715 67.293 264.141 67.065 263.593 66.958 C 263.044 66.852 262.521 66.868 262.043 67.01 C 261.565 67.151 261.133 67.417 260.701 67.683" fill-rule="evenodd" fill="none" mask="url(#_mask_eQYSeHMDMRdnmhaOjC9Vrrp7cc9Zc8xe)" vector-effect="non-scaling-stroke" stroke-width="2.187" stroke="rgb(254,254,254)" stroke-linejoin="miter" stroke-linecap="butt" stroke-miterlimit="22.9256"/><mask id="_mask_GHBEEEPhv5GfZ8OlVlCv5j2pevyq5kTn" x="-200%" y="-200%" width="400%" height="400%"><rect x="-200%" y="-200%" width="400%" height="400%" style="fill:white;"/><path d=" M 261.814 101.998 C 262.13 102.008 262.446 102.017 262.821 101.818 C 263.196 101.618 263.631 101.211 263.938 100.568 C 264.245 99.926 264.425 99.049 264.418 98.371 C 264.41 97.693 264.216 97.214 264 96.801 C 263.785 96.387 263.55 96.04 263.286 95.77 C 263.022 95.5 262.729 95.307 262.417 95.2 C 262.105 95.094 261.775 95.074 261.445 95.054" fill-rule="evenodd" fill="black" stroke="none"/></mask><path d=" M 261.814 101.998 C 262.13 102.008 262.446 102.017 262.821 101.818 C 263.196 101.618 263.631 101.211 263.938 100.568 C 264.245 99.926 264.425 99.049 264.418 98.371 C 264.41 97.693 264.216 97.214 264 96.801 C 263.785 96.387 263.55 96.04 263.286 95.77 C 263.022 95.5 262.729 95.307 262.417 95.2 C 262.105 95.094 261.775 95.074 261.445 95.054" fill-rule="evenodd" fill="none"/><path d=" M 261.814 101.998 C 262.13 102.008 262.446 102.017 262.821 101.818 C 263.196 101.618 263.631 101.211 263.938 100.568 C 264.245 99.926 264.425 99.049 264.418 98.371 C 264.41 97.693 264.216 97.214 264 96.801 C 263.785 96.387 263.55 96.04 263.286 95.77 C 263.022 95.5 262.729 95.307 262.417 95.2 C 262.105 95.094 261.775 95.074 261.445 95.054" fill-rule="evenodd" fill="none" mask="url(#_mask_GHBEEEPhv5GfZ8OlVlCv5j2pevyq5kTn)" vector-effect="non-scaling-stroke" stroke-width="2.187" stroke="rgb(254,254,254)" stroke-linejoin="miter" stroke-linecap="butt" stroke-miterlimit="22.9256"/><mask id="_mask_v0kqDsQYBflTbYX3ZCc1K3Tdv4I17b4w" x="-200%" y="-200%" width="400%" height="400%"><rect x="-200%" y="-200%" width="400%" height="400%" style="fill:white;"/><path d=" M 272.552 99.775 C 272.866 99.729 273.18 99.683 273.519 99.421 C 273.857 99.16 274.221 98.683 274.421 97.998 C 274.62 97.313 274.657 96.419 274.54 95.753 C 274.423 95.088 274.153 94.651 273.873 94.282 C 273.594 93.913 273.306 93.613 273.001 93.394 C 272.696 93.174 272.375 93.036 272.05 92.985 C 271.724 92.935 271.395 92.973 271.065 93.011" fill-rule="evenodd" fill="black" stroke="none"/></mask><path d=" M 272.552 99.775 C 272.866 99.729 273.18 99.683 273.519 99.421 C 273.857 99.16 274.221 98.683 274.421 97.998 C 274.62 97.313 274.657 96.419 274.54 95.753 C 274.423 95.088 274.153 94.651 273.873 94.282 C 273.594 93.913 273.306 93.613 273.001 93.394 C 272.696 93.174 272.375 93.036 272.05 92.985 C 271.724 92.935 271.395 92.973 271.065 93.011" fill-rule="evenodd" fill="none"/><path d=" M 272.552 99.775 C 272.866 99.729 273.18 99.683 273.519 99.421 C 273.857 99.16 274.221 98.683 274.421 97.998 C 274.62 97.313 274.657 96.419 274.54 95.753 C 274.423 95.088 274.153 94.651 273.873 94.282 C 273.594 93.913 273.306 93.613 273.001 93.394 C 272.696 93.174 272.375 93.036 272.05 92.985 C 271.724 92.935 271.395 92.973 271.065 93.011" fill-rule="evenodd" fill="none" mask="url(#_mask_v0kqDsQYBflTbYX3ZCc1K3Tdv4I17b4w)" vector-effect="non-scaling-stroke" stroke-width="2.187" stroke="rgb(254,254,254)" stroke-linejoin="miter" stroke-linecap="butt" stroke-miterlimit="22.9256"/><mask id="_mask_dE4oEG1XgJPqpKpXFbhIWlceCBcf4Dig" x="-200%" y="-200%" width="400%" height="400%"><rect x="-200%" y="-200%" width="400%" height="400%" style="fill:white;"/><path d=" M 274.917 106.933 C 275.308 106.977 275.699 107.022 276.182 106.814 C 276.665 106.605 277.239 106.144 277.675 105.377 C 278.112 104.611 278.41 103.539 278.459 102.694 C 278.508 101.85 278.307 101.233 278.075 100.697 C 277.843 100.16 277.581 99.704 277.276 99.34 C 276.971 98.976 276.624 98.705 276.246 98.54 C 275.868 98.374 275.46 98.315 275.052 98.255" fill-rule="evenodd" fill="black" stroke="none"/></mask><path d=" M 274.917 106.933 C 275.308 106.977 275.699 107.022 276.182 106.814 C 276.665 106.605 277.239 106.144 277.675 105.377 C 278.112 104.611 278.41 103.539 278.459 102.694 C 278.508 101.85 278.307 101.233 278.075 100.697 C 277.843 100.16 277.581 99.704 277.276 99.34 C 276.971 98.976 276.624 98.705 276.246 98.54 C 275.868 98.374 275.46 98.315 275.052 98.255" fill-rule="evenodd" fill="none"/><path d=" M 274.917 106.933 C 275.308 106.977 275.699 107.022 276.182 106.814 C 276.665 106.605 277.239 106.144 277.675 105.377 C 278.112 104.611 278.41 103.539 278.459 102.694 C 278.508 101.85 278.307 101.233 278.075 100.697 C 277.843 100.16 277.581 99.704 277.276 99.34 C 276.971 98.976 276.624 98.705 276.246 98.54 C 275.868 98.374 275.46 98.315 275.052 98.255" fill-rule="evenodd" fill="none" mask="url(#_mask_dE4oEG1XgJPqpKpXFbhIWlceCBcf4Dig)" vector-effect="non-scaling-stroke" stroke-width="2.187" stroke="rgb(254,254,254)" stroke-linejoin="miter" stroke-linecap="butt" stroke-miterlimit="22.9256"/><path d=" M 73.459 72.221 L 73.35 34.059 L 66.09 34.059 L 52.034 57.774 L 37.76 34.059 L 30.455 34.059 L 30.455 72.221 L 38.741 72.221 L 38.741 49.814 L 49.908 68.187 L 53.888 68.187 L 65.109 49.324 L 65.163 72.221 L 73.459 72.221 L 73.459 72.221 Z  M 124.223 34.059 L 124.223 57.229 L 105.252 34.059 L 97.946 34.059 L 97.946 72.221 L 106.669 72.221 L 106.669 49.051 L 125.695 72.221 L 132.946 72.221 L 132.946 34.059 L 124.223 34.059 Z  M 141.996 72.221 L 159.332 72.221 C 171.816 72.221 180.376 64.698 180.376 53.14 C 180.376 41.582 171.816 34.059 159.332 34.059 L 141.996 34.059 L 141.996 72.221 Z  M 150.828 64.97 L 150.828 41.31 L 158.896 41.31 C 166.474 41.31 171.435 45.835 171.435 53.14 C 171.435 60.445 166.474 64.97 158.896 64.97 L 150.828 64.97 L 150.828 64.97 Z " fill="rgb(43,42,41)" vector-effect="non-scaling-stroke" stroke-width="1.093" stroke="rgb(255,255,255)" stroke-linejoin="miter" stroke-linecap="butt" stroke-miterlimit="22.9256"/><path d=" M 22.237 120.621 C 29.395 120.621 35.321 118.04 39.193 113.287 L 33.091 107.655 C 30.333 110.882 26.872 112.525 22.765 112.525 C 15.079 112.525 9.622 107.127 9.622 99.382 C 9.622 91.637 15.079 86.239 22.765 86.239 C 26.872 86.239 30.333 87.882 33.091 91.051 L 39.193 85.418 C 35.321 80.724 29.395 78.143 22.295 78.143 C 9.505 78.143 0 87.002 0 99.382 C 0 111.762 9.505 120.621 22.237 120.621 L 22.237 120.621 Z  M 45.588 119.917 L 75.687 119.917 L 75.687 112.172 L 55.093 112.172 L 55.093 78.847 L 45.588 78.847 L 45.588 119.917 Z  M 117.285 120.621 C 124.443 120.621 130.369 118.04 134.241 113.287 L 128.14 107.655 C 125.382 110.882 121.92 112.525 117.813 112.525 C 110.127 112.525 104.671 107.127 104.671 99.382 C 104.671 91.637 110.127 86.239 117.813 86.239 C 121.92 86.239 125.382 87.882 128.14 91.051 L 134.241 85.418 C 130.369 80.724 124.443 78.143 117.344 78.143 C 104.553 78.143 95.049 87.002 95.049 99.382 C 95.049 111.762 104.553 120.621 117.285 120.621 L 117.285 120.621 Z  M 168.741 119.917 L 179.83 119.917 L 161.817 97.152 L 178.832 78.847 L 168.271 78.847 L 150.083 98.033 L 150.083 78.847 L 140.637 78.847 L 140.637 119.917 L 150.083 119.917 L 150.083 109.532 L 155.598 103.782 L 168.741 119.917 Z " fill="rgb(43,42,41)" vector-effect="non-scaling-stroke" stroke-width="1.093" stroke="rgb(254,254,254)" stroke-linejoin="miter" stroke-linecap="butt" stroke-miterlimit="22.9256"/><mask id="_mask_FAk7fphHtqyYRyqrK0zCeSjrlvo8Lme4" x="-200%" y="-200%" width="400%" height="400%"><rect x="-200%" y="-200%" width="400%" height="400%" style="fill:white;"/><path d=" M 81.547 41.24 L 81.547 28.018 L 78.007 28.018 L 85.088 14.796 L 92.168 28.018 L 88.628 28.018 L 88.628 41.24 L 81.547 41.24 Z " fill="black" stroke="none"/></mask><path d=" M 81.547 41.24 L 81.547 28.018 L 78.007 28.018 L 85.088 14.796 L 92.168 28.018 L 88.628 28.018 L 88.628 41.24 L 81.547 41.24 Z " fill="rgb(227,30,36)"/><path d=" M 81.547 41.24 L 81.547 28.018 L 78.007 28.018 L 85.088 14.796 L 92.168 28.018 L 88.628 28.018 L 88.628 41.24 L 81.547 41.24 Z " fill="rgb(227,30,36)" mask="url(#_mask_FAk7fphHtqyYRyqrK0zCeSjrlvo8Lme4)" vector-effect="non-scaling-stroke" stroke-width="2.187" stroke="rgb(254,254,254)" stroke-linejoin="miter" stroke-linecap="butt" stroke-miterlimit="22.9256"/><mask id="_mask_M9qsWVRcsOpHjhcabirUYwiIM7k2k8a7" x="-200%" y="-200%" width="400%" height="400%"><rect x="-200%" y="-200%" width="400%" height="400%" style="fill:white;"/><path d=" M 81.397 60.18 L 81.397 46.958 L 77.857 46.958 L 84.937 33.736 L 92.017 46.958 L 88.477 46.958 L 88.477 60.18 L 81.397 60.18 Z " fill="black" stroke="none"/></mask><path d=" M 81.397 60.18 L 81.397 46.958 L 77.857 46.958 L 84.937 33.736 L 92.017 46.958 L 88.477 46.958 L 88.477 60.18 L 81.397 60.18 Z " fill="rgb(255,237,0)"/><path d=" M 81.397 60.18 L 81.397 46.958 L 77.857 46.958 L 84.937 33.736 L 92.017 46.958 L 88.477 46.958 L 88.477 60.18 L 81.397 60.18 Z " fill="rgb(255,237,0)" mask="url(#_mask_M9qsWVRcsOpHjhcabirUYwiIM7k2k8a7)" vector-effect="non-scaling-stroke" stroke-width="2.187" stroke="rgb(254,254,254)" stroke-linejoin="miter" stroke-linecap="butt" stroke-miterlimit="22.9256"/><mask id="_mask_QIgvStgnd9xMvXQ4UyuiBPnQHx2gvAX5" x="-200%" y="-200%" width="400%" height="400%"><rect x="-200%" y="-200%" width="400%" height="400%" style="fill:white;"/><path d=" M 81.698 79.477 L 81.698 66.255 L 78.158 66.255 L 85.238 53.033 L 92.319 66.255 L 88.778 66.255 L 88.778 79.477 L 81.698 79.477 Z " fill="black" stroke="none"/></mask><path d=" M 81.698 79.477 L 81.698 66.255 L 78.158 66.255 L 85.238 53.033 L 92.319 66.255 L 88.778 66.255 L 88.778 79.477 L 81.698 79.477 Z " fill="rgb(0,160,227)"/><path d=" M 81.698 79.477 L 81.698 66.255 L 78.158 66.255 L 85.238 53.033 L 92.319 66.255 L 88.778 66.255 L 88.778 79.477 L 81.698 79.477 Z " fill="rgb(0,160,227)" mask="url(#_mask_QIgvStgnd9xMvXQ4UyuiBPnQHx2gvAX5)" vector-effect="non-scaling-stroke" stroke-width="2.187" stroke="rgb(254,254,254)" stroke-linejoin="miter" stroke-linecap="butt" stroke-miterlimit="22.9256"/><mask id="_mask_Flsql324EIUwJZiSXYejldgf3Ig7N0De" x="-200%" y="-200%" width="400%" height="400%"><rect x="-200%" y="-200%" width="400%" height="400%" style="fill:white;"/><path d=" M 81.999 99.131 L 81.999 85.909 L 78.459 85.909 L 85.54 72.687 L 92.62 85.909 L 89.08 85.909 L 89.08 99.131 L 81.999 99.131 Z " fill="black" stroke="none"/></mask><path d=" M 81.999 99.131 L 81.999 85.909 L 78.459 85.909 L 85.54 72.687 L 92.62 85.909 L 89.08 85.909 L 89.08 99.131 L 81.999 99.131 Z " fill="rgb(58,172,83)"/><path d=" M 81.999 99.131 L 81.999 85.909 L 78.459 85.909 L 85.54 72.687 L 92.62 85.909 L 89.08 85.909 L 89.08 99.131 L 81.999 99.131 Z " fill="rgb(58,172,83)" mask="url(#_mask_Flsql324EIUwJZiSXYejldgf3Ig7N0De)" vector-effect="non-scaling-stroke" stroke-width="2.187" stroke="rgb(254,254,254)" stroke-linejoin="miter" stroke-linecap="butt" stroke-miterlimit="22.9256"/><mask id="_mask_ic1Aw9KCaoYp46xxgk7jk0eF6k8m86DJ" x="-200%" y="-200%" width="400%" height="400%"><rect x="-200%" y="-200%" width="400%" height="400%" style="fill:white;"/><path d=" M 81.999 118.785 L 81.999 105.563 L 78.459 105.563 L 85.54 92.341 L 92.62 105.563 L 89.08 105.563 L 89.08 118.785 L 81.999 118.785 Z " fill="black" stroke="none"/></mask><path d=" M 81.999 118.785 L 81.999 105.563 L 78.459 105.563 L 85.54 92.341 L 92.62 105.563 L 89.08 105.563 L 89.08 118.785 L 81.999 118.785 Z " fill="rgb(229,9,127)"/><path d=" M 81.999 118.785 L 81.999 105.563 L 78.459 105.563 L 85.54 92.341 L 92.62 105.563 L 89.08 105.563 L 89.08 118.785 L 81.999 118.785 Z " fill="rgb(229,9,127)" mask="url(#_mask_ic1Aw9KCaoYp46xxgk7jk0eF6k8m86DJ)" vector-effect="non-scaling-stroke" stroke-width="2.187" stroke="rgb(254,254,254)" stroke-linejoin="miter" stroke-linecap="butt" stroke-miterlimit="22.9256"/><mask id="_mask_ywVwbEJvfMoWVPt5rlC3v2WPBJuWSbCm" x="-200%" y="-200%" width="400%" height="400%"><rect x="-200%" y="-200%" width="400%" height="400%" style="fill:white;"/><path d=" M 278.312 135.204 L 262.714 116.198 L 255.083 122.461 L 254.748 90.93 L 285.607 97.41 L 277.976 103.673 L 293.574 122.678 L 278.312 135.204 Z " fill="black" stroke="none"/></mask><path d=" M 278.312 135.204 L 262.714 116.198 L 255.083 122.461 L 254.748 90.93 L 285.607 97.41 L 277.976 103.673 L 293.574 122.678 L 278.312 135.204 Z " fill="rgb(43,42,41)"/><path d=" M 278.312 135.204 L 262.714 116.198 L 255.083 122.461 L 254.748 90.93 L 285.607 97.41 L 277.976 103.673 L 293.574 122.678 L 278.312 135.204 Z " fill="rgb(43,42,41)" mask="url(#_mask_ywVwbEJvfMoWVPt5rlC3v2WPBJuWSbCm)" vector-effect="non-scaling-stroke" stroke-width="2.187" stroke="rgb(254,254,254)" stroke-linejoin="miter" stroke-linecap="butt" stroke-miterlimit="22.9256"/></g></g></g></svg>