<?xml version="1.0"?>
<svg xmlns="http://www.w3.org/2000/svg" xmlns:xlink="http://www.w3.org/1999/xlink" xmlns:svgjs="http://svgjs.com/svgjs" version="1.1" width="512" height="512" x="0" y="0" viewBox="0 0 480 480" style="enable-background:new 0 0 512 512" xml:space="preserve" class=""><g><path xmlns="http://www.w3.org/2000/svg" d="m398 8h-316c-8.84 0-16 7.16-16 16v14c0 8.84 7.16 16 16 16h33.97v108.11c0 13.482 10.776 24.89 25.03 24.89v3.13c0 41.24 25.22 76.59 61.07 91.47-.027 23.182-14.818 43.649-36.52 51.11-25.306 8.748-43.02 14.741-43.12 14.84-21.8 7.54-36.435 28.07-36.445 51.13v65.32c0 4.42 3.565 8 7.985 8h292.06c4.42 0 7.985-3.58 7.985-8v-65.32c-.01-23.07-14.655-43.6-36.465-51.14h-.01c-44.491-15.642-47.991-15.273-57.88-22.65-13.43-10.04-21.71-25.98-21.73-43.29 35.89-14.89 61.07-50.28 61.07-91.47 0-3.625-.044-3.15.11-3.15 13.74.005 24.905-11.12 24.915-24.86v-108.12h33.975c8.84 0 16-7.16 16-16v-14c0-8.84-7.16-16-16-16z" fill="#d1e7ff" data-original="#d1e7ff" style="" class=""/><path xmlns="http://www.w3.org/2000/svg" d="m236.738 273.428c8.644 3.098 6.012 16.089-3.152 15.499-52.059-3.354-92.586-46.634-92.586-98.797v-69.95l23.921 5.917c3.571.883 6.079 4.088 6.079 7.766v46.267c0 43.407 27.819 79.707 65.738 93.298z" fill="#e8f3ff" data-original="#e8f3ff" style="" class=""/><path xmlns="http://www.w3.org/2000/svg" d="m273.257 300.239c-21.595 6.53-44.891 6.529-66.51-.002-3.915-1.183-6.248-5.138-5.526-9.163.554-3.089.844-6.257.85-9.473 23.698 9.84 51.208 10.245 75.86 0 .006 3.218.295 6.386.85 9.476.721 4.024-1.611 7.978-5.524 9.162z" fill="#b9dcff" data-original="#b9dcff" style="" class=""/><path xmlns="http://www.w3.org/2000/svg" d="m277.21 218.21c7.6 2.6 9.84 12.45 4.22 18.18-9.55 9.71-26.72 14.41-42.43 5.61-15.71 8.8-32.88 4.1-42.43-5.61-5.62-5.73-3.38-15.58 4.22-18.18 11.04-3.77 24.31-19.1 38.21-6.88 13.9-12.22 27.17 3.11 38.21 6.88z" fill="#d1e7ff" data-original="#d1e7ff" style="" class=""/><path xmlns="http://www.w3.org/2000/svg" d="m257.904 216.16c-.106.066-.212.133-.319.202-1.585 1.025-3.584 1.026-5.168 0-12.957-8.392-25.273 5.312-35.627 8.848-4.469 1.529-7.938 6.121-7.285 11.383.487 3.926-3.665 6.668-7.009 4.554-2.192-1.385-4.185-2.987-5.926-4.757-5.62-5.729-3.38-15.58 4.22-18.18 11.04-3.77 24.31-19.1 38.21-6.88 6.203-5.448 12.278-5.418 18.084-3.376 3.619 1.273 4.081 6.186.82 8.206z" fill="#e8f3ff" data-original="#e8f3ff" style="" class=""/><path xmlns="http://www.w3.org/2000/svg" d="m364.025 114v48.12c-.01 13.74-11.175 24.865-24.915 24.86-.171 0-.11 3.18-.11-66.8 25.754-6.366 24.925-6.18 25.025-6.18z" fill="#d1e7ff" data-original="#d1e7ff" style="" class=""/><path xmlns="http://www.w3.org/2000/svg" d="m141 120.18c0 71.934.111 66.82-.2 66.82-13.73-.005-24.83-11.15-24.83-24.89v-48.11c.1 0-1.016-.259 25.03 6.18z" fill="#e8f3ff" data-original="#e8f3ff" style="" class=""/><path xmlns="http://www.w3.org/2000/svg" d="m394.015 398.68c-.012-23.296-14.89-43.683-36.465-51.14h-.01c-1.24-.43-40.79-14.03-43.09-14.83-5.37-1.852-10.4-4.528-14.79-7.82-34.042 21.482-85.279 21.481-119.32 0-4.375 3.282-9.403 5.962-14.79 7.82-14.08 4.896-43.02 14.741-43.12 14.84-21.663 7.494-36.433 27.943-36.445 51.13v65.32c0 4.42 3.565 8 7.985 8h292.06c4.42 0 7.985-3.58 7.985-8z" fill="#b9dcff" data-original="#b9dcff" style="" class=""/><path xmlns="http://www.w3.org/2000/svg" d="m214.89 338.46c-6.546 3.777-6.377 3.121-52.43 19.08-.02 0-.03.01-.03.01-21.664 7.494-36.431 27.943-36.443 51.13v55.324c-.002 4.417-3.596 7.996-8.013 7.996h-24.004c-4.42 0-7.985-3.58-7.985-8v-65.32c.01-19.949 10.965-37.99 28.015-47.38 3.644-2.019 8.224-3.76 8.46-3.76 46.011-15.944 48.746-15.799 57.88-22.65 9.83 6.2 21.58 10.9 34.55 13.57z" fill="#d1e7ff" data-original="#d1e7ff" style="" class=""/><path xmlns="http://www.w3.org/2000/svg" d="m301 325.86v67.149c-36.909 17.318-85.056 17.334-122 0v-67.15c.45-.32.9-.64 1.34-.971 34.113 21.527 85.328 21.45 119.32 0 .44.332.89.652 1.34.972z" fill="#b9dcff" data-original="#b9dcff" style="" class=""/><path xmlns="http://www.w3.org/2000/svg" d="m301 325.86v29.162c0 3.437-2.184 6.52-5.452 7.585-34.316 11.187-76.734 11.202-111.096 0-3.268-1.065-5.452-4.148-5.452-7.585v-29.162c.45-.32.9-.64 1.34-.971 34.058 21.492 85.277 21.483 119.32 0 .44.331.89.651 1.34.971z" fill="#d1e7ff" data-original="#d1e7ff" style="" class=""/><path xmlns="http://www.w3.org/2000/svg" d="m366 351.3v93.21c0 5.31-2.63 10.27-7.03 13.25l-16.5 11.17c-5.427 3.665-12.509 3.667-17.94 0l-16.5-11.17c-4.4-2.98-7.03-7.94-7.03-13.25v-118.65c8.513 5.962 10.719 5.813 56.54 21.68 2.95 1.021 5.79 2.28 8.46 3.76z" fill="#d1e7ff" data-original="#d1e7ff" style="" class=""/><path xmlns="http://www.w3.org/2000/svg" d="m336.383 462.413c4.033 2.729 2.337 9.267-2.883 9.267-3.13 0-6.26-.92-8.97-2.75l-16.5-11.17c-4.4-2.979-7.03-7.939-7.03-13.25v-118.65c5.952 4.168 10.68 5.921 16.577 7.94 2.047.701 3.423 2.629 3.423 4.793v104.917c0 5.311 2.63 10.271 7.03 13.25z" fill="#e8f3ff" data-original="#e8f3ff" style="" class=""/><path xmlns="http://www.w3.org/2000/svg" d="m179 444.51c0 5.31-2.63 10.27-7.03 13.25l-16.5 11.17c-5.427 3.665-12.509 3.667-17.94 0l-16.5-11.17c-4.4-2.98-7.03-7.94-7.03-13.25v-93.21c3.659-2.028 8.231-3.76 8.46-3.76 45.923-15.925 47.917-15.642 56.54-21.68z" fill="#d1e7ff" data-original="#d1e7ff" style="" class=""/><path xmlns="http://www.w3.org/2000/svg" d="m164.861 347.153c-14.254 4.778-23.861 18.126-23.861 33.159v69.198c0 5.311 2.63 10.271 7.03 13.25l1.029.696c3.575 2.418 2.084 8.224-2.559 8.224-3.13 0-6.26-.92-8.97-2.75l-16.5-11.17c-4.4-2.979-7.03-7.939-7.03-13.25v-93.21c3.644-2.019 8.224-3.76 8.46-3.76 45.895-15.904 47.934-15.654 56.54-21.68v13.305c0 1.927-1.232 3.64-3.056 4.26-3.929 1.336-7.633 2.571-11.083 3.728z" fill="#e8f3ff" data-original="#e8f3ff" style="" class=""/><path xmlns="http://www.w3.org/2000/svg" d="m398 8h-316c-8.84 0-16 7.16-16 16v14c0 8.84 7.16 16 16 16h33.97v60c.1 0-2.455-.671 112.5 27.82 7.571 1.876 15.49 1.88 23.06 0l112.47-27.82c.1 0 .025 1.855.025-60h33.975c8.84 0 16-7.16 16-16v-14c0-8.84-7.16-16-16-16z" fill="#b9dcff" data-original="#b9dcff" style="" class=""/><path xmlns="http://www.w3.org/2000/svg" d="m165.99 62.002v54.14c-.001 5.196-4.885 9.011-9.929 7.764-41.418-10.244-39.99-9.906-40.091-9.906v-60h42.028c4.419 0 7.994 3.583 7.992 8.002z" fill="#d1e7ff" data-original="#d1e7ff" style="" class=""/><path xmlns="http://www.w3.org/2000/svg" d="m399 8.031c6.349.391 5.901 9.969-.459 9.969h-286.541c-8.84 0-16.1 7.16-16 16 .086 7.607-.132 11.654.028 14.694.152 2.878-2.102 5.306-4.984 5.306h-9.044c-8.837 0-16-7.163-16-16v-14c0-8.837 7.163-16 16-16 0 0 316.67.01 317 .031z" fill="#d1e7ff" data-original="#d1e7ff" style="" class=""/><path xmlns="http://www.w3.org/2000/svg" d="m364.025 54v8.005c-.003 4.416-3.564 7.995-7.98 7.995h-232.05c-4.42 0-8.028-3.585-8.025-8.005v-7.995z" fill="#a2d0ff" data-original="#a2d0ff" style="" class=""/><g xmlns="http://www.w3.org/2000/svg" fill="#2e58ff"><path d="m398 0h-316c-13.233 0-24 10.767-24 24v14c0 10.429 6.689 19.321 16 22.624v179.376c0 4.418 3.582 8 8 8s8-3.582 8-8v-178h266.039v45.731l-106.431 26.327c-6.287 1.555-12.932 1.555-19.217 0l-87.47-21.64c-5.041-1.245-9.921 2.568-9.921 7.766v56.88c-5.379-2.827-9.042-8.464-9.038-14.951v-67.69c.002-4.418-3.562-8.003-7.981-8.004-4.416-.001-8.017 3.579-8.019 7.996v67.689c-.01 15.662 10.814 28.542 25.119 31.978 2.54 69.494 70.463 118.848 137.852 98.508 2.672 14.746 10.583 27.945 22.067 37.242v57.961c-13.716 5.729-29.054 9.137-45 9.99v-22.332c0-4.418-3.582-8-8-8s-8 3.582-8 8v22.326c-6.117-.327-12.17-1.021-18.072-2.092-4.345-.793-8.511 2.096-9.3 6.442-.789 4.348 2.096 8.512 6.443 9.3 6.837 1.241 13.848 2.031 20.928 2.373v58.2c0 4.418 3.582 8 8 8s8-3.582 8-8v-58.199c15.727-.762 30.991-3.761 45-8.833v39.542c0 7.975 3.942 15.404 10.547 19.875l16.5 11.169c8.172 5.532 18.732 5.533 26.906 0l16.5-11.169c6.604-4.471 10.547-11.9 10.547-19.875v-54.606c0-4.418-3.582-8-8-8s-8 3.582-8 8v54.606c0 2.658-1.314 5.135-3.516 6.625l-16.5 11.169c-2.724 1.844-6.243 1.844-8.969 0l-16.5-11.169c-2.201-1.49-3.516-3.967-3.516-6.625v-105.304c2.245.899-1.047-.294 45.904 15.883 18.591 6.405 31.1 23.927 31.112 43.592v73.323c.002 4.417 3.602 7.997 8.019 7.996 4.418-.001 7.983-3.585 7.981-8.004v-73.324c-.017-26.468-16.839-50.04-41.846-58.69l-43.114-14.836c-18.557-6.386-31.056-23.845-31.128-43.463.057-5.78-5.878-9.739-11.203-7.413-59.639 24.636-125.723-19.391-125.723-84.145v-59.72l77.549 19.185c8.801 2.179 18.104 2.179 26.901 0l77.55-19.186v59.721c0 20.969-7.304 41.436-20.565 57.629-4.31 5.263-.469 13.068 6.185 13.068 2.315 0 4.612-1 6.194-2.932 15.596-19.043 24.186-43.11 24.186-67.765v-63.679l9.01-2.231v37.906c-.002 4.418 3.57 8.003 7.988 8.004 4.416.001 8.028-3.579 8.029-7.996.026-115.428.293-109.123-.601-111.241-.564-1.334-1.553-2.613-2.898-3.521-2.994-2.013 10.029-1.367-286.528-1.367-4.411 0-8-3.589-8-8v-14c0-4.411 3.589-8 8-8h316c4.411 0 8 3.589 8 8v14c0 2.492-1.132 4.799-3.106 6.33-3.492 2.707-4.128 7.731-1.421 11.224 2.706 3.492 7.73 4.13 11.224 1.421 5.912-4.583 9.303-11.499 9.303-18.975v-14c0-13.233-10.767-24-24-24z" fill="#2e58ff" data-original="#2e58ff" style="" class=""/><path d="m260.133 347.488c4.368-.666 7.368-4.746 6.702-9.114s-4.755-7.371-9.114-6.702c-21.169 3.226-44.352.646-63.739-8.443 1.28-1.416 2.507-2.888 3.662-4.428 2.65-3.535 1.933-8.549-1.602-11.199-3.536-2.652-8.549-1.935-11.2 1.602-5.557 7.412-13.129 12.925-21.897 15.941l-43.116 14.836c-25.006 8.65-41.828 32.224-41.845 58.692v73.323c-.002 4.419 3.563 8.003 7.982 8.004 4.417.001 8.016-3.579 8.018-7.996v-73.322c.013-19.678 12.572-37.107 31.146-43.604.044-.015 44.93-15.495 45.87-15.871v105.303c0 2.658-1.314 5.135-3.515 6.625l-16.5 11.169c-2.725 1.843-6.245 1.844-8.97 0l-16.5-11.169c-2.202-1.49-3.516-3.967-3.516-6.625v-52.542c0-4.418-3.582-8-8-8s-8 3.582-8 8v52.542c0 7.975 3.942 15.404 10.546 19.875l16.5 11.169c8.16 5.523 18.718 5.542 26.907 0l16.5-11.169c6.604-4.471 10.546-11.9 10.546-19.875v-106.891c22.361 10.523 48.806 13.58 73.135 9.869z" fill="#2e58ff" data-original="#2e58ff" style="" class=""/><path d="m198.198 210.643c-13.149 4.497-17.101 21.408-7.33 31.352 10.313 10.495 29.337 17.273 48.133 8.943 17.318 7.675 36.582 2.811 48.132-8.943 9.779-9.952 5.807-26.858-7.331-31.352-2.384-.816-5.561-2.744-8.56-4.513-3.807-2.246-8.711-.976-10.954 2.831-2.243 3.806-.976 8.71 2.831 10.954 3.663 2.159 7.516 4.502 11.505 5.866 2.032.696 2.595 3.474 1.097 4.998-6.905 7.025-20.118 11.35-32.812 4.24-2.428-1.359-5.389-1.359-7.817 0-12.695 7.107-25.908 2.785-32.813-4.24-1.495-1.521-.94-4.301 1.097-4.998 3.735-1.277 7.333-3.402 10.812-5.458 10.458-6.176 14.515-7.396 19.528-2.986 3.318 2.916 8.374 2.594 11.291-.725 2.918-3.318 2.594-8.373-.725-11.291-18.547-16.31-37.063 2.234-46.084 5.322z" fill="#2e58ff" data-original="#2e58ff" style="" class=""/><path d="m223 179v-14c0-4.418-3.582-8-8-8s-8 3.582-8 8v14c0 4.418 3.582 8 8 8s8-3.582 8-8z" fill="#2e58ff" data-original="#2e58ff" style="" class=""/><path d="m265 187c4.418 0 8-3.582 8-8v-14c0-4.418-3.582-8-8-8s-8 3.582-8 8v14c0 4.418 3.582 8 8 8z" fill="#2e58ff" data-original="#2e58ff" style="" class=""/></g></g></svg>
