<svg width="250" height="124" viewBox="0 0 250 124" fill="none" xmlns="http://www.w3.org/2000/svg">
<g clip-path="url(#clip0_2_107)">
<g filter="url(#filter0_d_2_107)">
<path d="M20.1546 74.8468L14.7279 56.1863C13.546 52.1222 13.815 44.6543 21.1969 40.9068C27.465 37.7353 34.029 35.8264 34.029 35.8264C34.029 35.8264 39.2151 37.5727 35.6518 38.6089C32.0885 39.6452 33.5185 44.2127 36.988 43.2037C40.4576 42.1947 38.2697 47.611 38.2697 47.611L28.9065 67.5216L20.1546 74.8468Z" fill="#20FF5F"/>
</g>
<g filter="url(#filter1_d_2_107)">
<path d="M23.5826 42.2206L83.5962 24.7676C84.2972 24.5634 85.0105 24.4042 85.7317 24.291C85.0148 22.705 83.9842 21.2806 82.7019 20.1037C81.4197 18.9267 79.9124 18.0217 78.2709 17.443C76.6294 16.8644 74.8877 16.6242 73.1509 16.7368C71.414 16.8495 69.718 17.3127 68.165 18.0986L21.2599 40.8783L21.2036 40.8947C18.2778 42.3881 16.0325 44.9421 14.9264 48.0351C17.1362 45.2432 20.1623 43.2105 23.5826 42.2206ZM84.9052 29.2686L24.8915 46.7216C21.7103 47.6505 19.0274 49.8035 17.4316 52.7081C15.8358 55.6127 15.4574 59.0317 16.3794 62.2149L26.8512 98.2232C27.7801 101.404 29.933 104.087 32.8376 105.683C35.7422 107.279 39.1612 107.657 42.3445 106.735L102.358 89.2823C105.539 88.3534 108.222 86.2005 109.818 83.2959C111.414 80.3913 111.792 76.9723 110.87 73.789L100.399 37.7808C99.4696 34.5995 97.3167 31.9167 94.4121 30.3209C91.5075 28.7251 88.0885 28.3467 84.9052 29.2686ZM86.4687 67.8675C85.2818 68.2127 84.0191 68.1982 82.8404 67.8258C81.6617 67.4533 80.6199 66.7398 79.8468 65.7752C79.0736 64.8107 78.6039 63.6386 78.4969 62.4071C78.3899 61.1756 78.6505 59.9401 79.2457 58.8567C79.8409 57.7733 80.744 56.8907 81.8409 56.3206C82.9377 55.7505 84.1789 55.5184 85.4076 55.6537C86.6363 55.789 87.7973 56.2857 88.7437 57.0808C89.6902 57.876 90.3796 58.9339 90.7248 60.1209C91.1877 61.7125 90.9993 63.4229 90.2011 64.8757C89.403 66.3284 88.0604 67.4047 86.4687 67.8675Z" fill="#20FF5F"/>
</g>
</g>
<path d="M144.382 40H142.969V30.4932H137.71V40H136.304V29.3359H144.382V40ZM150.022 40.1465C148.948 40.1465 148.074 39.7949 147.4 39.0918C146.726 38.3838 146.389 37.439 146.389 36.2573V36.0083C146.389 35.2222 146.538 34.5215 146.836 33.9063C147.139 33.2861 147.559 32.8027 148.096 32.4561C148.638 32.1045 149.224 31.9287 149.854 31.9287C150.884 31.9287 151.685 32.2681 152.256 32.9468C152.827 33.6255 153.113 34.5972 153.113 35.8618V36.4258H147.744C147.764 37.207 147.991 37.8394 148.425 38.3228C148.865 38.8013 149.421 39.0405 150.095 39.0405C150.574 39.0405 150.979 38.9429 151.311 38.7476C151.643 38.5523 151.934 38.2935 152.183 37.9712L153.01 38.6157C152.346 39.6362 151.35 40.1465 150.022 40.1465ZM149.854 33.042C149.307 33.042 148.848 33.2422 148.477 33.6426C148.105 34.0381 147.876 34.5947 147.788 35.3125H151.758V35.21C151.719 34.5215 151.533 33.9893 151.201 33.6133C150.869 33.2324 150.42 33.042 149.854 33.042ZM161.382 36.1255C161.382 37.3316 161.106 38.3032 160.554 39.0405C160.002 39.7778 159.255 40.1465 158.313 40.1465C157.351 40.1465 156.594 39.8413 156.042 39.231V43.0469H154.688V32.0752H155.925L155.991 32.9541C156.543 32.2705 157.31 31.9287 158.291 31.9287C159.243 31.9287 159.995 32.2876 160.547 33.0054C161.104 33.7232 161.382 34.7217 161.382 36.001V36.1255ZM160.027 35.9717C160.027 35.0781 159.836 34.3726 159.456 33.855C159.075 33.3374 158.552 33.0786 157.888 33.0786C157.068 33.0786 156.453 33.4424 156.042 34.1699V37.9566C156.448 38.6792 157.068 39.0405 157.903 39.0405C158.552 39.0405 159.067 38.7842 159.448 38.2715C159.834 37.7539 160.027 36.9873 160.027 35.9717ZM166.399 40.1465C165.325 40.1465 164.451 39.7949 163.777 39.0918C163.103 38.3838 162.766 37.439 162.766 36.2573V36.0083C162.766 35.2222 162.915 34.5215 163.213 33.9063C163.516 33.2861 163.936 32.8027 164.473 32.4561C165.015 32.1045 165.601 31.9287 166.23 31.9287C167.261 31.9287 168.062 32.2681 168.633 32.9468C169.204 33.6255 169.49 34.5972 169.49 35.8618V36.4258H164.121C164.141 37.207 164.368 37.8394 164.802 38.3228C165.242 38.8013 165.798 39.0405 166.472 39.0405C166.951 39.0405 167.356 38.9429 167.688 38.7476C168.02 38.5523 168.311 38.2935 168.56 37.9712L169.387 38.6157C168.723 39.6362 167.727 40.1465 166.399 40.1465ZM166.23 33.042C165.684 33.042 165.225 33.2422 164.854 33.6426C164.482 34.0381 164.253 34.5947 164.165 35.3125H168.135V35.21C168.096 34.5215 167.91 33.9893 167.578 33.6133C167.246 33.2324 166.797 33.042 166.23 33.042ZM176.865 33.1738H174.207V40H172.852V33.1738H170.244V32.0752H176.865V33.1738ZM182.959 40C182.881 39.8438 182.817 39.5654 182.769 39.1651C182.139 39.8193 181.387 40.1465 180.513 40.1465C179.731 40.1465 179.089 39.9268 178.586 39.4873C178.088 39.043 177.839 38.4815 177.839 37.8027C177.839 36.9776 178.152 36.3379 178.777 35.8838C179.407 35.4248 180.291 35.1953 181.428 35.1953H182.747V34.5728C182.747 34.0991 182.605 33.7232 182.322 33.4448C182.039 33.1616 181.621 33.02 181.069 33.02C180.586 33.02 180.181 33.1421 179.854 33.3862C179.526 33.6304 179.363 33.9258 179.363 34.2725H178C178 33.877 178.14 33.4961 178.418 33.1299C178.701 32.7588 179.082 32.4658 179.561 32.251C180.044 32.0361 180.574 31.9287 181.15 31.9287C182.063 31.9287 182.778 32.1582 183.296 32.6172C183.813 33.0713 184.082 33.6987 184.102 34.4995V38.147C184.102 38.8745 184.194 39.4531 184.38 39.8828V40H182.959ZM180.71 38.9673C181.135 38.9673 181.538 38.8574 181.919 38.6377C182.3 38.418 182.576 38.1323 182.747 37.7808V36.1548H181.685C180.024 36.1548 179.194 36.6406 179.194 37.6123C179.194 38.0371 179.336 38.3692 179.619 38.6084C179.902 38.8477 180.266 38.9673 180.71 38.9673ZM189.404 39.0405C189.888 39.0405 190.31 38.8941 190.671 38.6011C191.033 38.3081 191.233 37.9419 191.272 37.5025H192.554C192.529 37.9566 192.373 38.3887 192.085 38.7988C191.797 39.209 191.411 39.5361 190.928 39.7803C190.449 40.0244 189.941 40.1465 189.404 40.1465C188.325 40.1465 187.466 39.7876 186.826 39.0698C186.191 38.3472 185.874 37.3609 185.874 36.1109V35.8838C185.874 35.1123 186.016 34.4263 186.299 33.8257C186.582 33.2251 186.987 32.7588 187.515 32.4268C188.047 32.0947 188.674 31.9287 189.397 31.9287C190.286 31.9287 191.023 32.1948 191.609 32.7271C192.2 33.2593 192.515 33.9502 192.554 34.7998H191.272C191.233 34.2871 191.038 33.8672 190.686 33.5401C190.339 33.208 189.91 33.042 189.397 33.042C188.708 33.042 188.174 33.291 187.793 33.7891C187.417 34.2822 187.229 34.9976 187.229 35.9351V36.1914C187.229 37.1045 187.417 37.8076 187.793 38.3008C188.169 38.794 188.706 39.0405 189.404 39.0405ZM196.545 36.6235H195.557V40H194.194V32.0752H195.557V35.4297H196.443L199.109 32.0752H200.75L197.615 35.8838L201.013 40H199.292L196.545 36.6235ZM207.305 32.0752H208.66V40H207.305V34.2212L203.65 40H202.295V32.0752H203.65V37.8613L207.305 32.0752ZM210.959 40V32.0752H214.05C215.105 32.0752 215.913 32.2608 216.475 32.6318C217.041 32.9981 217.324 33.5376 217.324 34.2505C217.324 34.6167 217.214 34.9487 216.995 35.2466C216.775 35.5396 216.45 35.7642 216.021 35.9204C216.499 36.0327 216.882 36.2525 217.17 36.5796C217.463 36.9067 217.61 37.2974 217.61 37.7515C217.61 38.479 217.341 39.0357 216.804 39.4214C216.272 39.8071 215.518 40 214.541 40H210.959ZM212.314 36.521V38.9087H214.556C215.122 38.9087 215.544 38.8037 215.823 38.5938C216.106 38.3838 216.248 38.0884 216.248 37.7075C216.248 36.9165 215.667 36.521 214.504 36.521H212.314ZM212.314 35.437H214.065C215.334 35.437 215.969 35.0659 215.969 34.3237C215.969 33.5816 215.369 33.1983 214.167 33.1738H212.314V35.437ZM224.297 40C224.219 39.8438 224.155 39.5654 224.106 39.1651C223.477 39.8193 222.725 40.1465 221.851 40.1465C221.069 40.1465 220.427 39.9268 219.924 39.4873C219.426 39.043 219.177 38.4815 219.177 37.8027C219.177 36.9776 219.49 36.3379 220.115 35.8838C220.745 35.4248 221.628 35.1953 222.766 35.1953H224.084V34.5728C224.084 34.0991 223.943 33.7232 223.66 33.4448C223.376 33.1616 222.959 33.02 222.407 33.02C221.924 33.02 221.519 33.1421 221.191 33.3862C220.864 33.6304 220.701 33.9258 220.701 34.2725H219.338C219.338 33.877 219.478 33.4961 219.756 33.1299C220.039 32.7588 220.42 32.4658 220.898 32.251C221.382 32.0361 221.912 31.9287 222.488 31.9287C223.401 31.9287 224.116 32.1582 224.634 32.6172C225.151 33.0713 225.42 33.6987 225.439 34.4995V38.147C225.439 38.8745 225.532 39.4531 225.718 39.8828V40H224.297ZM222.048 38.9673C222.473 38.9673 222.876 38.8574 223.257 38.6377C223.638 38.418 223.914 38.1323 224.084 37.7808V36.1548H223.022C221.362 36.1548 220.532 36.6406 220.532 37.6123C220.532 38.0371 220.674 38.3692 220.957 38.6084C221.24 38.8477 221.604 38.9673 222.048 38.9673ZM232.69 32.0752H234.045V40H232.69V34.2212L229.036 40H227.681V32.0752H229.036V37.8613L232.69 32.0752ZM233.057 29.1895C233.057 29.7803 232.854 30.2564 232.449 30.6177C232.048 30.9741 231.521 31.1524 230.867 31.1524C230.212 31.1524 229.683 30.9717 229.277 30.6104C228.872 30.249 228.669 29.7754 228.669 29.1895H229.775C229.775 29.5313 229.868 29.7998 230.054 29.9951C230.239 30.1856 230.51 30.2808 230.867 30.2808C231.208 30.2808 231.475 30.1856 231.665 29.9951C231.86 29.8047 231.958 29.5361 231.958 29.1895H233.057ZM242.109 33.1738H239.451V40H238.096V33.1738H235.488V32.0752H242.109V33.1738ZM246.13 40.1465C245.056 40.1465 244.182 39.7949 243.508 39.0918C242.834 38.3838 242.498 37.439 242.498 36.2573V36.0083C242.498 35.2222 242.646 34.5215 242.944 33.9063C243.247 33.2861 243.667 32.8027 244.204 32.4561C244.746 32.1045 245.332 31.9287 245.962 31.9287C246.992 31.9287 247.793 32.2681 248.364 32.9468C248.936 33.6255 249.221 34.5972 249.221 35.8618V36.4258H243.853C243.872 37.207 244.099 37.8394 244.534 38.3228C244.973 38.8013 245.53 39.0405 246.204 39.0405C246.682 39.0405 247.087 38.9429 247.419 38.7476C247.751 38.5523 248.042 38.2935 248.291 37.9712L249.119 38.6157C248.455 39.6362 247.458 40.1465 246.13 40.1465ZM245.962 33.042C245.415 33.042 244.956 33.2422 244.585 33.6426C244.214 34.0381 243.984 34.5947 243.896 35.3125H247.866V35.21C247.827 34.5215 247.642 33.9893 247.31 33.6133C246.978 33.2324 246.528 33.042 245.962 33.042ZM140.588 56.2056L143.284 50.0752H144.976V58H143.621V52.2359L141.057 58H140.12L137.505 52.1113V58H136.15V50.0752H137.908L140.588 56.2056ZM146.799 53.9644C146.799 53.188 146.951 52.4898 147.253 51.8696C147.561 51.2495 147.986 50.771 148.528 50.4341C149.075 50.0972 149.697 49.9287 150.396 49.9287C151.475 49.9287 152.346 50.3023 153.01 51.0493C153.679 51.7964 154.014 52.7901 154.014 54.0303V54.1255C154.014 54.897 153.865 55.5903 153.567 56.2056C153.274 56.8159 152.852 57.292 152.3 57.6338C151.753 57.9756 151.123 58.1465 150.41 58.1465C149.336 58.1465 148.464 57.773 147.795 57.0259C147.131 56.2788 146.799 55.2901 146.799 54.0596V53.9644ZM148.162 54.1255C148.162 55.0044 148.364 55.71 148.77 56.2422C149.18 56.7744 149.727 57.0405 150.41 57.0405C151.099 57.0405 151.646 56.772 152.051 56.2349C152.456 55.6929 152.659 54.936 152.659 53.9644C152.659 53.0952 152.451 52.3921 152.036 51.855C151.626 51.313 151.079 51.042 150.396 51.042C149.727 51.042 149.187 51.3081 148.777 51.8403C148.367 52.3726 148.162 53.1343 148.162 54.1255ZM162.188 58H160.833V54.6162H157.192V58H155.83V50.0752H157.192V53.5103H160.833V50.0752H162.188V58ZM167.659 58.1465C166.584 58.1465 165.71 57.7949 165.037 57.0918C164.363 56.3838 164.026 55.439 164.026 54.2573V54.0083C164.026 53.2222 164.175 52.5215 164.473 51.9063C164.775 51.2861 165.195 50.8027 165.732 50.4561C166.274 50.1045 166.86 49.9287 167.49 49.9287C168.521 49.9287 169.321 50.2681 169.893 50.9468C170.464 51.6255 170.75 52.5972 170.75 53.8618V54.4258H165.381C165.4 55.207 165.627 55.8394 166.062 56.3228C166.501 56.8013 167.058 57.0405 167.732 57.0405C168.21 57.0405 168.616 56.9429 168.948 56.7476C169.28 56.5523 169.57 56.2935 169.819 55.9712L170.647 56.6157C169.983 57.6362 168.987 58.1465 167.659 58.1465ZM167.49 51.042C166.943 51.042 166.484 51.2422 166.113 51.6426C165.742 52.0381 165.513 52.5947 165.425 53.3125H169.395V53.21C169.355 52.5215 169.17 51.9893 168.838 51.6133C168.506 51.2324 168.057 51.042 167.49 51.042ZM178.125 51.1738H175.466V58H174.111V51.1738H171.504V50.0752H178.125V51.1738ZM180.923 52.8071H182.981C183.879 52.8169 184.59 53.0513 185.112 53.5103C185.635 53.9692 185.896 54.5918 185.896 55.3779C185.896 56.169 185.627 56.8037 185.09 57.2822C184.553 57.7608 183.831 58 182.922 58H179.568V50.0752H180.923V52.8071ZM188.723 58H187.361V50.0752H188.723V58ZM180.923 53.9131V56.8941H182.937C183.445 56.8941 183.838 56.7647 184.116 56.5059C184.395 56.2422 184.534 55.8833 184.534 55.4292C184.534 54.9898 184.397 54.6309 184.124 54.3526C183.855 54.0693 183.477 53.9229 182.988 53.9131H180.923ZM197.988 57.0405C198.472 57.0405 198.894 56.8941 199.255 56.6011C199.617 56.3081 199.817 55.9419 199.856 55.5025H201.138C201.113 55.9566 200.957 56.3887 200.669 56.7988C200.381 57.209 199.995 57.5361 199.512 57.7803C199.033 58.0244 198.525 58.1465 197.988 58.1465C196.909 58.1465 196.05 57.7876 195.41 57.0698C194.775 56.3472 194.458 55.3609 194.458 54.1109V53.8838C194.458 53.1123 194.6 52.4263 194.883 51.8257C195.166 51.2251 195.571 50.7588 196.099 50.4268C196.631 50.0947 197.258 49.9287 197.981 49.9287C198.87 49.9287 199.607 50.1948 200.193 50.7271C200.784 51.2593 201.099 51.9502 201.138 52.7998H199.856C199.817 52.2871 199.622 51.8672 199.27 51.5401C198.923 51.208 198.494 51.042 197.981 51.042C197.292 51.042 196.758 51.291 196.377 51.7891C196.001 52.2822 195.813 52.9976 195.813 53.9351V54.1914C195.813 55.1045 196.001 55.8076 196.377 56.3008C196.753 56.794 197.29 57.0405 197.988 57.0405ZM204.141 53.437H206.045C206.147 52.3823 206.521 51.5352 207.166 50.8955C207.815 50.251 208.633 49.9287 209.619 49.9287C210.654 49.9287 211.501 50.2778 212.161 50.9761C212.82 51.6743 213.176 52.5825 213.23 53.7007L213.237 54.1255C213.237 54.897 213.086 55.5928 212.783 56.2129C212.48 56.833 212.056 57.3115 211.509 57.6484C210.962 57.9805 210.337 58.1465 209.634 58.1465C208.613 58.1465 207.778 57.8145 207.129 57.1504C206.479 56.4815 206.116 55.6148 206.038 54.5503H204.141V58H202.786V50.0752H204.141V53.437ZM207.378 54.1255C207.378 55.0044 207.581 55.71 207.986 56.2422C208.396 56.7744 208.945 57.0405 209.634 57.0405C210.322 57.0405 210.867 56.7695 211.267 56.2276C211.672 55.6856 211.875 54.9312 211.875 53.9644C211.875 53.1001 211.67 52.397 211.26 51.855C210.85 51.313 210.303 51.042 209.619 51.042C208.945 51.042 208.403 51.3081 207.993 51.8403C207.583 52.3726 207.378 53.1343 207.378 54.1255ZM214.709 56.8941L215.178 56.3154C215.706 55.6318 216.006 54.6065 216.079 53.2393L216.204 50.0752H221.309V56.8941H222.327V60.3291H220.972V58H215.442V60.3291H214.087L214.094 56.8941H214.709ZM216.313 56.8941H219.954V51.3276H217.515L217.434 53.2173C217.351 54.7944 216.978 56.02 216.313 56.8941ZM228.721 58C228.643 57.8438 228.579 57.5654 228.53 57.1651C227.9 57.8193 227.148 58.1465 226.274 58.1465C225.493 58.1465 224.851 57.9268 224.348 57.4873C223.85 57.043 223.601 56.4815 223.601 55.8027C223.601 54.9776 223.914 54.3379 224.539 53.8838C225.168 53.4248 226.052 53.1953 227.19 53.1953H228.508V52.5728C228.508 52.0991 228.367 51.7232 228.083 51.4448C227.8 51.1616 227.383 51.02 226.831 51.02C226.348 51.02 225.942 51.1421 225.615 51.3862C225.288 51.6304 225.125 51.9258 225.125 52.2725H223.762C223.762 51.877 223.901 51.4961 224.18 51.1299C224.463 50.7588 224.844 50.4658 225.322 50.251C225.806 50.0361 226.335 49.9287 226.912 49.9287C227.825 49.9287 228.54 50.1582 229.058 50.6172C229.575 51.0713 229.844 51.6987 229.863 52.4995V56.147C229.863 56.8745 229.956 57.4531 230.142 57.8828V58H228.721ZM226.472 56.9673C226.897 56.9673 227.3 56.8574 227.681 56.6377C228.062 56.418 228.337 56.1323 228.508 55.7808V54.1548H227.446C225.786 54.1548 224.956 54.6406 224.956 55.6123C224.956 56.0371 225.098 56.3692 225.381 56.6084C225.664 56.8477 226.028 56.9673 226.472 56.9673Z" fill="#CCCCCC"/>
<path d="M141.5 23.5C135.5 16.5 119.4 6.70001 103 23.5" stroke="#CCCCCC"/>
<line x1="102.5" y1="24" x2="102.5" y2="15" stroke="#CCCCCC"/>
<line x1="103" y1="23.5" x2="112" y2="23.5" stroke="#CCCCCC"/>
<defs>
<filter id="filter0_d_2_107" x="10.1992" y="31.8264" width="32.7511" height="47.0204" filterUnits="userSpaceOnUse" color-interpolation-filters="sRGB">
<feFlood flood-opacity="0" result="BackgroundImageFix"/>
<feColorMatrix in="SourceAlpha" type="matrix" values="0 0 0 0 0 0 0 0 0 0 0 0 0 0 0 0 0 0 127 0" result="hardAlpha"/>
<feOffset/>
<feGaussianBlur stdDeviation="2"/>
<feComposite in2="hardAlpha" operator="out"/>
<feColorMatrix type="matrix" values="0 0 0 0 0 0 0 0 0 0 0 0 0 0 0 0 0 0 0.25 0"/>
<feBlend mode="normal" in2="BackgroundImageFix" result="effect1_dropShadow_2_107"/>
<feBlend mode="normal" in="SourceGraphic" in2="effect1_dropShadow_2_107" result="shape"/>
</filter>
<filter id="filter1_d_2_107" x="10.9264" y="12.7098" width="104.438" height="98.5196" filterUnits="userSpaceOnUse" color-interpolation-filters="sRGB">
<feFlood flood-opacity="0" result="BackgroundImageFix"/>
<feColorMatrix in="SourceAlpha" type="matrix" values="0 0 0 0 0 0 0 0 0 0 0 0 0 0 0 0 0 0 127 0" result="hardAlpha"/>
<feOffset/>
<feGaussianBlur stdDeviation="2"/>
<feComposite in2="hardAlpha" operator="out"/>
<feColorMatrix type="matrix" values="0 0 0 0 0 0 0 0 0 0 0 0 0 0 0 0 0 0 0.25 0"/>
<feBlend mode="normal" in2="BackgroundImageFix" result="effect1_dropShadow_2_107"/>
<feBlend mode="normal" in="SourceGraphic" in2="effect1_dropShadow_2_107" result="shape"/>
</filter>
<clipPath id="clip0_2_107">
<rect width="100" height="100" fill="white" transform="translate(0 27.9248) rotate(-16.2153)"/>
</clipPath>
</defs>
</svg>
