<?xml version="1.0" encoding="UTF-8"?>
<!DOCTYPE svg PUBLIC "-//W3C//DTD SVG 1.1//EN" "http://www.w3.org/Graphics/SVG/1.1/DTD/svg11.dtd">
<!-- Creator: CorelDRAW 2018 (64-Bit) -->
<svg xmlns="http://www.w3.org/2000/svg" xml:space="preserve" width="1200mm" height="1800mm" version="1.1" style="shape-rendering:geometricPrecision; text-rendering:geometricPrecision; image-rendering:optimizeQuality; fill-rule:evenodd; clip-rule:evenodd"
viewBox="0 0 120000 180000"
 xmlns:xlink="http://www.w3.org/1999/xlink">
 <defs>
  <style type="text/css">
   <![CDATA[
    .str4 {stroke:#FEFEFE;stroke-width:200;stroke-miterlimit:22.9256}
    .str0 {stroke:#FEFEFE;stroke-width:200;stroke-miterlimit:22.9256}
    .str2 {stroke:#FEFEFE;stroke-width:200;stroke-miterlimit:22.9256}
    .str1 {stroke:#FEFEFE;stroke-width:200;stroke-miterlimit:22.9256}
    .str3 {stroke:white;stroke-width:200;stroke-miterlimit:22.9256}
    .fil1 {fill:none}
    .fil2 {fill:#00A0E3}
    .fil0 {fill:#E5097F}
    .fil3 {fill:#2B2A29;fill-rule:nonzero}
    .fil9 {fill:#2B2A29;fill-rule:nonzero}
    .fil6 {fill:#00A0E3;fill-rule:nonzero}
    .fil7 {fill:#3AAC53;fill-rule:nonzero}
    .fil4 {fill:#E31E24;fill-rule:nonzero}
    .fil8 {fill:#E5097F;fill-rule:nonzero}
    .fil5 {fill:#FFED00;fill-rule:nonzero}
   ]]>
  </style>
  <clipPath id="id0">
   <rect x="28472.22" y="58472.22" width="63055.56" height="63055.56"/>
  </clipPath>
 </defs>
<symbol id="Символ1" viewBox="28472.22 58472.22 63055.56 63055.56">
 <g style="clip-path:url(#id0)">
  <image id="logomindclick.png" x="28472.22" y="58472.19" width="63055.58" height="63055.59" xlink:href="ЛогоMindclick_Images\ЛогоMindclick_ImgID1.png"/>
 </g>
</symbol>
 <g id="Слой_x0020_1">
  <metadata id="CorelCorpID_0Corel-Layer"/>
  <path class="fil0 str0" d="M77544.21 27402.81c-7.12,-2842.56 -64.05,-3044.58 -199.53,-3242.97 -135.5,-198.4 -349.57,-393.19 -555.93,-530.26 -206.36,-137.09 -405.02,-216.44 -608.82,-277.76 -203.83,-61.33 -412.78,-104.62 -626.25,-111.84 -213.49,-7.21 -431.47,21.65 -646.1,82.98 -214.65,61.32 -425.93,155.1 -596.71,277.76 -170.79,122.64 -301.06,274.15 -380.42,436.48 -79.38,162.32 -107.84,335.48 -193.22,387.18 -85.4,51.7 -227.72,-18.03 -370.03,-82.97 -142.31,-64.93 -284.64,-125.06 -427.72,-159.92 -143.09,-34.88 -286.93,-44.49 -447.62,-33.66 -160.7,10.82 -338.22,42.08 -490.12,99.2 -151.89,57.11 -278.15,140.08 -391.77,228.46 -113.63,88.38 -214.65,182.16 -282.57,303.02 -67.93,120.84 -102.8,268.74 -126.72,407.62 -23.91,138.89 -36.9,268.74 -21.27,398.61 15.62,129.86 59.87,259.73 54.93,375.17 -4.93,115.42 -59.06,216.42 -156.44,274.14 -97.4,57.72 -238.1,72.13 -412.17,115.44 -174.06,43.29 -381.52,115.44 -557.39,227.28 -175.87,111.83 -320.15,263.34 -424.77,445.52 -104.61,182.16 -169.53,394.98 -180.34,601.5 -10.81,206.5 32.5,406.69 79.41,580.74 46.89,174.04 97.4,321.94 162.33,432.87 64.92,110.92 144.3,184.87 202.49,283.19 58.19,98.29 95.2,220.93 71.01,318.34 -24.18,97.4 -109.56,169.53 -230.11,198.44 -120.54,28.89 -276.21,14.54 -469.48,45.25 -193.27,30.71 -424.12,106.46 -604.46,263.39 -180.36,156.92 -310.23,395 -322.33,644.81 -12.12,249.81 93.51,511.34 218.94,688.07 125.43,176.72 270.68,268.62 340.86,377.7 70.17,109.07 65.28,235.31 27.27,334.51 -38.02,99.19 -109.17,171.33 -237.25,257.91 -128.09,86.58 -313.11,187.57 -490.7,281.42 -177.58,93.83 -347.76,180.5 -503.19,314.02 -155.43,133.51 -296.12,313.87 -373.68,483.41 -77.57,169.53 -92.01,328.26 -95.61,488.79 -3.61,160.52 3.62,322.85 59.55,474.37 55.91,151.5 160.53,292.2 283.99,423.82 123.46,131.62 265.75,254.16 492.17,371.39 226.4,117.2 536.9,229.09 684.92,342.77 148.02,113.66 133.56,229.11 94.76,326.54 -38.83,97.41 -102,176.78 -182.95,242.56 -80.95,65.79 -179.71,118 -268.74,201.75 -89.02,83.73 -168.34,199.01 -219.76,349.05 -51.45,150.03 -75.01,334.82 -45.77,525.51 29.24,190.66 111.28,387.24 226.53,528.55 115.23,141.3 263.69,227.36 419.09,283 155.38,55.65 317.7,80.91 451.26,80.87 133.56,-0.05 238.37,-25.37 333.97,-16.36 95.57,9.02 181.95,52.39 234.17,128.74 52.22,76.34 70.26,185.67 29.87,323.5 -40.4,137.84 -139.24,304.17 -192.27,439.88 -53.04,135.69 -60.25,240.78 -37.14,415.08 23.09,174.29 76.5,417.82 205.38,614.35 128.89,196.51 333.24,346.01 534.08,427.03 200.82,81.02 398.13,93.55 560.66,65.55 162.52,-28.01 290.28,-96.56 446.66,-152.46 156.38,-55.92 341.4,-99.21 462.38,-70.35 120.96,28.86 177.88,129.85 195.06,265.17 17.19,135.32 -5.36,304.96 15.83,476.36 21.19,171.38 86.12,344.54 197.95,499.65 111.83,155.1 270.55,292.19 455.72,358.88 185.17,66.68 396.78,63 623.57,25.08 226.77,-37.93 468.71,-110.06 603.92,-45.13 135.19,64.92 163.66,266.93 249.05,454.5 85.38,187.58 227.71,360.74 401.53,506.87 173.83,146.14 379.18,265.28 615.33,321.23 236.13,55.95 503.08,48.74 777.54,-25.25 274.47,-74 556.46,-214.76 782.86,-357.3 226.38,-142.53 397.17,-286.82 518.15,-423.89 120.96,-137.08 192.11,-266.95 213.46,-396.81 21.35,-129.87 -7.12,-259.72 0,-3066.2 7.11,-2806.49 49.81,-8289.59 42.7,-11132.14z"/>
  <path class="fil1 str1" d="M71318.09 29118.25c-64.1,-66.69 -128.21,-133.35 -161.35,-251.66 -33.14,-118.32 -35.3,-288.25 35.6,-474.33 70.89,-186.09 214.85,-388.33 355.05,-512.94 140.19,-124.63 276.62,-171.65 403.52,-202.02 126.87,-30.38 244.23,-44.12 351.54,-37.22 107.3,6.9 204.54,34.44 287.74,82.08 83.18,47.65 152.31,115.38 221.45,183.14"/>
  <path class="fil1 str1" d="M72302.45 27640.08c-60.44,-109.66 -120.87,-219.31 -114.97,-381.44 5.9,-162.14 78.13,-376.77 218.86,-527.36 140.73,-150.6 349.97,-237.17 537.56,-255.21 187.57,-18.05 353.51,32.46 486.98,104.61 133.47,72.13 234.47,165.92 335.47,259.72"/>
  <path class="fil1 str1" d="M75791.55 30085.57c-92.46,2.53 -184.91,5.08 -294.72,-50.03 -109.82,-55.11 -236.97,-167.87 -326.88,-345.55 -89.94,-177.66 -142.64,-420.26 -140.46,-607.81 2.17,-187.57 59.21,-320.12 122.15,-434.42 62.91,-114.29 131.73,-210.34 209.05,-285.07 77.31,-74.72 163.12,-128.11 254.36,-157.59 91.22,-29.45 187.85,-35 284.49,-40.54"/>
  <path class="fil1 str1" d="M69966.18 33430.2c-66.01,1.8 -132.03,3.63 -210.44,-35.72 -78.41,-39.35 -169.19,-119.87 -233.39,-246.73 -64.22,-126.86 -101.85,-300.07 -100.29,-433.99 1.55,-133.93 42.27,-228.57 87.21,-310.18 44.93,-81.61 94.06,-150.19 149.27,-203.55 55.2,-53.35 116.47,-91.47 181.61,-112.52 65.14,-21.03 134.13,-24.99 203.14,-28.95"/>
  <path class="fil1 str1" d="M73553.4 34891.61c-91.31,-16 -182.61,-31.98 -279.11,-107.75 -96.51,-75.77 -198.19,-211.3 -249.98,-402.8 -51.82,-191.49 -53.74,-438.95 -13.08,-621.7 40.65,-182.75 123.88,-300.81 209.16,-399.87 85.25,-99.05 172.54,-179.1 263.82,-236.64 91.25,-57.53 186.47,-92.53 282.1,-103.09 95.63,-10.54 191.64,3.35 287.67,17.25"/>
  <path class="fil1 str1" d="M73720.4 32997.61c-78.46,-48.88 -156.92,-97.74 -217.64,-204.07 -60.73,-106.32 -103.69,-270.08 -79.38,-467.22 24.29,-197.15 115.87,-427.68 222.44,-582.25 106.57,-154.58 228.13,-233.21 344.41,-293.43 116.26,-60.23 227.24,-102.05 333.42,-121.48 106.15,-19.43 207.47,-16.46 299.95,9.37 92.47,25.84 176.08,74.51 259.71,123.2"/>
  <path class="fil1 str1" d="M75465.73 39447c-92.46,2.53 -184.91,5.08 -294.73,-50.03 -109.81,-55.11 -236.96,-167.87 -326.88,-345.55 -89.93,-177.66 -142.63,-420.26 -140.45,-607.81 2.17,-187.57 59.2,-320.12 122.14,-434.42 62.92,-114.29 131.73,-210.34 209.06,-285.07 77.31,-74.72 163.12,-128.11 254.35,-157.59 91.23,-29.46 187.85,-35 284.5,-40.54"/>
  <path class="fil1 str1" d="M72323.39 38832.05c-91.81,-12.79 -183.62,-25.55 -282.72,-97.89 -99.11,-72.33 -205.48,-204.22 -263.97,-393.78 -58.5,-189.55 -69.1,-436.79 -34.88,-620.85 34.22,-184.07 113.25,-304.98 195,-406.97 81.72,-101.98 166.15,-185.05 255.35,-245.75 89.18,-60.7 183.12,-99.02 278.32,-112.92 95.19,-13.9 191.63,-3.38 288.09,7.14"/>
  <path class="fil1 str1" d="M71791.47 37549.93c-91.91,9.91 -183.8,19.84 -297.17,-26.41 -113.37,-46.25 -248.19,-148.66 -350.63,-318.85 -102.46,-170.17 -172.54,-408.12 -183.97,-595.52 -11.44,-187.4 35.76,-324.27 90.15,-443.39 54.38,-119.11 115.95,-220.47 187.55,-301.24 71.58,-80.76 153.17,-140.91 241.9,-177.61 88.72,-36.69 184.56,-49.94 280.41,-63.18"/>
  <path class="fil2 str2" d="M78004.86 27391.53c6.72,-2843.56 60.54,-3045.65 188.61,-3244.11 128.09,-198.47 330.45,-393.33 525.52,-530.45 195.07,-137.13 382.86,-216.51 575.52,-277.85 192.67,-61.36 390.2,-104.67 591.99,-111.88 201.81,-7.22 407.86,21.65 610.76,83.01 202.91,61.34 402.63,155.15 564.06,277.85 161.45,122.68 284.6,274.25 359.62,436.64 75.03,162.37 101.94,335.59 182.65,387.31 80.72,51.72 215.26,-18.03 349.79,-82.99 134.52,-64.96 269.06,-125.11 404.32,-159.99 135.26,-34.89 271.23,-44.5 423.13,-33.66 151.92,10.82 319.73,42.09 463.31,99.23 143.59,57.13 262.94,140.13 370.34,228.54 107.42,88.41 202.91,182.22 267.12,303.12 64.22,120.89 97.18,268.84 119.79,407.77 22.6,138.94 34.88,268.84 20.1,398.75 -14.77,129.9 -56.59,259.82 -51.92,375.3 4.66,115.47 55.83,216.5 147.88,274.24 92.08,57.74 225.08,72.16 389.62,115.48 164.55,43.31 360.65,115.48 526.91,227.36 166.25,111.87 302.64,263.44 401.53,445.68 98.89,182.22 160.26,395.12 170.48,601.71 10.22,206.58 -30.72,406.84 -75.07,580.94 -44.32,174.11 -92.07,322.06 -153.45,433.03 -61.37,110.96 -136.4,184.94 -191.41,283.28 -55.01,98.33 -90,221.01 -67.13,318.46 22.86,97.43 103.57,169.59 217.52,198.51 113.95,28.9 261.1,14.55 443.8,45.27 182.7,30.72 400.92,106.49 571.4,263.48 170.5,156.97 293.26,395.14 304.7,645.04 11.46,249.89 -88.4,511.51 -206.97,688.3 -118.57,176.79 -255.87,268.72 -322.21,377.84 -66.34,109.11 -61.71,235.4 -25.78,334.63 35.94,99.23 103.2,171.38 224.27,258 121.09,86.61 295.99,187.64 463.86,281.51 167.87,93.87 328.74,180.58 475.67,314.14 146.92,133.55 279.92,313.98 353.23,483.58 73.33,169.59 86.98,328.38 90.38,488.96 3.42,160.58 -3.41,322.96 -56.28,474.53 -52.86,151.56 -151.75,292.31 -268.46,423.98 -116.71,131.66 -251.22,254.25 -465.25,371.51 -214.01,117.25 -507.53,229.18 -647.46,342.9 -139.92,113.69 -126.25,229.19 -89.57,326.65 36.7,97.45 96.42,176.84 172.94,242.65 76.53,65.81 169.88,118.04 254.04,201.82 84.15,83.76 159.13,199.08 207.74,349.18 48.63,150.08 70.9,334.93 43.26,525.69 -27.64,190.73 -105.19,387.37 -214.13,528.73 -108.93,141.36 -249.27,227.44 -396.17,283.11 -146.88,55.66 -300.32,80.93 -426.57,80.9 -126.26,-0.05 -225.34,-25.39 -315.7,-16.37 -90.35,9.02 -172.01,52.4 -221.37,128.79 -49.36,76.36 -66.41,185.72 -28.23,323.61 38.19,137.89 131.62,304.27 181.75,440.03 50.14,135.74 56.96,240.86 35.11,415.23 -21.83,174.35 -72.32,417.97 -194.15,614.56 -121.83,196.58 -315.01,346.13 -504.86,427.18 -189.84,81.05 -376.35,93.58 -529.99,65.58 -153.64,-28.02 -274.4,-96.59 -422.23,-152.52 -147.83,-55.94 -322.73,-99.24 -437.09,-70.37 -114.34,28.87 -168.15,129.9 -184.39,265.26 -16.25,135.37 5.06,305.07 -14.97,476.53 -20.02,171.44 -81.41,344.66 -187.12,499.83 -105.71,155.15 -255.75,292.29 -430.79,359 -175.04,66.71 -375.08,63.02 -589.46,25.09 -214.36,-37.94 -443.07,-110.1 -570.88,-45.14 -127.8,64.94 -154.71,267.02 -235.43,454.66 -80.71,187.64 -215.25,360.86 -379.57,507.05 -164.31,146.18 -358.44,265.36 -581.66,321.34 -223.22,55.97 -475.56,48.75 -735.02,-25.26 -259.46,-74.02 -526.02,-214.84 -740.03,-357.42 -214,-142.59 -375.45,-286.92 -489.81,-424.04 -114.35,-137.14 -181.6,-267.05 -201.78,-396.95 -20.18,-129.92 6.73,-259.82 0,-3067.29 -6.73,-2807.48 -47.09,-8292.51 -40.36,-11136.06z"/>
  <path class="fil1 str2" d="M83890.4 29238.79c60.59,-66.68 121.19,-133.35 152.52,-251.66 31.33,-118.31 33.38,-288.25 -33.65,-474.33 -67.01,-186.09 -203.1,-388.33 -335.63,-512.94 -132.52,-124.63 -261.48,-171.64 -381.44,-202.01 -119.94,-30.38 -230.87,-44.12 -332.32,-37.22 -101.42,6.89 -193.35,34.43 -271.99,82.07 -78.64,47.65 -143.99,115.39 -209.34,183.14"/>
  <path class="fil1 str2" d="M82959.88 27760.62c57.14,-109.65 114.27,-219.3 108.69,-381.44 -5.58,-162.14 -73.86,-376.76 -206.9,-527.35 -133.03,-150.61 -330.81,-237.18 -508.14,-255.22 -177.31,-18.04 -334.18,32.46 -460.35,104.61 -126.16,72.14 -221.64,165.93 -317.12,259.72"/>
  <path class="fil1 str2" d="M79661.64 30206.11c87.4,2.54 174.8,5.09 278.6,-50.02 103.81,-55.11 224,-167.88 309,-345.55 85.02,-177.67 134.84,-420.26 132.77,-607.82 -2.04,-187.56 -55.96,-320.11 -115.46,-434.41 -59.47,-114.3 -124.52,-210.34 -197.62,-285.07 -73.08,-74.72 -154.2,-128.12 -240.44,-157.59 -86.23,-29.46 -177.57,-35.01 -268.93,-40.55"/>
  <path class="fil1 str2" d="M85168.36 33550.74c62.4,1.81 124.81,3.63 198.93,-35.72 74.12,-39.35 159.94,-119.86 220.63,-246.73 60.7,-126.85 96.27,-300.07 94.8,-433.99 -1.46,-133.92 -39.96,-228.56 -82.44,-310.18 -42.47,-81.6 -88.92,-150.18 -141.11,-203.54 -52.18,-53.35 -110.1,-91.48 -171.68,-112.52 -61.57,-21.04 -126.79,-25 -192.02,-28.95"/>
  <path class="fil1 str2" d="M81777.36 35012.16c86.31,-16.01 172.62,-31.99 263.85,-107.75 91.22,-75.77 187.34,-211.31 236.31,-402.8 48.98,-191.49 50.79,-438.96 12.35,-621.7 -38.42,-182.75 -117.1,-300.81 -197.71,-399.87 -80.59,-99.06 -163.1,-179.11 -249.39,-236.64 -86.26,-57.54 -176.27,-92.53 -266.67,-103.09 -90.4,-10.54 -181.16,3.35 -271.93,17.24"/>
  <path class="fil1 str2" d="M81619.5 33118.15c74.16,-48.88 148.33,-97.74 205.74,-204.06 57.4,-106.32 98.01,-270.08 75.03,-467.22 -22.96,-197.15 -109.53,-427.69 -210.27,-582.25 -100.74,-154.58 -215.65,-233.21 -325.57,-293.44 -109.9,-60.23 -214.82,-102.05 -315.18,-121.47 -100.34,-19.44 -196.13,-16.46 -283.55,9.37 -87.41,25.83 -166.45,74.51 -245.5,123.19"/>
  <path class="fil1 str2" d="M80723.77 37859.88c57.8,1.67 115.6,3.36 184.25,-33.09 68.66,-36.45 148.15,-111.02 204.36,-228.53 56.23,-117.5 89.18,-277.94 87.81,-401.98 -1.35,-124.05 -37.01,-211.71 -76.36,-287.3 -39.33,-75.59 -82.36,-139.11 -130.7,-188.54 -48.33,-49.41 -101.98,-84.73 -159.02,-104.22 -57.03,-19.48 -117.44,-23.15 -177.85,-26.82"/>
  <path class="fil1 str2" d="M82688.29 37453.18c57.4,-8.46 114.8,-16.9 176.76,-64.74 61.95,-47.84 128.46,-135.06 165.02,-260.43 36.57,-125.36 43.2,-288.88 21.8,-410.61 -21.38,-121.73 -70.8,-201.69 -121.9,-269.14 -51.09,-67.45 -103.88,-122.39 -159.64,-162.53 -55.75,-40.15 -114.48,-65.49 -174,-74.69 -59.51,-9.18 -119.81,-2.23 -180.11,4.73"/>
  <path class="fil1 str2" d="M83120.83 38762.52c71.6,8.16 143.19,16.34 231.51,-21.77 88.33,-38.12 193.35,-122.52 273.16,-262.77 79.82,-140.25 134.42,-336.36 143.33,-490.8 8.91,-154.45 -27.86,-267.24 -70.24,-365.42 -42.36,-98.16 -90.33,-181.7 -146.11,-248.27 -55.76,-66.55 -119.33,-116.12 -188.46,-146.37 -69.12,-30.24 -143.78,-41.16 -218.45,-52.07"/>
  <path class="fil3 str3" d="M46266.47 32412.41l-19.95 -6981.25 -1328.1 0 -2571.43 4338.35 -2611.32 -4338.35 -1336.41 0 0 6981.25 1515.93 0 0 -4098.99 2042.84 3360.97 728.05 0 2052.82 -3450.73 9.97 4188.75 1517.6 0zm9286.73 -6981.25l0 4238.61 -3470.68 -4238.61 -1336.41 0 0 6981.25 1595.71 0 0 -4238.62 3480.66 4238.62 1326.43 0 0 -6981.25 -1595.71 0zm3251.27 6981.25l3171.48 0c2283.87,0 3849.66,-1376.3 3849.66,-3490.63 0,-2114.32 -1565.79,-3490.62 -3849.66,-3490.62l-3171.48 0 0 6981.25zm1615.66 -1326.44l0 -4328.38 1476.04 0c1386.27,0 2293.84,827.78 2293.84,2164.19 0,1336.41 -907.57,2164.19 -2293.84,2164.19l-1476.04 0z"/>
  <path class="fil3 str4" d="M36895.9 41266.71c1309.47,0 2393.54,-472.27 3101.94,-1341.67l-1116.27 -1030.4c-504.47,590.33 -1137.74,890.87 -1889.07,890.87 -1406.07,0 -2404.28,-987.47 -2404.28,-2404.28 0,-1416.8 998.21,-2404.27 2404.28,-2404.27 751.33,0 1384.6,300.53 1889.07,880.13l1116.27 -1030.4c-708.4,-858.67 -1792.47,-1330.94 -3091.21,-1330.94 -2339.87,0 -4078.68,1620.74 -4078.68,3885.48 0,2264.74 1738.81,3885.48 4067.95,3885.48zm4271.88 -128.8l5506.22 0 0 -1416.8 -3767.41 0 0 -6096.56 -1738.81 0 0 7513.36zm13116.18 128.8c1309.47,0 2393.54,-472.27 3101.94,-1341.67l-1116.27 -1030.4c-504.47,590.33 -1137.74,890.87 -1889.07,890.87 -1406.07,0 -2404.28,-987.47 -2404.28,-2404.28 0,-1416.8 998.21,-2404.27 2404.28,-2404.27 751.33,0 1384.6,300.53 1889.07,880.13l1116.27 -1030.4c-708.4,-858.67 -1792.47,-1330.94 -3091.21,-1330.94 -2339.87,0 -4078.68,1620.74 -4078.68,3885.48 0,2264.74 1738.81,3885.48 4067.95,3885.48zm9413.16 -128.8l2028.61 0 -3295.14 -4164.55 3112.67 -3348.81 -1932 0 -3327.35 3509.81 0 -3509.81 -1728.07 0 0 7513.36 1728.07 0 0 -1899.81 1008.94 -1051.87 2404.27 2951.68z"/>
  <polygon class="fil4 str4" points="47746.12,26744.86 47746.12,24326.04 47098.48,24326.04 48393.76,21907.24 49689.05,24326.04 49041.41,24326.04 49041.41,26744.86 "/>
  <polygon class="fil5 str4" points="47718.56,30209.63 47718.56,27790.82 47070.92,27790.82 48366.2,25372.01 49661.49,27790.82 49013.85,27790.82 49013.85,30209.63 "/>
  <polygon class="fil6 str4" points="47773.68,33739.78 47773.68,31320.97 47126.04,31320.97 48421.32,28902.16 49716.6,31320.97 49068.96,31320.97 49068.96,33739.78 "/>
  <polygon class="fil7 str4" points="47828.8,37335.31 47828.8,34916.49 47181.16,34916.49 48476.44,32497.69 49771.73,34916.49 49124.09,34916.49 49124.09,37335.31 "/>
  <polygon class="fil8 str4" points="47828.8,40930.83 47828.8,38512.02 47181.16,38512.02 48476.44,36093.21 49771.73,38512.02 49124.09,38512.02 49124.09,40930.83 "/>
  <polygon class="fil9 str1" points="83741.9,43934.41 80888.54,40457.57 79492.54,41603.24 79431.17,35835.07 85076.55,37020.56 83680.55,38166.23 86533.91,41643.06 "/>
 </g>
</svg>
