<svg width="529" height="428" viewBox="0 0 529 428" fill="none" xmlns="http://www.w3.org/2000/svg">
<rect width="529" height="428" fill="white"/>
<g filter="url(#filter0_d_1:64)">
<line x1="44.9497" y1="382.038" x2="483.95" y2="44.0382" stroke="#1E90FF" stroke-width="10"/>
</g>
<g filter="url(#filter1_d_1:64)">
<path d="M50.5 377.5L481.139 46.0223" stroke="#00EF99" stroke-width="10"/>
</g>
<g filter="url(#filter2_d_1:64)">
<circle cx="45.5" cy="382.5" r="20.5" fill="#00EF99"/>
</g>
<g filter="url(#filter3_d_1:64)">
<circle cx="264.5" cy="214.5" r="20.5" fill="#00EF99"/>
</g>
<g filter="url(#filter4_d_1:64)">
<circle cx="483.5" cy="45.5" r="20.5" fill="#00EF99"/>
</g>
<g filter="url(#filter5_d_1:64)">
<rect x="82" y="371" width="116" height="30" rx="5" fill="#00EF99"/>
<path d="M96.6379 385.555C97.3479 385.725 97.8829 386.03 98.2429 386.47C98.6129 386.9 98.7979 387.455 98.7979 388.135C98.7979 389.045 98.4629 389.75 97.7929 390.25C97.1329 390.75 96.1679 391 94.8979 391H90.0979V380.5H94.6129C95.7629 380.5 96.6579 380.735 97.2979 381.205C97.9479 381.665 98.2729 382.33 98.2729 383.2C98.2729 383.77 98.1279 384.255 97.8379 384.655C97.5579 385.055 97.1579 385.355 96.6379 385.555ZM91.5829 385.12H94.5079C95.2379 385.12 95.7929 384.975 96.1729 384.685C96.5629 384.395 96.7579 383.97 96.7579 383.41C96.7579 382.85 96.5629 382.425 96.1729 382.135C95.7829 381.835 95.2279 381.685 94.5079 381.685H91.5829V385.12ZM94.8679 389.815C96.4779 389.815 97.2829 389.215 97.2829 388.015C97.2829 387.415 97.0779 386.975 96.6679 386.695C96.2679 386.405 95.6679 386.26 94.8679 386.26H91.5829V389.815H94.8679ZM105.369 386.86C105.899 387 106.309 387.225 106.599 387.535C106.889 387.845 107.034 388.23 107.034 388.69C107.034 389.16 106.874 389.58 106.554 389.95C106.234 390.31 105.789 390.595 105.219 390.805C104.659 391.005 104.029 391.105 103.329 391.105C102.739 391.105 102.159 391.03 101.589 390.88C101.029 390.72 100.529 390.495 100.089 390.205L100.524 389.11C100.904 389.35 101.339 389.54 101.829 389.68C102.319 389.81 102.814 389.875 103.314 389.875C103.994 389.875 104.534 389.76 104.934 389.53C105.344 389.29 105.549 388.97 105.549 388.57C105.549 388.2 105.384 387.915 105.054 387.715C104.734 387.515 104.279 387.415 103.689 387.415H102.234V386.38H103.584C104.124 386.38 104.549 386.285 104.859 386.095C105.169 385.905 105.324 385.645 105.324 385.315C105.324 384.955 105.139 384.675 104.769 384.475C104.409 384.275 103.919 384.175 103.299 384.175C102.509 384.175 101.674 384.38 100.794 384.79L100.404 383.68C101.374 383.19 102.389 382.945 103.449 382.945C104.089 382.945 104.664 383.035 105.174 383.215C105.684 383.395 106.084 383.65 106.374 383.98C106.664 384.31 106.809 384.685 106.809 385.105C106.809 385.495 106.679 385.845 106.419 386.155C106.159 386.465 105.809 386.7 105.369 386.86ZM115.598 383.05V391H114.308V388.48H111.998H111.833L110.093 391H108.548L110.483 388.285C109.883 388.105 109.423 387.81 109.103 387.4C108.783 386.98 108.623 386.46 108.623 385.84C108.623 384.93 108.933 384.24 109.553 383.77C110.173 383.29 111.028 383.05 112.118 383.05H115.598ZM110.093 385.885C110.093 386.415 110.258 386.81 110.588 387.07C110.928 387.32 111.433 387.445 112.103 387.445H114.308V384.31H112.163C110.783 384.31 110.093 384.835 110.093 385.885ZM124.333 384.31H121.423V391H119.983V384.31H117.073V383.05H124.333V384.31ZM129.48 385.75C130.49 385.76 131.26 385.99 131.79 386.44C132.32 386.89 132.585 387.525 132.585 388.345C132.585 389.205 132.295 389.87 131.715 390.34C131.145 390.8 130.325 391.025 129.255 391.015L125.805 391V383.05H127.245V385.735L129.48 385.75ZM129.135 389.92C129.785 389.93 130.275 389.8 130.605 389.53C130.945 389.26 131.115 388.86 131.115 388.33C131.115 387.81 130.95 387.43 130.62 387.19C130.3 386.95 129.805 386.825 129.135 386.815L127.245 386.785V389.905L129.135 389.92ZM142.766 386.86C143.296 387 143.706 387.225 143.996 387.535C144.286 387.845 144.431 388.23 144.431 388.69C144.431 389.16 144.271 389.58 143.951 389.95C143.631 390.31 143.186 390.595 142.616 390.805C142.056 391.005 141.426 391.105 140.726 391.105C140.136 391.105 139.556 391.03 138.986 390.88C138.426 390.72 137.926 390.495 137.486 390.205L137.921 389.11C138.301 389.35 138.736 389.54 139.226 389.68C139.716 389.81 140.211 389.875 140.711 389.875C141.391 389.875 141.931 389.76 142.331 389.53C142.741 389.29 142.946 388.97 142.946 388.57C142.946 388.2 142.781 387.915 142.451 387.715C142.131 387.515 141.676 387.415 141.086 387.415H139.631V386.38H140.981C141.521 386.38 141.946 386.285 142.256 386.095C142.566 385.905 142.721 385.645 142.721 385.315C142.721 384.955 142.536 384.675 142.166 384.475C141.806 384.275 141.316 384.175 140.696 384.175C139.906 384.175 139.071 384.38 138.191 384.79L137.801 383.68C138.771 383.19 139.786 382.945 140.846 382.945C141.486 382.945 142.061 383.035 142.571 383.215C143.081 383.395 143.481 383.65 143.771 383.98C144.061 384.31 144.206 384.685 144.206 385.105C144.206 385.495 144.076 385.845 143.816 386.155C143.556 386.465 143.206 386.7 142.766 386.86ZM149.456 382.975C150.556 382.975 151.396 383.245 151.976 383.785C152.566 384.325 152.861 385.13 152.861 386.2V391H151.496V389.95C151.256 390.32 150.911 390.605 150.461 390.805C150.021 390.995 149.496 391.09 148.886 391.09C147.996 391.09 147.281 390.875 146.741 390.445C146.211 390.015 145.946 389.45 145.946 388.75C145.946 388.05 146.201 387.49 146.711 387.07C147.221 386.64 148.031 386.425 149.141 386.425H151.421V386.14C151.421 385.52 151.241 385.045 150.881 384.715C150.521 384.385 149.991 384.22 149.291 384.22C148.821 384.22 148.361 384.3 147.911 384.46C147.461 384.61 147.081 384.815 146.771 385.075L146.171 383.995C146.581 383.665 147.071 383.415 147.641 383.245C148.211 383.065 148.816 382.975 149.456 382.975ZM149.126 389.98C149.676 389.98 150.151 389.86 150.551 389.62C150.951 389.37 151.241 389.02 151.421 388.57V387.46H149.201C147.981 387.46 147.371 387.87 147.371 388.69C147.371 389.09 147.526 389.405 147.836 389.635C148.146 389.865 148.576 389.98 149.126 389.98ZM161.829 383.05V391H160.539V388.48H158.229H158.064L156.324 391H154.779L156.714 388.285C156.114 388.105 155.654 387.81 155.334 387.4C155.014 386.98 154.854 386.46 154.854 385.84C154.854 384.93 155.164 384.24 155.784 383.77C156.404 383.29 157.259 383.05 158.349 383.05H161.829ZM156.324 385.885C156.324 386.415 156.489 386.81 156.819 387.07C157.159 387.32 157.664 387.445 158.334 387.445H160.539V384.31H158.394C157.014 384.31 156.324 384.835 156.324 385.885ZM170.053 386.875C171.083 387.135 171.598 387.78 171.598 388.81C171.598 389.51 171.333 390.05 170.803 390.43C170.283 390.81 169.503 391 168.463 391H164.638V383.05H168.328C169.268 383.05 170.003 383.23 170.533 383.59C171.063 383.94 171.328 384.44 171.328 385.09C171.328 385.51 171.213 385.875 170.983 386.185C170.763 386.485 170.453 386.715 170.053 386.875ZM166.048 386.47H168.208C168.758 386.47 169.173 386.37 169.453 386.17C169.743 385.97 169.888 385.68 169.888 385.3C169.888 384.54 169.328 384.16 168.208 384.16H166.048V386.47ZM168.358 389.89C168.958 389.89 169.408 389.795 169.708 389.605C170.008 389.415 170.158 389.12 170.158 388.72C170.158 388.31 170.018 388.005 169.738 387.805C169.468 387.605 169.038 387.505 168.448 387.505H166.048V389.89H168.358ZM176.942 387.64H175.292V391H173.852V383.05H175.292V386.41H176.972L179.552 383.05H181.097L178.082 386.875L181.307 391H179.612L176.942 387.64ZM189.458 383.05L185.603 391.795C185.263 392.605 184.863 393.175 184.403 393.505C183.953 393.835 183.408 394 182.768 394C182.378 394 181.998 393.935 181.628 393.805C181.268 393.685 180.968 393.505 180.728 393.265L181.343 392.185C181.753 392.575 182.228 392.77 182.768 392.77C183.118 392.77 183.408 392.675 183.638 392.485C183.878 392.305 184.093 391.99 184.283 391.54L184.538 390.985L181.028 383.05H182.528L185.303 389.41L188.048 383.05H189.458Z" fill="white"/>
</g>
<g filter="url(#filter6_d_1:64)">
<rect x="301" y="202" width="189" height="30" rx="5" fill="#00EF99"/>
<path d="M314.619 222.12C313.569 222.12 312.619 221.89 311.769 221.43C310.929 220.96 310.269 220.32 309.789 219.51C309.309 218.69 309.069 217.77 309.069 216.75C309.069 215.73 309.309 214.815 309.789 214.005C310.269 213.185 310.934 212.545 311.784 212.085C312.634 211.615 313.584 211.38 314.634 211.38C315.454 211.38 316.204 211.52 316.884 211.8C317.564 212.07 318.144 212.475 318.624 213.015L317.649 213.96C316.859 213.13 315.874 212.715 314.694 212.715C313.914 212.715 313.209 212.89 312.579 213.24C311.949 213.59 311.454 214.075 311.094 214.695C310.744 215.305 310.569 215.99 310.569 216.75C310.569 217.51 310.744 218.2 311.094 218.82C311.454 219.43 311.949 219.91 312.579 220.26C313.209 220.61 313.914 220.785 314.694 220.785C315.864 220.785 316.849 220.365 317.649 219.525L318.624 220.47C318.144 221.01 317.559 221.42 316.869 221.7C316.189 221.98 315.439 222.12 314.619 222.12ZM325.865 217.875C326.895 218.135 327.41 218.78 327.41 219.81C327.41 220.51 327.145 221.05 326.615 221.43C326.095 221.81 325.315 222 324.275 222H320.45V214.05H324.14C325.08 214.05 325.815 214.23 326.345 214.59C326.875 214.94 327.14 215.44 327.14 216.09C327.14 216.51 327.025 216.875 326.795 217.185C326.575 217.485 326.265 217.715 325.865 217.875ZM321.86 217.47H324.02C324.57 217.47 324.985 217.37 325.265 217.17C325.555 216.97 325.7 216.68 325.7 216.3C325.7 215.54 325.14 215.16 324.02 215.16H321.86V217.47ZM324.17 220.89C324.77 220.89 325.22 220.795 325.52 220.605C325.82 220.415 325.97 220.12 325.97 219.72C325.97 219.31 325.83 219.005 325.55 218.805C325.28 218.605 324.85 218.505 324.26 218.505H321.86V220.89H324.17ZM336.039 214.05V222H334.749V219.48H332.439H332.274L330.534 222H328.989L330.924 219.285C330.324 219.105 329.864 218.81 329.544 218.4C329.224 217.98 329.064 217.46 329.064 216.84C329.064 215.93 329.374 215.24 329.994 214.77C330.614 214.29 331.469 214.05 332.559 214.05H336.039ZM330.534 216.885C330.534 217.415 330.699 217.81 331.029 218.07C331.369 218.32 331.874 218.445 332.544 218.445H334.749V215.31H332.604C331.224 215.31 330.534 215.835 330.534 216.885ZM343.022 217.86C343.552 218 343.962 218.225 344.252 218.535C344.542 218.845 344.687 219.23 344.687 219.69C344.687 220.16 344.527 220.58 344.207 220.95C343.887 221.31 343.442 221.595 342.872 221.805C342.312 222.005 341.682 222.105 340.982 222.105C340.392 222.105 339.812 222.03 339.242 221.88C338.682 221.72 338.182 221.495 337.742 221.205L338.177 220.11C338.557 220.35 338.992 220.54 339.482 220.68C339.972 220.81 340.467 220.875 340.967 220.875C341.647 220.875 342.187 220.76 342.587 220.53C342.997 220.29 343.202 219.97 343.202 219.57C343.202 219.2 343.037 218.915 342.707 218.715C342.387 218.515 341.932 218.415 341.342 218.415H339.887V217.38H341.237C341.777 217.38 342.202 217.285 342.512 217.095C342.822 216.905 342.977 216.645 342.977 216.315C342.977 215.955 342.792 215.675 342.422 215.475C342.062 215.275 341.572 215.175 340.952 215.175C340.162 215.175 339.327 215.38 338.447 215.79L338.057 214.68C339.027 214.19 340.042 213.945 341.102 213.945C341.742 213.945 342.317 214.035 342.827 214.215C343.337 214.395 343.737 214.65 344.027 214.98C344.317 215.31 344.462 215.685 344.462 216.105C344.462 216.495 344.332 216.845 344.072 217.155C343.812 217.465 343.462 217.7 343.022 217.86ZM349.711 213.975C350.811 213.975 351.651 214.245 352.231 214.785C352.821 215.325 353.116 216.13 353.116 217.2V222H351.751V220.95C351.511 221.32 351.166 221.605 350.716 221.805C350.276 221.995 349.751 222.09 349.141 222.09C348.251 222.09 347.536 221.875 346.996 221.445C346.466 221.015 346.201 220.45 346.201 219.75C346.201 219.05 346.456 218.49 346.966 218.07C347.476 217.64 348.286 217.425 349.396 217.425H351.676V217.14C351.676 216.52 351.496 216.045 351.136 215.715C350.776 215.385 350.246 215.22 349.546 215.22C349.076 215.22 348.616 215.3 348.166 215.46C347.716 215.61 347.336 215.815 347.026 216.075L346.426 214.995C346.836 214.665 347.326 214.415 347.896 214.245C348.466 214.065 349.071 213.975 349.711 213.975ZM349.381 220.98C349.931 220.98 350.406 220.86 350.806 220.62C351.206 220.37 351.496 220.02 351.676 219.57V218.46H349.456C348.236 218.46 347.626 218.87 347.626 219.69C347.626 220.09 347.781 220.405 348.091 220.635C348.401 220.865 348.831 220.98 349.381 220.98ZM361.634 215.31H358.724V222H357.284V215.31H354.374V214.05H361.634V215.31ZM366.781 216.75C367.791 216.76 368.561 216.99 369.091 217.44C369.621 217.89 369.886 218.525 369.886 219.345C369.886 220.205 369.596 220.87 369.016 221.34C368.446 221.8 367.626 222.025 366.556 222.015L363.106 222V214.05H364.546V216.735L366.781 216.75ZM366.436 220.92C367.086 220.93 367.576 220.8 367.906 220.53C368.246 220.26 368.416 219.86 368.416 219.33C368.416 218.81 368.251 218.43 367.921 218.19C367.601 217.95 367.106 217.825 366.436 217.815L364.546 217.785V220.905L366.436 220.92ZM375.199 222.09C374.389 222.09 373.664 221.915 373.024 221.565C372.394 221.215 371.899 220.735 371.539 220.125C371.179 219.505 370.999 218.805 370.999 218.025C370.999 217.245 371.179 216.55 371.539 215.94C371.899 215.32 372.394 214.84 373.024 214.5C373.664 214.15 374.389 213.975 375.199 213.975C375.919 213.975 376.559 214.12 377.119 214.41C377.689 214.7 378.129 215.12 378.439 215.67L377.344 216.375C377.094 215.995 376.784 215.71 376.414 215.52C376.044 215.33 375.634 215.235 375.184 215.235C374.664 215.235 374.194 215.35 373.774 215.58C373.364 215.81 373.039 216.14 372.799 216.57C372.569 216.99 372.454 217.475 372.454 218.025C372.454 218.585 372.569 219.08 372.799 219.51C373.039 219.93 373.364 220.255 373.774 220.485C374.194 220.715 374.664 220.83 375.184 220.83C375.634 220.83 376.044 220.735 376.414 220.545C376.784 220.355 377.094 220.07 377.344 219.69L378.439 220.38C378.129 220.93 377.689 221.355 377.119 221.655C376.559 221.945 375.919 222.09 375.199 222.09ZM386.43 214.05V222H385.14V219.48H382.83H382.665L380.925 222H379.38L381.315 219.285C380.715 219.105 380.255 218.81 379.935 218.4C379.615 217.98 379.455 217.46 379.455 216.84C379.455 215.93 379.765 215.24 380.385 214.77C381.005 214.29 381.86 214.05 382.95 214.05H386.43ZM380.925 216.885C380.925 217.415 381.09 217.81 381.42 218.07C381.76 218.32 382.265 218.445 382.935 218.445H385.14V215.31H382.995C381.615 215.31 380.925 215.835 380.925 216.885ZM396.733 222.09C395.923 222.09 395.198 221.915 394.558 221.565C393.928 221.215 393.433 220.735 393.073 220.125C392.713 219.505 392.533 218.805 392.533 218.025C392.533 217.245 392.713 216.55 393.073 215.94C393.433 215.32 393.928 214.84 394.558 214.5C395.198 214.15 395.923 213.975 396.733 213.975C397.453 213.975 398.093 214.12 398.653 214.41C399.223 214.7 399.663 215.12 399.973 215.67L398.878 216.375C398.628 215.995 398.318 215.71 397.948 215.52C397.578 215.33 397.168 215.235 396.718 215.235C396.198 215.235 395.728 215.35 395.308 215.58C394.898 215.81 394.573 216.14 394.333 216.57C394.103 216.99 393.988 217.475 393.988 218.025C393.988 218.585 394.103 219.08 394.333 219.51C394.573 219.93 394.898 220.255 395.308 220.485C395.728 220.715 396.198 220.83 396.718 220.83C397.168 220.83 397.578 220.735 397.948 220.545C398.318 220.355 398.628 220.07 398.878 219.69L399.973 220.38C399.663 220.93 399.223 221.355 398.653 221.655C398.093 221.945 397.453 222.09 396.733 222.09ZM408.955 218.64H407.305V222H405.865V214.05H407.305V217.41H408.985L411.565 214.05H413.11L410.095 217.875L413.32 222H411.625L408.955 218.64ZM421.655 214.05V222H420.215V215.31H416.795L416.705 217.08C416.655 218.15 416.56 219.045 416.42 219.765C416.28 220.475 416.05 221.045 415.73 221.475C415.41 221.905 414.965 222.12 414.395 222.12C414.135 222.12 413.84 222.075 413.51 221.985L413.6 220.77C413.73 220.8 413.85 220.815 413.96 220.815C414.36 220.815 414.66 220.64 414.86 220.29C415.06 219.94 415.19 219.525 415.25 219.045C415.31 218.565 415.365 217.88 415.415 216.99L415.55 214.05H421.655ZM424.439 214.05H425.879V219.84L430.754 214.05H432.059V222H430.619V216.21L425.759 222H424.439V214.05ZM442.039 218.07C442.039 218.18 442.029 218.325 442.009 218.505H435.559C435.649 219.205 435.954 219.77 436.474 220.2C437.004 220.62 437.659 220.83 438.439 220.83C439.389 220.83 440.154 220.51 440.734 219.87L441.529 220.8C441.169 221.22 440.719 221.54 440.179 221.76C439.649 221.98 439.054 222.09 438.394 222.09C437.554 222.09 436.809 221.92 436.159 221.58C435.509 221.23 435.004 220.745 434.644 220.125C434.294 219.505 434.119 218.805 434.119 218.025C434.119 217.255 434.289 216.56 434.629 215.94C434.979 215.32 435.454 214.84 436.054 214.5C436.664 214.15 437.349 213.975 438.109 213.975C438.869 213.975 439.544 214.15 440.134 214.5C440.734 214.84 441.199 215.32 441.529 215.94C441.869 216.56 442.039 217.27 442.039 218.07ZM438.109 215.19C437.419 215.19 436.839 215.4 436.369 215.82C435.909 216.24 435.639 216.79 435.559 217.47H440.659C440.579 216.8 440.304 216.255 439.834 215.835C439.374 215.405 438.799 215.19 438.109 215.19ZM444.273 214.05H445.713V217.425H450.243V214.05H451.683V222H450.243V218.67H445.713V222H444.273V214.05ZM460.408 215.31H457.498V222H456.058V215.31H453.148V214.05H460.408V215.31ZM464.934 222.09C464.144 222.09 463.434 221.915 462.804 221.565C462.174 221.215 461.679 220.735 461.319 220.125C460.969 219.505 460.794 218.805 460.794 218.025C460.794 217.245 460.969 216.55 461.319 215.94C461.679 215.32 462.174 214.84 462.804 214.5C463.434 214.15 464.144 213.975 464.934 213.975C465.724 213.975 466.429 214.15 467.049 214.5C467.679 214.84 468.169 215.32 468.519 215.94C468.879 216.55 469.059 217.245 469.059 218.025C469.059 218.805 468.879 219.505 468.519 220.125C468.169 220.735 467.679 221.215 467.049 221.565C466.429 221.915 465.724 222.09 464.934 222.09ZM464.934 220.83C465.444 220.83 465.899 220.715 466.299 220.485C466.709 220.245 467.029 219.915 467.259 219.495C467.489 219.065 467.604 218.575 467.604 218.025C467.604 217.475 467.489 216.99 467.259 216.57C467.029 216.14 466.709 215.81 466.299 215.58C465.899 215.35 465.444 215.235 464.934 215.235C464.424 215.235 463.964 215.35 463.554 215.58C463.154 215.81 462.834 216.14 462.594 216.57C462.364 216.99 462.249 217.475 462.249 218.025C462.249 218.575 462.364 219.065 462.594 219.495C462.834 219.915 463.154 220.245 463.554 220.485C463.964 220.715 464.424 220.83 464.934 220.83ZM480.304 214.05V222H478.999V216.195L476.029 221.1H475.399L472.459 216.18V222H471.139V214.05H472.624L475.744 219.42L478.954 214.05H480.304Z" fill="white"/>
</g>
<g filter="url(#filter7_d_1:64)">
<rect x="199" y="30" width="237" height="30" rx="5" fill="#00EF99"/>
<path d="M215.943 44.525C216.603 44.705 217.118 45.02 217.488 45.47C217.858 45.91 218.043 46.44 218.043 47.06C218.043 47.68 217.843 48.225 217.443 48.695C217.053 49.155 216.528 49.51 215.868 49.76C215.218 50 214.508 50.12 213.738 50.12C213.038 50.12 212.343 50.015 211.653 49.805C210.963 49.595 210.333 49.28 209.763 48.86L210.288 47.75C210.748 48.11 211.263 48.38 211.833 48.56C212.403 48.74 212.978 48.83 213.558 48.83C214.398 48.83 215.103 48.655 215.673 48.305C216.243 47.945 216.528 47.455 216.528 46.835C216.528 46.305 216.313 45.9 215.883 45.62C215.453 45.33 214.848 45.185 214.068 45.185H211.728V43.97H213.963C214.633 43.97 215.153 43.835 215.523 43.565C215.903 43.285 216.093 42.9 216.093 42.41C216.093 41.86 215.848 41.425 215.358 41.105C214.868 40.785 214.248 40.625 213.498 40.625C213.008 40.625 212.508 40.695 211.998 40.835C211.498 40.975 211.023 41.185 210.573 41.465L210.093 40.235C210.623 39.935 211.183 39.71 211.773 39.56C212.363 39.41 212.953 39.335 213.543 39.335C214.283 39.335 214.963 39.45 215.583 39.68C216.203 39.91 216.693 40.245 217.053 40.685C217.423 41.125 217.608 41.64 217.608 42.23C217.608 42.76 217.458 43.225 217.158 43.625C216.868 44.025 216.463 44.325 215.943 44.525ZM223.137 41.975C224.237 41.975 225.077 42.245 225.657 42.785C226.247 43.325 226.542 44.13 226.542 45.2V50H225.177V48.95C224.937 49.32 224.592 49.605 224.142 49.805C223.702 49.995 223.177 50.09 222.567 50.09C221.677 50.09 220.962 49.875 220.422 49.445C219.892 49.015 219.627 48.45 219.627 47.75C219.627 47.05 219.882 46.49 220.392 46.07C220.902 45.64 221.712 45.425 222.822 45.425H225.102V45.14C225.102 44.52 224.922 44.045 224.562 43.715C224.202 43.385 223.672 43.22 222.972 43.22C222.502 43.22 222.042 43.3 221.592 43.46C221.142 43.61 220.762 43.815 220.452 44.075L219.852 42.995C220.262 42.665 220.752 42.415 221.322 42.245C221.892 42.065 222.497 41.975 223.137 41.975ZM222.807 48.98C223.357 48.98 223.832 48.86 224.232 48.62C224.632 48.37 224.922 48.02 225.102 47.57V46.46H222.882C221.662 46.46 221.052 46.87 221.052 47.69C221.052 48.09 221.207 48.405 221.517 48.635C221.827 48.865 222.257 48.98 222.807 48.98ZM233.35 41.975C234.12 41.975 234.81 42.145 235.42 42.485C236.03 42.825 236.505 43.3 236.845 43.91C237.195 44.52 237.37 45.225 237.37 46.025C237.37 46.825 237.195 47.535 236.845 48.155C236.505 48.765 236.03 49.24 235.42 49.58C234.81 49.92 234.12 50.09 233.35 50.09C232.78 50.09 232.255 49.98 231.775 49.76C231.305 49.54 230.905 49.22 230.575 48.8V52.91H229.135V42.05H230.515V43.31C230.835 42.87 231.24 42.54 231.73 42.32C232.22 42.09 232.76 41.975 233.35 41.975ZM233.23 48.83C233.74 48.83 234.195 48.715 234.595 48.485C235.005 48.245 235.325 47.915 235.555 47.495C235.795 47.065 235.915 46.575 235.915 46.025C235.915 45.475 235.795 44.99 235.555 44.57C235.325 44.14 235.005 43.81 234.595 43.58C234.195 43.35 233.74 43.235 233.23 43.235C232.73 43.235 232.275 43.355 231.865 43.595C231.465 43.825 231.145 44.15 230.905 44.57C230.675 44.99 230.56 45.475 230.56 46.025C230.56 46.575 230.675 47.065 230.905 47.495C231.135 47.915 231.455 48.245 231.865 48.485C232.275 48.715 232.73 48.83 233.23 48.83ZM246.647 46.07C246.647 46.18 246.637 46.325 246.617 46.505H240.167C240.257 47.205 240.562 47.77 241.082 48.2C241.612 48.62 242.267 48.83 243.047 48.83C243.997 48.83 244.762 48.51 245.342 47.87L246.137 48.8C245.777 49.22 245.327 49.54 244.787 49.76C244.257 49.98 243.662 50.09 243.002 50.09C242.162 50.09 241.417 49.92 240.767 49.58C240.117 49.23 239.612 48.745 239.252 48.125C238.902 47.505 238.727 46.805 238.727 46.025C238.727 45.255 238.897 44.56 239.237 43.94C239.587 43.32 240.062 42.84 240.662 42.5C241.272 42.15 241.957 41.975 242.717 41.975C243.477 41.975 244.152 42.15 244.742 42.5C245.342 42.84 245.807 43.32 246.137 43.94C246.477 44.56 246.647 45.27 246.647 46.07ZM242.717 43.19C242.027 43.19 241.447 43.4 240.977 43.82C240.517 44.24 240.247 44.79 240.167 45.47H245.267C245.187 44.8 244.912 44.255 244.442 43.835C243.982 43.405 243.407 43.19 242.717 43.19ZM254.731 43.31H250.321V50H248.881V42.05H254.731V43.31ZM256.205 42.05H257.645V47.84L262.52 42.05H263.825V50H262.385V44.21L257.525 50H256.205V42.05ZM270.085 50.09C269.275 50.09 268.55 49.915 267.91 49.565C267.28 49.215 266.785 48.735 266.425 48.125C266.065 47.505 265.885 46.805 265.885 46.025C265.885 45.245 266.065 44.55 266.425 43.94C266.785 43.32 267.28 42.84 267.91 42.5C268.55 42.15 269.275 41.975 270.085 41.975C270.805 41.975 271.445 42.12 272.005 42.41C272.575 42.7 273.015 43.12 273.325 43.67L272.23 44.375C271.98 43.995 271.67 43.71 271.3 43.52C270.93 43.33 270.52 43.235 270.07 43.235C269.55 43.235 269.08 43.35 268.66 43.58C268.25 43.81 267.925 44.14 267.685 44.57C267.455 44.99 267.34 45.475 267.34 46.025C267.34 46.585 267.455 47.08 267.685 47.51C267.925 47.93 268.25 48.255 268.66 48.485C269.08 48.715 269.55 48.83 270.07 48.83C270.52 48.83 270.93 48.735 271.3 48.545C271.67 48.355 271.98 48.07 272.23 47.69L273.325 48.38C273.015 48.93 272.575 49.355 272.005 49.655C271.445 49.945 270.805 50.09 270.085 50.09ZM281.012 43.31H278.102V50H276.662V43.31H273.752V42.05H281.012V43.31ZM286.699 41.975C287.469 41.975 288.159 42.145 288.769 42.485C289.379 42.825 289.854 43.3 290.194 43.91C290.544 44.52 290.719 45.225 290.719 46.025C290.719 46.825 290.544 47.535 290.194 48.155C289.854 48.765 289.379 49.24 288.769 49.58C288.159 49.92 287.469 50.09 286.699 50.09C286.129 50.09 285.604 49.98 285.124 49.76C284.654 49.54 284.254 49.22 283.924 48.8V52.91H282.484V42.05H283.864V43.31C284.184 42.87 284.589 42.54 285.079 42.32C285.569 42.09 286.109 41.975 286.699 41.975ZM286.579 48.83C287.089 48.83 287.544 48.715 287.944 48.485C288.354 48.245 288.674 47.915 288.904 47.495C289.144 47.065 289.264 46.575 289.264 46.025C289.264 45.475 289.144 44.99 288.904 44.57C288.674 44.14 288.354 43.81 287.944 43.58C287.544 43.35 287.089 43.235 286.579 43.235C286.079 43.235 285.624 43.355 285.214 43.595C284.814 43.825 284.494 44.15 284.254 44.57C284.024 44.99 283.909 45.475 283.909 46.025C283.909 46.575 284.024 47.065 284.254 47.495C284.484 47.915 284.804 48.245 285.214 48.485C285.624 48.715 286.079 48.83 286.579 48.83ZM292.812 42.05H294.252V47.84L299.127 42.05H300.432V50H298.992V44.21L294.132 50H292.812V42.05ZM307.442 41.975C308.212 41.975 308.902 42.145 309.512 42.485C310.122 42.825 310.597 43.3 310.937 43.91C311.287 44.52 311.462 45.225 311.462 46.025C311.462 46.825 311.287 47.535 310.937 48.155C310.597 48.765 310.122 49.24 309.512 49.58C308.902 49.92 308.212 50.09 307.442 50.09C306.872 50.09 306.347 49.98 305.867 49.76C305.397 49.54 304.997 49.22 304.667 48.8V52.91H303.227V42.05H304.607V43.31C304.927 42.87 305.332 42.54 305.822 42.32C306.312 42.09 306.852 41.975 307.442 41.975ZM307.322 48.83C307.832 48.83 308.287 48.715 308.687 48.485C309.097 48.245 309.417 47.915 309.647 47.495C309.887 47.065 310.007 46.575 310.007 46.025C310.007 45.475 309.887 44.99 309.647 44.57C309.417 44.14 309.097 43.81 308.687 43.58C308.287 43.35 307.832 43.235 307.322 43.235C306.822 43.235 306.367 43.355 305.957 43.595C305.557 43.825 305.237 44.15 304.997 44.57C304.767 44.99 304.652 45.475 304.652 46.025C304.652 46.575 304.767 47.065 304.997 47.495C305.227 47.915 305.547 48.245 305.957 48.485C306.367 48.715 306.822 48.83 307.322 48.83ZM316.959 50.09C316.169 50.09 315.459 49.915 314.829 49.565C314.199 49.215 313.704 48.735 313.344 48.125C312.994 47.505 312.819 46.805 312.819 46.025C312.819 45.245 312.994 44.55 313.344 43.94C313.704 43.32 314.199 42.84 314.829 42.5C315.459 42.15 316.169 41.975 316.959 41.975C317.749 41.975 318.454 42.15 319.074 42.5C319.704 42.84 320.194 43.32 320.544 43.94C320.904 44.55 321.084 45.245 321.084 46.025C321.084 46.805 320.904 47.505 320.544 48.125C320.194 48.735 319.704 49.215 319.074 49.565C318.454 49.915 317.749 50.09 316.959 50.09ZM316.959 48.83C317.469 48.83 317.924 48.715 318.324 48.485C318.734 48.245 319.054 47.915 319.284 47.495C319.514 47.065 319.629 46.575 319.629 46.025C319.629 45.475 319.514 44.99 319.284 44.57C319.054 44.14 318.734 43.81 318.324 43.58C317.924 43.35 317.469 43.235 316.959 43.235C316.449 43.235 315.989 43.35 315.579 43.58C315.179 43.81 314.859 44.14 314.619 44.57C314.389 44.99 314.274 45.475 314.274 46.025C314.274 46.575 314.389 47.065 314.619 47.495C314.859 47.915 315.179 48.245 315.579 48.485C315.989 48.715 316.449 48.83 316.959 48.83ZM328.578 45.875C329.608 46.135 330.123 46.78 330.123 47.81C330.123 48.51 329.858 49.05 329.328 49.43C328.808 49.81 328.028 50 326.988 50H323.163V42.05H326.853C327.793 42.05 328.528 42.23 329.058 42.59C329.588 42.94 329.853 43.44 329.853 44.09C329.853 44.51 329.738 44.875 329.508 45.185C329.288 45.485 328.978 45.715 328.578 45.875ZM324.573 45.47H326.733C327.283 45.47 327.698 45.37 327.978 45.17C328.268 44.97 328.413 44.68 328.413 44.3C328.413 43.54 327.853 43.16 326.733 43.16H324.573V45.47ZM326.883 48.89C327.483 48.89 327.933 48.795 328.233 48.605C328.533 48.415 328.683 48.12 328.683 47.72C328.683 47.31 328.543 47.005 328.263 46.805C327.993 46.605 327.563 46.505 326.973 46.505H324.573V48.89H326.883ZM335.212 41.975C336.312 41.975 337.152 42.245 337.732 42.785C338.322 43.325 338.617 44.13 338.617 45.2V50H337.252V48.95C337.012 49.32 336.667 49.605 336.217 49.805C335.777 49.995 335.252 50.09 334.642 50.09C333.752 50.09 333.037 49.875 332.497 49.445C331.967 49.015 331.702 48.45 331.702 47.75C331.702 47.05 331.957 46.49 332.467 46.07C332.977 45.64 333.787 45.425 334.897 45.425H337.177V45.14C337.177 44.52 336.997 44.045 336.637 43.715C336.277 43.385 335.747 43.22 335.047 43.22C334.577 43.22 334.117 43.3 333.667 43.46C333.217 43.61 332.837 43.815 332.527 44.075L331.927 42.995C332.337 42.665 332.827 42.415 333.397 42.245C333.967 42.065 334.572 41.975 335.212 41.975ZM334.882 48.98C335.432 48.98 335.907 48.86 336.307 48.62C336.707 48.37 336.997 48.02 337.177 47.57V46.46H334.957C333.737 46.46 333.127 46.87 333.127 47.69C333.127 48.09 333.282 48.405 333.592 48.635C333.902 48.865 334.332 48.98 334.882 48.98ZM347.135 43.31H344.225V50H342.785V43.31H339.875V42.05H347.135V43.31ZM352.282 44.75C353.292 44.76 354.062 44.99 354.592 45.44C355.122 45.89 355.387 46.525 355.387 47.345C355.387 48.205 355.097 48.87 354.517 49.34C353.947 49.8 353.127 50.025 352.057 50.015L348.607 50V42.05H350.047V44.735L352.282 44.75ZM351.937 48.92C352.587 48.93 353.077 48.8 353.407 48.53C353.747 48.26 353.917 47.86 353.917 47.33C353.917 46.81 353.752 46.43 353.422 46.19C353.102 45.95 352.607 45.825 351.937 45.815L350.047 45.785V48.905L351.937 48.92ZM364.354 46.64H362.704V50H361.264V42.05H362.704V45.41H364.384L366.964 42.05H368.509L365.494 45.875L368.719 50H367.024L364.354 46.64ZM377.053 42.05V50H375.613V43.31H372.193L372.103 45.08C372.053 46.15 371.958 47.045 371.818 47.765C371.678 48.475 371.448 49.045 371.128 49.475C370.808 49.905 370.363 50.12 369.793 50.12C369.533 50.12 369.238 50.075 368.908 49.985L368.998 48.77C369.128 48.8 369.248 48.815 369.358 48.815C369.758 48.815 370.058 48.64 370.258 48.29C370.458 47.94 370.588 47.525 370.648 47.045C370.708 46.565 370.763 45.88 370.813 44.99L370.948 42.05H377.053ZM379.838 42.05H381.278V47.84L386.153 42.05H387.458V50H386.018V44.21L381.158 50H379.838V42.05ZM397.438 46.07C397.438 46.18 397.428 46.325 397.408 46.505H390.958C391.048 47.205 391.353 47.77 391.873 48.2C392.403 48.62 393.058 48.83 393.838 48.83C394.788 48.83 395.553 48.51 396.133 47.87L396.928 48.8C396.568 49.22 396.118 49.54 395.578 49.76C395.048 49.98 394.453 50.09 393.793 50.09C392.953 50.09 392.208 49.92 391.558 49.58C390.908 49.23 390.403 48.745 390.043 48.125C389.693 47.505 389.518 46.805 389.518 46.025C389.518 45.255 389.688 44.56 390.028 43.94C390.378 43.32 390.853 42.84 391.453 42.5C392.063 42.15 392.748 41.975 393.508 41.975C394.268 41.975 394.943 42.15 395.533 42.5C396.133 42.84 396.598 43.32 396.928 43.94C397.268 44.56 397.438 45.27 397.438 46.07ZM393.508 43.19C392.818 43.19 392.238 43.4 391.768 43.82C391.308 44.24 391.038 44.79 390.958 45.47H396.058C395.978 44.8 395.703 44.255 395.233 43.835C394.773 43.405 394.198 43.19 393.508 43.19ZM399.672 42.05H401.112V45.425H405.642V42.05H407.082V50H405.642V46.67H401.112V50H399.672V42.05ZM415.807 43.31H412.897V50H411.457V43.31H408.547V42.05H415.807V43.31ZM420.114 41.975C421.214 41.975 422.054 42.245 422.634 42.785C423.224 43.325 423.519 44.13 423.519 45.2V50H422.154V48.95C421.914 49.32 421.569 49.605 421.119 49.805C420.679 49.995 420.154 50.09 419.544 50.09C418.654 50.09 417.939 49.875 417.399 49.445C416.869 49.015 416.604 48.45 416.604 47.75C416.604 47.05 416.859 46.49 417.369 46.07C417.879 45.64 418.689 45.425 419.799 45.425H422.079V45.14C422.079 44.52 421.899 44.045 421.539 43.715C421.179 43.385 420.649 43.22 419.949 43.22C419.479 43.22 419.019 43.3 418.569 43.46C418.119 43.61 417.739 43.815 417.429 44.075L416.829 42.995C417.239 42.665 417.729 42.415 418.299 42.245C418.869 42.065 419.474 41.975 420.114 41.975ZM419.784 48.98C420.334 48.98 420.809 48.86 421.209 48.62C421.609 48.37 421.899 48.02 422.079 47.57V46.46H419.859C418.639 46.46 418.029 46.87 418.029 47.69C418.029 48.09 418.184 48.405 418.494 48.635C418.804 48.865 419.234 48.98 419.784 48.98Z" fill="white"/>
</g>
<defs>
<filter id="filter0_d_1:64" x="37.8994" y="40.0764" width="453.101" height="353.924" filterUnits="userSpaceOnUse" color-interpolation-filters="sRGB">
<feFlood flood-opacity="0" result="BackgroundImageFix"/>
<feColorMatrix in="SourceAlpha" type="matrix" values="0 0 0 0 0 0 0 0 0 0 0 0 0 0 0 0 0 0 127 0" result="hardAlpha"/>
<feOffset dy="4"/>
<feGaussianBlur stdDeviation="2"/>
<feComposite in2="hardAlpha" operator="out"/>
<feColorMatrix type="matrix" values="0 0 0 0 0 0 0 0 0 0 0 0 0 0 0 0 0 0 0.25 0"/>
<feBlend mode="normal" in2="BackgroundImageFix" result="effect1_dropShadow_1:64"/>
<feBlend mode="normal" in="SourceGraphic" in2="effect1_dropShadow_1:64" result="shape"/>
</filter>
<filter id="filter1_d_1:64" x="43.406" y="35.6598" width="444.827" height="352.203" filterUnits="userSpaceOnUse" color-interpolation-filters="sRGB">
<feFlood flood-opacity="0" result="BackgroundImageFix"/>
<feColorMatrix in="SourceAlpha" type="matrix" values="0 0 0 0 0 0 0 0 0 0 0 0 0 0 0 0 0 0 127 0" result="hardAlpha"/>
<feOffset/>
<feGaussianBlur stdDeviation="2"/>
<feComposite in2="hardAlpha" operator="out"/>
<feColorMatrix type="matrix" values="0 0 0 0 0 0 0 0 0 0 0 0 0 0 0 0 0 0 0.25 0"/>
<feBlend mode="normal" in2="BackgroundImageFix" result="effect1_dropShadow_1:64"/>
<feBlend mode="normal" in="SourceGraphic" in2="effect1_dropShadow_1:64" result="shape"/>
</filter>
<filter id="filter2_d_1:64" x="21" y="356" width="49" height="49" filterUnits="userSpaceOnUse" color-interpolation-filters="sRGB">
<feFlood flood-opacity="0" result="BackgroundImageFix"/>
<feColorMatrix in="SourceAlpha" type="matrix" values="0 0 0 0 0 0 0 0 0 0 0 0 0 0 0 0 0 0 127 0" result="hardAlpha"/>
<feOffset dy="-2"/>
<feGaussianBlur stdDeviation="2"/>
<feComposite in2="hardAlpha" operator="out"/>
<feColorMatrix type="matrix" values="0 0 0 0 0 0 0 0 0 0 0 0 0 0 0 0 0 0 0.25 0"/>
<feBlend mode="normal" in2="BackgroundImageFix" result="effect1_dropShadow_1:64"/>
<feBlend mode="normal" in="SourceGraphic" in2="effect1_dropShadow_1:64" result="shape"/>
</filter>
<filter id="filter3_d_1:64" x="240" y="194" width="49" height="49" filterUnits="userSpaceOnUse" color-interpolation-filters="sRGB">
<feFlood flood-opacity="0" result="BackgroundImageFix"/>
<feColorMatrix in="SourceAlpha" type="matrix" values="0 0 0 0 0 0 0 0 0 0 0 0 0 0 0 0 0 0 127 0" result="hardAlpha"/>
<feOffset dy="4"/>
<feGaussianBlur stdDeviation="2"/>
<feComposite in2="hardAlpha" operator="out"/>
<feColorMatrix type="matrix" values="0 0 0 0 0 0 0 0 0 0 0 0 0 0 0 0 0 0 0.25 0"/>
<feBlend mode="normal" in2="BackgroundImageFix" result="effect1_dropShadow_1:64"/>
<feBlend mode="normal" in="SourceGraphic" in2="effect1_dropShadow_1:64" result="shape"/>
</filter>
<filter id="filter4_d_1:64" x="459" y="25" width="49" height="49" filterUnits="userSpaceOnUse" color-interpolation-filters="sRGB">
<feFlood flood-opacity="0" result="BackgroundImageFix"/>
<feColorMatrix in="SourceAlpha" type="matrix" values="0 0 0 0 0 0 0 0 0 0 0 0 0 0 0 0 0 0 127 0" result="hardAlpha"/>
<feOffset dy="4"/>
<feGaussianBlur stdDeviation="2"/>
<feComposite in2="hardAlpha" operator="out"/>
<feColorMatrix type="matrix" values="0 0 0 0 0 0 0 0 0 0 0 0 0 0 0 0 0 0 0.25 0"/>
<feBlend mode="normal" in2="BackgroundImageFix" result="effect1_dropShadow_1:64"/>
<feBlend mode="normal" in="SourceGraphic" in2="effect1_dropShadow_1:64" result="shape"/>
</filter>
<filter id="filter5_d_1:64" x="78" y="371" width="124" height="38" filterUnits="userSpaceOnUse" color-interpolation-filters="sRGB">
<feFlood flood-opacity="0" result="BackgroundImageFix"/>
<feColorMatrix in="SourceAlpha" type="matrix" values="0 0 0 0 0 0 0 0 0 0 0 0 0 0 0 0 0 0 127 0" result="hardAlpha"/>
<feOffset dy="4"/>
<feGaussianBlur stdDeviation="2"/>
<feComposite in2="hardAlpha" operator="out"/>
<feColorMatrix type="matrix" values="0 0 0 0 0 0 0 0 0 0 0 0 0 0 0 0 0 0 0.25 0"/>
<feBlend mode="normal" in2="BackgroundImageFix" result="effect1_dropShadow_1:64"/>
<feBlend mode="normal" in="SourceGraphic" in2="effect1_dropShadow_1:64" result="shape"/>
</filter>
<filter id="filter6_d_1:64" x="297" y="202" width="197" height="38" filterUnits="userSpaceOnUse" color-interpolation-filters="sRGB">
<feFlood flood-opacity="0" result="BackgroundImageFix"/>
<feColorMatrix in="SourceAlpha" type="matrix" values="0 0 0 0 0 0 0 0 0 0 0 0 0 0 0 0 0 0 127 0" result="hardAlpha"/>
<feOffset dy="4"/>
<feGaussianBlur stdDeviation="2"/>
<feComposite in2="hardAlpha" operator="out"/>
<feColorMatrix type="matrix" values="0 0 0 0 0 0 0 0 0 0 0 0 0 0 0 0 0 0 0.25 0"/>
<feBlend mode="normal" in2="BackgroundImageFix" result="effect1_dropShadow_1:64"/>
<feBlend mode="normal" in="SourceGraphic" in2="effect1_dropShadow_1:64" result="shape"/>
</filter>
<filter id="filter7_d_1:64" x="195" y="30" width="245" height="38" filterUnits="userSpaceOnUse" color-interpolation-filters="sRGB">
<feFlood flood-opacity="0" result="BackgroundImageFix"/>
<feColorMatrix in="SourceAlpha" type="matrix" values="0 0 0 0 0 0 0 0 0 0 0 0 0 0 0 0 0 0 127 0" result="hardAlpha"/>
<feOffset dy="4"/>
<feGaussianBlur stdDeviation="2"/>
<feComposite in2="hardAlpha" operator="out"/>
<feColorMatrix type="matrix" values="0 0 0 0 0 0 0 0 0 0 0 0 0 0 0 0 0 0 0.25 0"/>
<feBlend mode="normal" in2="BackgroundImageFix" result="effect1_dropShadow_1:64"/>
<feBlend mode="normal" in="SourceGraphic" in2="effect1_dropShadow_1:64" result="shape"/>
</filter>
</defs>
</svg>
