<svg width="36" height="36" viewBox="0 0 36 36" fill="none" xmlns="http://www.w3.org/2000/svg">
<g clip-path="url(#clip0)">
<path d="M5.82985 22.2229H10.7638C12.5259 22.2229 13.6713 20.3726 12.8783 18.8749C12.3497 17.8176 12.7902 16.496 13.7594 15.8793C15.9621 14.5577 20.6317 14.4696 22.9224 15.8793C23.9797 16.4079 24.3322 17.8176 23.8035 18.8749C23.0105 20.3727 24.1559 22.2229 25.918 22.2229L30.852 22.2229C32.1736 22.1348 33.2309 21.0775 33.2309 19.844L33.2309 16.496C33.1427 13.0599 26.6229 10.2405 18.3409 10.2405C10.0589 10.2405 3.45095 12.9717 3.45098 16.496L3.45098 19.844C3.53905 21.1657 4.59633 22.2229 5.82985 22.2229Z" fill="white"/>
</g>
<defs>
<clipPath id="clip0">
<rect width="25" height="25" fill="white" transform="translate(36 18) rotate(135)"/>
</clipPath>
</defs>
</svg>
