<svg width="26" height="26" viewBox="0 0 26 26" fill="none" xmlns="http://www.w3.org/2000/svg">
<path d="M21.32 13.4282C21.32 12.9082 20.9223 12.5106 20.4023 12.5106C19.8823 12.5106 19.4847 12.9082 19.4847 13.4282C19.4847 17.007 16.5788 19.9129 13 19.9129C9.42117 19.9129 6.51529 17.007 6.51529 13.4282C6.51529 12.9082 6.11764 12.5106 5.59764 12.5106C5.07764 12.5106 4.67999 12.9082 4.67999 13.4282C4.67999 17.68 7.86117 21.2588 12.0823 21.7176V24.1647H8.74823C8.22823 24.1647 7.83058 24.5623 7.83058 25.0823C7.83058 25.6023 8.22823 26 8.74823 26H17.2518C17.7718 26 18.1694 25.6023 18.1694 25.0823C18.1694 24.5623 17.7718 24.1647 17.2518 24.1647H13.9176V21.7176C18.1388 21.2588 21.32 17.68 21.32 13.4282Z" fill="white"/>
<path d="M13 0C10.1859 0 7.89175 2.29412 7.89175 5.10823V13.3976C7.89175 16.2424 10.1859 18.5059 13 18.5365C15.8141 18.5365 18.1082 16.2424 18.1082 13.4282V5.10823C18.1082 2.29412 15.8141 0 13 0Z" fill="white"/>
</svg>
