<svg width="26" height="21" viewBox="0 0 26 21" fill="none" xmlns="http://www.w3.org/2000/svg">
<path d="M13.0078 18.4319C13.0078 18.8899 12.7432 19.306 12.329 19.5002C12.1689 19.576 11.9973 19.6126 11.8268 19.6126C11.5569 19.6126 11.2895 19.5198 11.0734 19.3407L4.61856 13.9919H1.1807C0.52873 13.9924 0 13.4634 0 12.8115V8.10738C0 7.45513 0.52873 6.9264 1.1807 6.9264H4.61884L11.0737 1.57762C11.4264 1.28531 11.9154 1.22299 12.3293 1.41861C12.7432 1.61283 13.0081 2.02922 13.0081 2.48696L13.0078 18.4319ZM17.5453 16.5869C17.5166 16.5889 17.4889 16.59 17.4604 16.59C17.1485 16.59 16.8478 16.4667 16.6257 16.2443L16.4678 16.0858C16.0536 15.6725 16.005 15.0178 16.3537 14.5477C17.2379 13.3556 17.7046 11.9423 17.7046 10.4598C17.7046 8.86526 17.1748 7.36961 16.1721 6.13442C15.7904 5.66493 15.8256 4.98306 16.2534 4.5555L16.411 4.3976C16.6469 4.16174 16.963 4.03319 17.305 4.05359C17.6381 4.07036 17.9492 4.22713 18.1604 4.48535C19.5513 6.18724 20.286 8.25353 20.286 10.4601C20.286 12.5152 19.6362 14.4714 18.4066 16.1163C18.2012 16.3904 17.8871 16.5626 17.5453 16.5869ZM22.4269 20.2358C22.2134 20.4881 21.9046 20.6396 21.574 20.6535C21.5578 20.6541 21.5413 20.6547 21.5245 20.6547C21.2118 20.6547 20.9117 20.5311 20.6895 20.309L20.5344 20.1539C20.101 19.7207 20.0716 19.0279 20.4657 18.559C22.3699 16.2943 23.4189 13.4182 23.4189 10.4598C23.4189 7.38275 22.2958 4.42052 20.2572 2.11892C19.8439 1.65167 19.8648 0.944369 20.3047 0.502829L20.4595 0.347731C20.6892 0.116901 20.9877 -0.0102513 21.33 0.000647452C21.655 0.00986949 21.9624 0.15351 22.1784 0.396636C24.6427 3.17107 26 6.74531 26 10.4598C26.0006 14.0338 24.7315 17.5058 22.4269 20.2358Z" fill="white"/>
</svg>
