<svg width="20" height="20" viewBox="0 0 20 20" fill="none" xmlns="http://www.w3.org/2000/svg">
<path d="M14.3586 10.0355C13.9742 9.85281 13.5821 9.69543 13.183 9.56359C14.4754 8.59359 15.3129 7.04902 15.3129 5.3125C15.3129 2.3832 12.9297 0 10.0004 0C7.07102 0 4.68786 2.3832 4.68786 5.3125C4.68786 7.05094 5.52724 8.59703 6.82196 9.56684C5.63571 9.95738 4.52263 10.5651 3.54841 11.3664C1.76201 12.8358 0.519936 14.8854 0.0510695 17.1376C-0.0958835 17.8433 0.080171 18.5682 0.533999 19.1262C0.9856 19.6815 1.65525 20 2.37118 20H11.9925C12.424 20 12.7738 19.6502 12.7738 19.2188C12.7738 18.7873 12.424 18.4375 11.9925 18.4375H2.37118C2.03767 18.4375 1.83646 18.2513 1.74622 18.1404C1.5904 17.9488 1.53009 17.6994 1.58076 17.4561C2.3915 13.5617 5.82649 10.717 9.79325 10.621C9.86196 10.6237 9.93098 10.625 10.0004 10.625C10.0704 10.625 10.1401 10.6236 10.2095 10.6209C11.4251 10.6495 12.5943 10.9269 13.6878 11.4467C14.0775 11.6319 14.5435 11.4662 14.7288 11.0765C14.914 10.6868 14.7483 10.2207 14.3586 10.0355ZM10.1909 9.0577C10.1275 9.05656 10.064 9.05598 10.0004 9.05598C9.93731 9.05598 9.87426 9.0566 9.81129 9.05777C7.83102 8.95898 6.25036 7.31687 6.25036 5.3125C6.25036 3.24473 7.93259 1.5625 10.0004 1.5625C12.0681 1.5625 13.7504 3.24473 13.7504 5.3125C13.7504 7.31637 12.1705 8.95816 10.1909 9.0577Z" fill="#645A81"/>
<path d="M19.2188 15.5078H17.0703V13.3594C17.0703 12.9279 16.7205 12.5781 16.2891 12.5781C15.8576 12.5781 15.5078 12.9279 15.5078 13.3594V15.5078H13.3594C12.9279 15.5078 12.5781 15.8576 12.5781 16.2891C12.5781 16.7205 12.9279 17.0703 13.3594 17.0703H15.5078V19.2188C15.5078 19.6502 15.8576 20 16.2891 20C16.7205 20 17.0703 19.6502 17.0703 19.2188V17.0703H19.2188C19.6502 17.0703 20 16.7205 20 16.2891C20 15.8576 19.6502 15.5078 19.2188 15.5078Z" fill="#645A81"/>
</svg>
