<svg width="30" height="30" viewBox="0 0 30 30" fill="none" xmlns="http://www.w3.org/2000/svg">
<path d="M29.1211 3.53027H0.878906C0.393516 3.53027 0 3.92379 0 4.40918V9.70459C0 10.19 0.393516 10.5835 0.878906 10.5835H1.76514V25.5908C1.76514 26.0762 2.15865 26.4697 2.64404 26.4697H27.356C27.8413 26.4697 28.2349 26.0762 28.2349 25.5908V10.5835H29.1211C29.6065 10.5835 30 10.19 30 9.70459V4.40918C30 3.92379 29.6065 3.53027 29.1211 3.53027ZM26.4771 24.7119H3.52295V10.5835H26.4771V24.7119ZM28.2422 8.82568H1.75781V5.28809H28.2422V8.82568Z" fill="white"/>
<path d="M13.2349 17.644H16.7651C18.2231 17.644 19.4092 16.4579 19.4092 15C19.4092 13.5421 18.2231 12.356 16.7651 12.356H13.2349C11.7769 12.356 10.5908 13.5421 10.5908 15C10.5908 16.4579 11.7769 17.644 13.2349 17.644ZM13.2349 14.1138H16.7651C17.2538 14.1138 17.6514 14.5113 17.6514 15C17.6514 15.4887 17.2538 15.8862 16.7651 15.8862H13.2349C12.7462 15.8862 12.3486 15.4887 12.3486 15C12.3486 14.5113 12.7462 14.1138 13.2349 14.1138Z" fill="white"/>
</svg>
