<svg width="100" height="100" viewBox="0 0 100 100" fill="none" xmlns="http://www.w3.org/2000/svg">
<g clip-path="url(#clip0)">
<path d="M72.4139 98.2758H27.5861C25.6811 98.2758 24.1379 96.7326 24.1379 94.8275C24.1379 92.9224 25.6811 91.3793 27.5861 91.3793H72.4137C74.3188 91.3793 75.8619 92.9224 75.8619 94.8275C75.8621 96.7328 74.319 98.2758 72.4139 98.2758Z" fill="#E7ECED"/>
<path d="M58.6207 77.5861V74.1379H41.3793V77.5861C41.3793 85.2103 38.6586 91.3793 31.0344 91.3793H68.9654C61.3414 91.3793 58.6207 85.2103 58.6207 77.5861Z" fill="#AFB6BB"/>
<path d="M94.8258 77.5862H5.17422C2.31719 77.5862 0 75.269 0 72.4121V62.069H100V72.4121C100 75.269 97.6828 77.5862 94.8258 77.5862Z" fill="#E7ECED"/>
<path d="M55.1725 72.4139H44.8275C43.8758 72.4139 43.1033 71.6414 43.1033 70.6897C43.1033 69.7379 43.8758 68.9655 44.8275 68.9655H55.1725C56.1242 68.9655 56.8967 69.7379 56.8967 70.6897C56.8967 71.6414 56.1242 72.4139 55.1725 72.4139Z" fill="#AFB6BB"/>
<g filter="url(#filter0_d)">
<path d="M86.2068 1.72419H13.7932H5.17422C2.31719 1.72419 0 4.04138 0 6.89822V63.7931H13.7932H39.6553H60.3449H86.207H100V6.89822C100 4.04138 97.6828 1.724 94.8258 1.724H86.2068V1.72419Z" fill="#495D72"/>
</g>
<path d="M93.1035 8.62073H46.5518V63.7932H93.1035V8.62073Z" fill="#28384C"/>
<path d="M50 8.62073H6.89648V63.7932H50V8.62073Z" fill="#EBBA16"/>
<path d="M25.8604 58.6207C25.6018 58.6207 25.3379 58.5621 25.0897 58.4396C24.2379 58.0139 23.8932 56.9775 24.3189 56.1258L29.4914 45.781C29.9172 44.9293 30.9553 44.5846 31.8053 45.0103C32.657 45.4361 33.0018 46.4724 32.576 47.3242L27.4035 57.6689C27.1018 58.2725 26.4932 58.6207 25.8604 58.6207Z" fill="white"/>
<path d="M13.7932 53.4482C13.3518 53.4482 12.9104 53.2793 12.5742 52.9432C11.9 52.269 11.9 51.1793 12.5742 50.5053L17.7467 45.3328C18.4191 44.6586 19.5121 44.6586 20.1846 45.3328C20.8588 46.007 20.8588 47.0967 20.1846 47.7707L15.0121 52.9432C14.6758 53.2793 14.2346 53.4482 13.7932 53.4482Z" fill="white"/>
<path d="M18.9654 58.6207C18.524 58.6207 18.0826 58.4518 17.7465 58.1157L12.5742 52.9432C11.9 52.269 11.9 51.1793 12.5742 50.5053C13.2467 49.8311 14.3397 49.8311 15.0121 50.5053L20.1846 55.6778C20.8588 56.352 20.8588 57.4416 20.1846 58.1157C19.8482 58.4518 19.4068 58.6207 18.9654 58.6207Z" fill="white"/>
<path d="M43.1035 53.4482C42.6621 53.4482 42.2207 53.2793 41.8846 52.9432L36.7121 47.7707C36.0379 47.0965 36.0379 46.0068 36.7121 45.3328C37.3846 44.6586 38.4775 44.6586 39.15 45.3328L44.3225 50.5053C44.9967 51.1795 44.9967 52.2691 44.3225 52.9432C43.9861 53.2793 43.5449 53.4482 43.1035 53.4482Z" fill="white"/>
<path d="M37.9311 58.6207C37.4896 58.6207 37.0482 58.4518 36.7121 58.1157C36.0379 57.4414 36.0379 56.3518 36.7121 55.6778L41.8846 50.5053C42.557 49.8311 43.65 49.8311 44.3225 50.5053C44.9967 51.1795 44.9967 52.2692 44.3225 52.9432L39.15 58.1157C38.8139 58.4518 38.3725 58.6207 37.9311 58.6207Z" fill="white"/>
<path d="M29.3104 29.3103C28.3586 29.3103 27.5861 28.5379 27.5861 27.5861V15.5172C27.5861 14.5654 28.3586 13.793 29.3104 13.793C30.2621 13.793 31.0346 14.5654 31.0346 15.5172V27.5861C31.0346 28.5379 30.2621 29.3103 29.3104 29.3103Z" fill="white"/>
<path d="M29.3104 39.6551C28.3586 39.6551 27.5861 38.8826 27.5861 37.9309V34.4826C27.5861 33.5309 28.3586 32.7584 29.3104 32.7584C30.2621 32.7584 31.0346 33.5309 31.0346 34.4826V37.9309C31.0346 38.8828 30.2621 39.6551 29.3104 39.6551Z" fill="white"/>
<path d="M74.1379 17.2414H56.8965C55.9447 17.2414 55.1723 16.4689 55.1723 15.5172C55.1723 14.5654 55.9447 13.793 56.8965 13.793H74.1379C75.0896 13.793 75.8621 14.5654 75.8621 15.5172C75.8621 16.4689 75.0896 17.2414 74.1379 17.2414Z" fill="#DD352E"/>
<path d="M86.2068 17.2414H81.0344C80.0826 17.2414 79.3102 16.4689 79.3102 15.5172C79.3102 14.5654 80.0826 13.793 81.0344 13.793H86.2068C87.1586 13.793 87.9311 14.5654 87.9311 15.5172C87.9311 16.4689 87.1586 17.2414 86.2068 17.2414Z" fill="#366DB6"/>
<path d="M86.2068 24.1379H68.9654C68.0137 24.1379 67.2412 23.3654 67.2412 22.4137C67.2412 21.4619 68.0137 20.6895 68.9654 20.6895H86.2068C87.1586 20.6895 87.9311 21.4619 87.9311 22.4137C87.9311 23.3654 87.1586 24.1379 86.2068 24.1379Z" fill="#75348B"/>
<path d="M62.0689 24.1379H56.8965C55.9447 24.1379 55.1723 23.3654 55.1723 22.4137C55.1723 21.4619 55.9447 20.6895 56.8965 20.6895H62.0689C63.0207 20.6895 63.7932 21.4619 63.7932 22.4137C63.7932 23.3654 63.0207 24.1379 62.0689 24.1379Z" fill="#57ABC1"/>
<path d="M74.1379 31.0346H56.8965C55.9447 31.0346 55.1723 30.2622 55.1723 29.3104C55.1723 28.3586 55.9447 27.5862 56.8965 27.5862H74.1379C75.0896 27.5862 75.8621 28.3586 75.8621 29.3104C75.8621 30.2622 75.0896 31.0346 74.1379 31.0346Z" fill="#25AE88"/>
<path d="M86.2068 31.0346H81.0344C80.0826 31.0346 79.3102 30.2622 79.3102 29.3104C79.3102 28.3586 80.0826 27.5862 81.0344 27.5862H86.2068C87.1586 27.5862 87.9311 28.3586 87.9311 29.3104C87.9311 30.2622 87.1586 31.0346 86.2068 31.0346Z" fill="#F76363"/>
<path d="M86.2068 37.931H68.9654C68.0137 37.931 67.2412 37.1586 67.2412 36.2068C67.2412 35.2551 68.0137 34.4826 68.9654 34.4826H86.2068C87.1586 34.4826 87.9311 35.2551 87.9311 36.2068C87.9311 37.1586 87.1586 37.931 86.2068 37.931Z" fill="#BF5A45"/>
<path d="M62.0689 37.931H56.8965C55.9447 37.931 55.1723 37.1586 55.1723 36.2068C55.1723 35.2551 55.9447 34.4826 56.8965 34.4826H62.0689C63.0207 34.4826 63.7932 35.2551 63.7932 36.2068C63.7932 37.1586 63.0207 37.931 62.0689 37.931Z" fill="#F2ECBF"/>
<path d="M86.2068 58.6207H68.9654C68.0137 58.6207 67.2412 57.8482 67.2412 56.8965C67.2412 55.9447 68.0137 55.1722 68.9654 55.1722H86.2068C87.1586 55.1722 87.9311 55.9447 87.9311 56.8965C87.9311 57.8482 87.1586 58.6207 86.2068 58.6207Z" fill="#25AE88"/>
<path d="M62.0689 58.6207H56.8965C55.9447 58.6207 55.1723 57.8482 55.1723 56.8965C55.1723 55.9447 55.9447 55.1722 56.8965 55.1722H62.0689C63.0207 55.1722 63.7932 55.9447 63.7932 56.8965C63.7932 57.8482 63.0207 58.6207 62.0689 58.6207Z" fill="#DD352E"/>
<path d="M74.1379 44.8275H56.8965C55.9447 44.8275 55.1723 44.0551 55.1723 43.1033C55.1723 42.1516 55.9447 41.3791 56.8965 41.3791H74.1379C75.0896 41.3791 75.8621 42.1516 75.8621 43.1033C75.8621 44.0551 75.0896 44.8275 74.1379 44.8275Z" fill="#75348B"/>
<path d="M86.2068 44.8275H81.0344C80.0826 44.8275 79.3102 44.0551 79.3102 43.1033C79.3102 42.1516 80.0826 41.3791 81.0344 41.3791H86.2068C87.1586 41.3791 87.9311 42.1516 87.9311 43.1033C87.9311 44.0551 87.1586 44.8275 86.2068 44.8275Z" fill="#EBBA16"/>
<path d="M86.2068 51.7242H68.9654C68.0137 51.7242 67.2412 50.9517 67.2412 50C67.2412 49.0482 68.0137 48.2758 68.9654 48.2758H86.2068C87.1586 48.2758 87.9311 49.0482 87.9311 50C87.9311 50.9517 87.1586 51.7242 86.2068 51.7242Z" fill="#ED8A19"/>
<path d="M62.0689 51.7242H56.8965C55.9447 51.7242 55.1723 50.9517 55.1723 50C55.1723 49.0482 55.9447 48.2758 56.8965 48.2758H62.0689C63.0207 48.2758 63.7932 49.0482 63.7932 50C63.7932 50.9517 63.0207 51.7242 62.0689 51.7242Z" fill="#C5411E"/>
</g>
<defs>
<filter id="filter0_d" x="-4" y="1.724" width="108" height="70.0691" filterUnits="userSpaceOnUse" color-interpolation-filters="sRGB">
<feFlood flood-opacity="0" result="BackgroundImageFix"/>
<feColorMatrix in="SourceAlpha" type="matrix" values="0 0 0 0 0 0 0 0 0 0 0 0 0 0 0 0 0 0 127 0" result="hardAlpha"/>
<feOffset dy="4"/>
<feGaussianBlur stdDeviation="2"/>
<feComposite in2="hardAlpha" operator="out"/>
<feColorMatrix type="matrix" values="0 0 0 0 0 0 0 0 0 0 0 0 0 0 0 0 0 0 0.25 0"/>
<feBlend mode="normal" in2="BackgroundImageFix" result="effect1_dropShadow"/>
<feBlend mode="normal" in="SourceGraphic" in2="effect1_dropShadow" result="shape"/>
</filter>
<clipPath id="clip0">
<rect width="100" height="100" fill="white"/>
</clipPath>
</defs>
</svg>
