<svg width="100" height="100" viewBox="0 0 100 100" fill="none" xmlns="http://www.w3.org/2000/svg">
<g clip-path="url(#clip0)">
<g filter="url(#filter0_d)">
<path fill-rule="evenodd" clip-rule="evenodd" d="M86.0283 66.6C80.0359 67.5536 75.5289 71.3065 75.5289 75.7598V85.1562H96.5289V75.7598C96.5289 71.3065 92.0208 67.5536 86.0283 66.6Z" fill="#BDD377"/>
<path fill-rule="evenodd" clip-rule="evenodd" d="M62.0283 29.6C56.0359 30.6279 51.5289 34.6727 51.5289 39.4725V49.6H72.5289V39.4725C72.5289 34.6727 68.0208 30.6279 62.0283 29.6Z" fill="#BDD377"/>
<path fill-rule="evenodd" clip-rule="evenodd" d="M62.0049 66.6C56.0125 67.5536 51.5055 71.3065 51.5055 75.7598V85.1562H72.5055V75.7598C72.5055 71.3065 67.9973 67.5536 62.0049 66.6Z" fill="#FFBD50"/>
<path fill-rule="evenodd" clip-rule="evenodd" d="M38.0049 29.6C32.0125 30.6279 27.5055 34.6727 27.5055 39.4725V49.6H48.5055V39.4725C48.5055 34.6727 43.9973 30.6279 38.0049 29.6Z" fill="#FFBD50"/>
<path fill-rule="evenodd" clip-rule="evenodd" d="M74.0049 48.6C67.4417 49.6279 62.5055 53.6727 62.5055 58.4725V68.6H85.5055V58.4725C85.5055 53.6727 80.568 49.6279 74.0049 48.6Z" fill="#FFBD50"/>
<path fill-rule="evenodd" clip-rule="evenodd" d="M37.9815 66.6C31.989 67.5536 27.482 71.3065 27.482 75.7598V85.1562H48.482V75.7598C48.482 71.3065 43.9739 67.5536 37.9815 66.6Z" fill="#76C8D6"/>
<path fill-rule="evenodd" clip-rule="evenodd" d="M49.9814 48.6C43.4183 49.6279 38.482 53.6727 38.482 58.4725V68.6H61.482V58.4725C61.482 53.6727 56.5446 49.6279 49.9814 48.6Z" fill="#76C8D6"/>
<path fill-rule="evenodd" clip-rule="evenodd" d="M13.958 66.6C7.9656 67.5536 3.45859 71.3065 3.45859 75.7598V85.1562H24.4586V75.7598C24.4586 71.3065 19.9505 67.5536 13.958 66.6Z" fill="#F13D7C"/>
<path fill-rule="evenodd" clip-rule="evenodd" d="M25.958 48.6C19.3948 49.6279 14.4586 53.6727 14.4586 58.4725V68.6H37.4586V58.4725C37.4586 53.6727 32.5211 49.6279 25.958 48.6Z" fill="#F13D7C"/>
<path fill-rule="evenodd" clip-rule="evenodd" d="M37.6417 15.4335C34.6979 16.513 32.6417 18.9613 32.6417 21.8109C32.6417 24.6605 34.6979 27.1087 37.6417 28.1883C40.5855 27.1087 42.6417 24.6605 42.6417 21.8109C42.6417 18.9613 40.5855 16.513 37.6417 15.4335Z" fill="#F1DBC8"/>
<path fill-rule="evenodd" clip-rule="evenodd" d="M61.6651 15.4335C58.7213 16.513 56.6651 18.9613 56.6651 21.8109C56.6651 24.6605 58.7213 27.1087 61.6651 28.1883C64.609 27.1087 66.6651 24.6605 66.6651 21.8109C66.6651 18.9613 64.609 16.513 61.6651 15.4335Z" fill="#F1DBC8"/>
<path fill-rule="evenodd" clip-rule="evenodd" d="M25.63 34.2262C22.6861 35.3058 20.63 37.754 20.63 40.6044C20.63 43.4539 22.6861 45.9022 25.63 46.9818C28.5738 45.9022 30.63 43.4539 30.63 40.6044C30.63 37.7548 28.5738 35.3058 25.63 34.2262Z" fill="#F1DBC8"/>
<path fill-rule="evenodd" clip-rule="evenodd" d="M49.6534 34.2262C46.7096 35.3058 44.6534 37.754 44.6534 40.6044C44.6534 43.4539 46.7096 45.9022 49.6534 46.9818C52.5973 45.9022 54.6534 43.4539 54.6534 40.6044C54.6534 37.754 52.5973 35.3058 49.6534 34.2262Z" fill="#F1DBC8"/>
<path fill-rule="evenodd" clip-rule="evenodd" d="M73.6759 34.2262C70.733 35.3058 68.6768 37.7548 68.6768 40.6044C68.6768 43.4539 70.733 45.9022 73.6768 46.9818C76.6207 45.9022 78.6768 43.4539 78.6768 40.6044C78.6768 37.754 76.6207 35.3058 73.6759 34.2262Z" fill="#F1DBC8"/>
<path fill-rule="evenodd" clip-rule="evenodd" d="M13.6183 53.0189C10.6744 54.0985 8.61826 56.5468 8.61826 59.3963C8.61826 62.2459 10.6744 64.6949 13.6183 65.7745C16.5621 64.6949 18.6183 62.2459 18.6183 59.3963C18.6183 56.5468 16.5621 54.0985 13.6183 53.0189Z" fill="#F1DBC8"/>
<path fill-rule="evenodd" clip-rule="evenodd" d="M37.6414 53.0189C34.6978 54.0985 32.6409 56.5468 32.6409 59.3963C32.6409 62.2459 34.6978 64.6949 37.6414 65.7745C40.585 64.6949 42.6409 62.2459 42.6409 59.3963C42.6409 56.5468 40.585 54.0977 37.6414 53.0189Z" fill="#F1DBC8"/>
<path fill-rule="evenodd" clip-rule="evenodd" d="M61.6651 53.0189C58.7213 54.0977 56.6651 56.5468 56.6651 59.3963C56.6651 62.2459 58.7213 64.6949 61.6651 65.7745C64.609 64.6949 66.6651 62.2459 66.6651 59.3963C66.6651 56.5468 64.609 54.0985 61.6651 53.0189Z" fill="#F1DBC8"/>
<path fill-rule="evenodd" clip-rule="evenodd" d="M85.6883 53.0189C82.7447 54.0977 80.6878 56.5468 80.6878 59.3963C80.6878 62.2459 82.7447 64.6949 85.6883 65.7737C88.6318 64.6942 90.6878 62.2459 90.6878 59.3963C90.6878 56.5468 88.6318 54.0985 85.6883 53.0189Z" fill="#F1DBC8"/>
</g>
<path d="M84.4208 75.9415H84.3742C83.2962 75.9415 82.4211 76.8158 82.4211 77.8946C82.4211 78.9734 83.2962 79.8477 84.3742 79.8477H84.4208C85.4996 79.8477 86.3739 78.9734 86.3739 77.8946C86.3739 76.8158 85.4996 75.9415 84.4208 75.9415Z" fill="black"/>
<path d="M98.0469 87.1094C99.1257 87.1094 100 86.235 100 85.1562V77.8984C100 77.8969 100 77.8954 100 77.8938C100 77.8931 100 77.8915 100 77.89V75.7599C100 70.9549 96.9971 66.8404 92.7704 65.1878C94.0971 63.6276 94.9013 61.6058 94.9013 59.3964C94.9013 54.4777 90.9241 50.4761 86.0352 50.4761C86.0069 50.4761 85.9787 50.4784 85.9505 50.4784C84.6504 48.6053 82.84 47.1886 80.7701 46.3814C82.09 44.8235 82.8896 42.8062 82.8896 40.6036C82.8896 35.685 78.9124 31.6833 74.0234 31.6833C73.9952 31.6833 73.9677 31.6856 73.9395 31.6856C72.6387 29.8126 70.8282 28.3958 68.7584 27.5887C70.0783 26.0307 70.8778 24.0135 70.8778 21.8109C70.8778 16.8922 66.9006 12.8906 62.0117 12.8906C57.1228 12.8906 53.1456 16.8922 53.1456 21.8109C53.1456 24.0135 53.9444 26.0307 55.2643 27.5887C53.1944 28.3958 51.3847 29.8126 50.0839 31.6856C50.0557 31.6856 50.0282 31.6841 50 31.6841C49.9718 31.6841 49.9443 31.6856 49.9161 31.6856C48.6153 29.8126 46.8048 28.3958 44.735 27.5887C46.0548 26.0307 46.8544 24.0135 46.8544 21.8109C46.8544 16.8922 42.8772 12.8906 37.9883 12.8906C33.0994 12.8906 29.1214 16.8922 29.1214 21.8109C29.1214 24.0135 29.921 26.0307 31.2408 27.5887C29.171 28.3958 27.3605 29.8126 26.0605 31.6856C26.0323 31.6856 26.0048 31.6841 25.9766 31.6841C21.0876 31.6841 17.1104 35.6857 17.1104 40.6044C17.1104 42.807 17.9092 44.8235 19.2291 46.3821C17.16 47.1893 15.3496 48.6053 14.0488 50.4784C14.0205 50.4784 13.9931 50.4761 13.9648 50.4761C9.07593 50.4761 5.09872 54.4777 5.09872 59.3964C5.09872 61.6058 5.90286 63.6284 7.22961 65.1878C3.00293 66.8411 0 70.9549 0 75.7599V85.1562C0 86.235 0.874328 87.1094 1.95312 87.1094H98.0469ZM90.995 59.3964C90.995 62.1613 88.7703 64.4104 86.0352 64.4104C83.3 64.4104 81.0745 62.1613 81.0745 59.3964C81.0745 56.6315 83.3 54.3823 86.0352 54.3823C88.7703 54.3823 90.995 56.6315 90.995 59.3964ZM77.1683 59.3964C77.1683 61.6058 77.9724 63.6276 79.2999 65.1878C77.1439 66.0309 75.3059 67.5117 74.0234 69.4016C72.7409 67.5117 70.9023 66.0309 68.7469 65.1878C70.0737 63.6276 70.8778 61.6058 70.8778 59.3964C70.8778 56.0303 69.0147 53.0945 66.2712 51.5762C67.6231 50.2792 69.4237 49.5239 71.3348 49.5239H76.7113C78.6224 49.5239 80.423 50.2792 81.7749 51.5762C79.0321 53.0945 77.1683 56.0303 77.1683 59.3964ZM50 69.4016C48.7175 67.5117 46.8788 66.0309 44.7235 65.1878C46.0503 63.6284 46.8544 61.6058 46.8544 59.3964C46.8544 56.031 44.9913 53.0945 42.2485 51.5762C43.5997 50.2792 45.4002 49.5239 47.3114 49.5239H52.6878C54.599 49.5239 56.3995 50.2792 57.7515 51.5762C55.0087 53.0945 53.1448 56.031 53.1448 59.3964C53.1448 61.6058 53.949 63.6284 55.2765 65.1878C53.1204 66.0309 51.2825 67.5117 50 69.4016ZM33.0276 59.3964C33.0276 56.6315 35.2531 54.3823 37.9883 54.3823C40.7234 54.3823 42.9482 56.6315 42.9482 59.3964C42.9482 62.1613 40.7234 64.4104 37.9883 64.4104C35.2531 64.4104 33.0276 62.1613 33.0276 59.3964ZM50 35.5904C52.7351 35.5904 54.9599 37.8395 54.9599 40.6044C54.9599 43.3685 52.7351 45.6177 50 45.6177C47.2649 45.6177 45.0401 43.3685 45.0401 40.6044C45.0401 37.8395 47.2649 35.5904 50 35.5904ZM57.0511 59.3964C57.0511 56.6315 59.2766 54.3823 62.0117 54.3823C64.7469 54.3823 66.9716 56.6315 66.9716 59.3964C66.9716 62.1613 64.7469 64.4104 62.0117 64.4104C59.2766 64.4104 57.0511 62.1613 57.0511 59.3964ZM78.9833 40.6044C78.9833 43.3685 76.7586 45.6177 74.0234 45.6177C71.2883 45.6177 69.0636 43.3685 69.0636 40.6044C69.0636 37.8395 71.2883 35.5904 74.0234 35.5904C76.7586 35.5904 78.9833 37.8395 78.9833 40.6044ZM62.0117 16.7969C64.7469 16.7969 66.9716 19.046 66.9716 21.8109C66.9716 24.575 64.7469 26.825 62.0117 26.825C59.2766 26.825 57.0518 24.575 57.0518 21.8109C57.0518 19.046 59.2766 16.7969 62.0117 16.7969ZM59.3231 30.7312H64.6996C66.6107 30.7312 68.412 31.4865 69.7632 32.7835C67.0204 34.3018 65.1573 37.2375 65.1573 40.6044C65.1573 42.807 65.9561 44.8235 67.276 46.3821C65.2061 47.1893 63.3965 48.6053 62.0956 50.4784C62.0674 50.4784 62.0399 50.4761 62.0117 50.4761C61.9835 50.4761 61.956 50.4784 61.927 50.4784C60.627 48.6053 58.8165 47.1893 56.7467 46.3821C58.0666 44.8235 58.8661 42.807 58.8661 40.6044C58.8661 37.2375 57.003 34.3018 54.2595 32.7835C55.6114 31.4865 57.412 30.7312 59.3231 30.7312ZM37.9883 16.7969C40.7234 16.7969 42.9482 19.046 42.9482 21.8109C42.9482 24.575 40.7234 26.825 37.9883 26.825C35.2531 26.825 33.0276 24.575 33.0276 21.8109C33.0276 19.046 35.2531 16.7969 37.9883 16.7969ZM35.2997 30.7312H40.6761C42.5873 30.7312 44.3886 31.4865 45.7397 32.7835C42.997 34.3018 41.1339 37.2375 41.1339 40.6044C41.1339 42.807 41.9327 44.8235 43.2526 46.3821C41.1835 47.1893 39.373 48.6053 38.0722 50.4784C38.044 50.4784 38.0165 50.4761 37.9883 50.4761C37.9601 50.4761 37.9326 50.4784 37.9044 50.4784C36.6035 48.6053 34.7931 47.1893 32.724 46.3821C34.0439 44.8235 34.8427 42.807 34.8427 40.6044C34.8427 37.2375 32.9796 34.3018 30.2368 32.7835C31.588 31.4865 33.3885 30.7312 35.2997 30.7312ZM25.9766 35.5904C28.7117 35.5904 30.9364 37.8395 30.9364 40.6044C30.9364 43.3685 28.7117 45.6177 25.9766 45.6177C23.2414 45.6177 21.0167 43.3685 21.0167 40.6044C21.0167 37.8395 23.2414 35.5904 25.9766 35.5904ZM23.288 49.5239H28.6644C30.5756 49.5239 32.3769 50.2792 33.728 51.5762C30.9853 53.0945 29.1214 56.031 29.1214 59.3964C29.1214 61.6058 29.9255 63.6284 31.2523 65.1878C29.097 66.0309 27.2591 67.5117 25.9758 69.4016C24.6933 67.5117 22.8554 66.0309 20.7001 65.1878C22.0268 63.6284 22.831 61.6058 22.831 59.3964C22.831 56.031 20.9679 53.0945 18.2243 51.5762C19.5763 50.2792 21.3768 49.5239 23.288 49.5239ZM13.9648 54.3823C16.7 54.3823 18.9247 56.6322 18.9247 59.3964C18.9247 62.1613 16.7 64.4104 13.9648 64.4104C11.2297 64.4104 9.00497 62.1613 9.00497 59.3964C9.00497 56.6315 11.2297 54.3823 13.9648 54.3823ZM3.90625 79.847H9.9678C11.0466 79.847 11.9209 78.9726 11.9209 77.8938C11.9209 76.8158 11.0466 75.9407 9.9678 75.9407H3.90625V75.7599C3.90625 71.6553 7.24564 68.3167 11.3495 68.3167H16.5802C20.6841 68.3167 24.0234 71.656 24.0234 75.7599V83.2031H3.90625V79.847ZM27.9297 75.7599C27.9297 71.656 31.2691 68.3167 35.3729 68.3167H40.6036C44.7075 68.3167 48.0469 71.656 48.0469 75.7599V83.2031H27.9297V75.7599ZM51.9531 75.7599C51.9531 71.656 55.2925 68.3167 59.3964 68.3167H64.6271C68.7309 68.3167 72.0703 71.656 72.0703 75.7599V83.2031H51.9531V75.7599ZM75.9766 83.2031V75.7599C75.9766 71.656 79.3159 68.3167 83.4198 68.3167H88.6505C92.7544 68.3167 96.093 71.656 96.093 75.7599V75.9415H90.0322C88.9534 75.9415 88.0791 76.8158 88.0791 77.8946C88.0791 78.9734 88.9534 79.8477 90.0322 79.8477H96.093V83.2031H75.9766Z" fill="black"/>
<path d="M15.625 75.9415H15.5792C14.5004 75.9415 13.6261 76.8158 13.6261 77.8946C13.6261 78.9734 14.5004 79.8477 15.5792 79.8477H15.625C16.7038 79.8477 17.5781 78.9734 17.5781 77.8946C17.5781 76.8158 16.7038 75.9415 15.625 75.9415Z" fill="black"/>
</g>
<defs>
<filter id="filter0_d" x="-0.541412" y="15.4335" width="101.07" height="77.7227" filterUnits="userSpaceOnUse" color-interpolation-filters="sRGB">
<feFlood flood-opacity="0" result="BackgroundImageFix"/>
<feColorMatrix in="SourceAlpha" type="matrix" values="0 0 0 0 0 0 0 0 0 0 0 0 0 0 0 0 0 0 127 0" result="hardAlpha"/>
<feOffset dy="4"/>
<feGaussianBlur stdDeviation="2"/>
<feComposite in2="hardAlpha" operator="out"/>
<feColorMatrix type="matrix" values="0 0 0 0 0 0 0 0 0 0 0 0 0 0 0 0 0 0 0.25 0"/>
<feBlend mode="normal" in2="BackgroundImageFix" result="effect1_dropShadow"/>
<feBlend mode="normal" in="SourceGraphic" in2="effect1_dropShadow" result="shape"/>
</filter>
<clipPath id="clip0">
<rect width="100" height="100" fill="white"/>
</clipPath>
</defs>
</svg>
