<svg width="100" height="100" viewBox="0 0 100 100" fill="none" xmlns="http://www.w3.org/2000/svg">
<g clip-path="url(#clip0)">
<g filter="url(#filter0_d)">
<path d="M50 28.0822V1.46771H1.46771V50H28.0822V28.0822H50Z" fill="#9EE2E6"/>
</g>
<path d="M6.16439 45.3033V1.46771H1.46771V50H28.0822V45.3033H6.16439Z" fill="#7ED9DE"/>
<g filter="url(#filter1_d)">
<path d="M71.9178 50V71.9178H50V98.5323H98.5323V50H71.9178Z" fill="#9EE2E6"/>
</g>
<path d="M93.8356 50V93.8356H50V98.5323H98.5323V50H93.8356Z" fill="#7ED9DE"/>
<g filter="url(#filter2_d)">
<path d="M64.09 35.91H35.91V64.09H64.09V35.91Z" fill="#EE96B0"/>
</g>
<path d="M40.6066 59.3933V35.91H35.91V64.09H64.09V59.3933H40.6066Z" fill="#EB81A1"/>
<path d="M29.5499 50V29.5499H50C50.8106 29.5499 51.4677 28.893 51.4677 28.0822V1.46771C51.4677 0.656947 50.8106 0 50 0H19.4716C18.6609 0 18.0039 0.656947 18.0039 1.46771C18.0039 2.27847 18.6611 2.93542 19.4716 2.93542H48.5323V26.6145H28.0822C27.2716 26.6145 26.6145 27.2714 26.6145 28.0822V48.5323H2.93542V2.93542H12.4266C13.2372 2.93542 13.8943 2.27847 13.8943 1.46771C13.8943 0.656947 13.2374 0 12.4266 0H1.46771C0.657143 0 0 0.656947 0 1.46771V50C0 50.8108 0.657143 51.4677 1.46771 51.4677H28.0822C28.8928 51.4677 29.5499 50.8108 29.5499 50Z" fill="black"/>
<path d="M98.5323 48.5323H71.9178C71.1072 48.5323 70.4501 49.1892 70.4501 50V70.4501H50C49.1894 70.4501 48.5323 71.1071 48.5323 71.9178V98.5323C48.5323 99.3431 49.1894 100 50 100H98.5323C99.3429 100 100 99.3431 100 98.5323V50C100 49.1892 99.3429 48.5323 98.5323 48.5323ZM97.0646 97.0646H51.4677V73.3855H71.9178C72.7284 73.3855 73.3855 72.7286 73.3855 71.9178V51.4677H97.0646V97.0646Z" fill="black"/>
<path d="M64.09 34.4423H35.91C35.0994 34.4423 34.4423 35.0992 34.4423 35.91V64.09C34.4423 64.9008 35.0994 65.5577 35.91 65.5577H64.09C64.9006 65.5577 65.5577 64.9008 65.5577 64.09V35.91C65.5577 35.0992 64.9006 34.4423 64.09 34.4423ZM62.6223 62.6223H37.3777V37.3777H62.6223V62.6223Z" fill="black"/>
<path d="M54.6967 29.5499H55.8708C56.6814 29.5499 57.3386 28.893 57.3386 28.0822C57.3386 27.2714 56.6814 26.6145 55.8708 26.6145H54.6967C53.8861 26.6145 53.229 27.2714 53.229 28.0822C53.229 28.893 53.8861 29.5499 54.6967 29.5499Z" fill="black"/>
<path d="M62.1331 29.5499H64.4814C65.292 29.5499 65.9491 28.893 65.9491 28.0822C65.9491 27.2714 65.292 26.6145 64.4814 26.6145H62.1331C61.3225 26.6145 60.6654 27.2714 60.6654 28.0822C60.6654 28.893 61.3225 29.5499 62.1331 29.5499Z" fill="black"/>
<path d="M70.4746 29.5253C70.601 30.2075 71.199 30.7241 71.9178 30.7241C72.7284 30.7241 73.3855 30.0671 73.3855 29.2564V28.0822C73.3855 27.2714 72.7284 26.6145 71.9178 26.6145H70.7437C69.9331 26.6145 69.2759 27.2714 69.2759 28.0822C69.2759 28.801 69.7926 29.399 70.4746 29.5253Z" fill="black"/>
<path d="M73.3855 35.5186C73.3855 34.7079 72.7284 34.0509 71.9178 34.0509C71.1072 34.0509 70.4501 34.7079 70.4501 35.5186V37.8669C70.4501 38.6777 71.1072 39.3347 71.9178 39.3347C72.7284 39.3347 73.3855 38.6777 73.3855 37.8669V35.5186Z" fill="black"/>
<path d="M71.9178 42.6614C71.1072 42.6614 70.4501 43.3184 70.4501 44.1291V45.3033C70.4501 46.1141 71.1072 46.771 71.9178 46.771C72.7284 46.771 73.3855 46.1141 73.3855 45.3033V44.1291C73.3855 43.3184 72.7284 42.6614 71.9178 42.6614Z" fill="black"/>
<path d="M45.3033 70.4501H44.1291C43.3186 70.4501 42.6614 71.107 42.6614 71.9178C42.6614 72.7285 43.3186 73.3855 44.1291 73.3855H45.3033C46.1139 73.3855 46.771 72.7285 46.771 71.9178C46.771 71.107 46.1139 70.4501 45.3033 70.4501Z" fill="black"/>
<path d="M37.8669 70.4501H35.5186C34.708 70.4501 34.0509 71.107 34.0509 71.9178C34.0509 72.7285 34.708 73.3855 35.5186 73.3855H37.8669C38.6775 73.3855 39.3346 72.7285 39.3346 71.9178C39.3346 71.107 38.6775 70.4501 37.8669 70.4501Z" fill="black"/>
<path d="M29.5254 70.4748C29.399 69.7926 28.801 69.2759 28.0822 69.2759C27.2716 69.2759 26.6145 69.9329 26.6145 70.7437V71.9178C26.6145 72.7286 27.2716 73.3855 28.0822 73.3855H29.2564C30.0669 73.3855 30.7241 72.7286 30.7241 71.9178C30.7241 71.199 30.2074 70.601 29.5254 70.4748Z" fill="black"/>
<path d="M28.0822 60.6653C27.2716 60.6653 26.6145 61.3223 26.6145 62.1331V64.4814C26.6145 65.2922 27.2716 65.9491 28.0822 65.9491C28.8927 65.9491 29.5499 65.2922 29.5499 64.4814V62.1331C29.5499 61.3223 28.8927 60.6653 28.0822 60.6653Z" fill="black"/>
<path d="M29.5499 54.6967C29.5499 53.8859 28.8927 53.2289 28.0822 53.2289C27.2716 53.2289 26.6145 53.8859 26.6145 54.6967V55.8708C26.6145 56.6816 27.2716 57.3385 28.0822 57.3385C28.8927 57.3385 29.5499 56.6816 29.5499 55.8708V54.6967Z" fill="black"/>
</g>
<defs>
<filter id="filter0_d" x="-2.53229" y="1.46771" width="56.5323" height="56.5323" filterUnits="userSpaceOnUse" color-interpolation-filters="sRGB">
<feFlood flood-opacity="0" result="BackgroundImageFix"/>
<feColorMatrix in="SourceAlpha" type="matrix" values="0 0 0 0 0 0 0 0 0 0 0 0 0 0 0 0 0 0 127 0" result="hardAlpha"/>
<feOffset dy="4"/>
<feGaussianBlur stdDeviation="2"/>
<feComposite in2="hardAlpha" operator="out"/>
<feColorMatrix type="matrix" values="0 0 0 0 0 0 0 0 0 0 0 0 0 0 0 0 0 0 0.25 0"/>
<feBlend mode="normal" in2="BackgroundImageFix" result="effect1_dropShadow"/>
<feBlend mode="normal" in="SourceGraphic" in2="effect1_dropShadow" result="shape"/>
</filter>
<filter id="filter1_d" x="46" y="50" width="56.5323" height="56.5323" filterUnits="userSpaceOnUse" color-interpolation-filters="sRGB">
<feFlood flood-opacity="0" result="BackgroundImageFix"/>
<feColorMatrix in="SourceAlpha" type="matrix" values="0 0 0 0 0 0 0 0 0 0 0 0 0 0 0 0 0 0 127 0" result="hardAlpha"/>
<feOffset dy="4"/>
<feGaussianBlur stdDeviation="2"/>
<feComposite in2="hardAlpha" operator="out"/>
<feColorMatrix type="matrix" values="0 0 0 0 0 0 0 0 0 0 0 0 0 0 0 0 0 0 0.25 0"/>
<feBlend mode="normal" in2="BackgroundImageFix" result="effect1_dropShadow"/>
<feBlend mode="normal" in="SourceGraphic" in2="effect1_dropShadow" result="shape"/>
</filter>
<filter id="filter2_d" x="31.91" y="35.91" width="36.18" height="36.18" filterUnits="userSpaceOnUse" color-interpolation-filters="sRGB">
<feFlood flood-opacity="0" result="BackgroundImageFix"/>
<feColorMatrix in="SourceAlpha" type="matrix" values="0 0 0 0 0 0 0 0 0 0 0 0 0 0 0 0 0 0 127 0" result="hardAlpha"/>
<feOffset dy="4"/>
<feGaussianBlur stdDeviation="2"/>
<feComposite in2="hardAlpha" operator="out"/>
<feColorMatrix type="matrix" values="0 0 0 0 0 0 0 0 0 0 0 0 0 0 0 0 0 0 0.25 0"/>
<feBlend mode="normal" in2="BackgroundImageFix" result="effect1_dropShadow"/>
<feBlend mode="normal" in="SourceGraphic" in2="effect1_dropShadow" result="shape"/>
</filter>
<clipPath id="clip0">
<rect width="100" height="100" fill="white"/>
</clipPath>
</defs>
</svg>
