<svg width="20" height="20" viewBox="0 0 20 20" fill="none" xmlns="http://www.w3.org/2000/svg">
<path d="M17.0833 5H12.9167C12.6867 5 12.5 4.8125 12.5 4.58332V0.41668C12.5 0.18668 12.3133 0 12.0833 0H3.75C3.06082 0 2.5 0.56082 2.5 1.25V18.75C2.5 19.4392 3.06082 20 3.75 20H16.25C16.9392 20 17.5 19.4392 17.5 18.75V5.41668C17.5 5.18668 17.3133 5 17.0833 5ZM16.6667 18.75C16.6667 18.9792 16.48 19.1667 16.25 19.1667H3.75C3.52 19.1667 3.33332 18.9792 3.33332 18.75V1.25C3.33332 1.02082 3.52 0.83332 3.75 0.83332H11.6667V4.58332C11.6667 5.2725 12.2275 5.83332 12.9167 5.83332H16.6667V18.75V18.75Z" fill="#CCCCCC"/>
<path d="M17.3775 5.12251L12.3775 0.122501C12.215 -0.0399994 11.9508 -0.0399994 11.7883 0.122501C11.6258 0.285001 11.6258 0.549181 11.7883 0.711681L16.7883 5.71169C16.87 5.79251 16.9767 5.83337 17.0833 5.83337C17.19 5.83337 17.2967 5.79255 17.3775 5.71169C17.54 5.54919 17.54 5.28501 17.3775 5.12251Z" fill="#CCCCCC"/>
</svg>
