<svg width="100" height="100" viewBox="0 0 100 100" fill="none" xmlns="http://www.w3.org/2000/svg">
<g clip-path="url(#clip0)">
<path d="M17.1875 6.25H82.8125C84.0557 6.25 85.248 6.74386 86.1271 7.62294C87.0061 8.50201 87.5 9.6943 87.5 10.9375V89.0625C87.5 90.3057 87.0061 91.498 86.1271 92.3771C85.248 93.2561 84.0557 93.75 82.8125 93.75H73.4375C72.1943 93.75 71.002 93.2561 70.1229 92.3771C69.2439 91.498 68.75 90.3057 68.75 89.0625V81.25H12.5V10.9375C12.5 9.6943 12.9939 8.50201 13.8729 7.62294C14.752 6.74386 15.9443 6.25 17.1875 6.25Z" fill="#CCDCE5"/>
<path d="M17.1875 6.25H82.8125C84.0557 6.25 85.248 6.74386 86.1271 7.62294C87.0061 8.50201 87.5 9.6943 87.5 10.9375V18.75H12.5V10.9375C12.5 9.6943 12.9939 8.50201 13.8729 7.62294C14.752 6.74386 15.9443 6.25 17.1875 6.25Z" fill="#0093BA"/>
<path d="M31.25 6.25H50V18.75H31.25V6.25Z" fill="#047FA7"/>
<path d="M68.75 6.25H82.8125C84.0557 6.25 85.248 6.74386 86.1271 7.62294C87.0061 8.50201 87.5 9.6943 87.5 10.9375V18.75H68.75V6.25Z" fill="#047FA7"/>
<path d="M17.1875 10.9375H20.3125V14.0625H17.1875V10.9375Z" fill="#FFC119"/>
<path d="M23.4375 10.9375H26.5625V14.0625H23.4375V10.9375Z" fill="#FFC119"/>
<path d="M35.9375 10.9375H45.3125V14.0625H35.9375V10.9375Z" fill="#06687F"/>
<path d="M54.6875 10.9375H64.0625V14.0625H54.6875V10.9375Z" fill="#06687F"/>
<path d="M73.4375 10.9375H82.8125V14.0625H73.4375V10.9375Z" fill="#06687F"/>
<g filter="url(#filter0_d)">
<path d="M12.5 18.75H31.25V31.25H12.5V18.75Z" fill="#ABBAC2"/>
<path d="M50 18.75H68.75V31.25H50V18.75Z" fill="#ABBAC2"/>
<path d="M68.75 31.25H87.5V43.75H68.75V31.25Z" fill="#ABBAC2"/>
<path d="M50 43.75H68.75V56.25H50V43.75Z" fill="#ABBAC2"/>
<path d="M31.25 31.25H50V43.75H31.25V31.25Z" fill="#ABBAC2"/>
<path d="M12.5 43.75H31.25V56.25H12.5V43.75Z" fill="#ABBAC2"/>
<path d="M68.75 56.25H87.5V68.75H68.75V56.25Z" fill="#ABBAC2"/>
<path d="M50 68.75H68.75V81.25H50V68.75Z" fill="#ABBAC2"/>
<path d="M68.75 81.25H87.5V89.0625C87.5 90.3057 87.0061 91.498 86.1271 92.3771C85.248 93.2561 84.0557 93.75 82.8125 93.75H73.4375C72.1943 93.75 71.002 93.2561 70.1229 92.3771C69.2439 91.498 68.75 90.3057 68.75 89.0625V81.25Z" fill="#ABBAC2"/>
<path d="M31.25 56.25H50V68.75H31.25V56.25Z" fill="#ABBAC2"/>
</g>
<path d="M48.4375 93.75H10.9375C9.6943 93.75 8.50201 93.2561 7.62294 92.3771C6.74386 91.498 6.25 90.3057 6.25 89.0625V71.875C6.25 70.6318 6.74386 69.4395 7.62294 68.5604C8.50201 67.6814 9.6943 67.1875 10.9375 67.1875H18.75L21.875 64.0625L25 67.1875H48.4375C49.6807 67.1875 50.873 67.6814 51.7521 68.5604C52.6311 69.4395 53.125 70.6318 53.125 71.875V89.0625C53.125 90.3057 52.6311 91.498 51.7521 92.3771C50.873 93.2561 49.6807 93.75 48.4375 93.75Z" fill="#88BF40"/>
<path d="M15.625 73.4375H18.75V76.5625H15.625V73.4375Z" fill="#7CA540"/>
<path d="M21.875 73.4375H46.875V76.5625H21.875V73.4375Z" fill="#7CA540"/>
<path d="M12.5 79.6875H46.875V82.8125H12.5V79.6875Z" fill="#7CA540"/>
<path d="M12.5 85.9375H40.625V89.0625H12.5V85.9375Z" fill="#7CA540"/>
</g>
<defs>
<filter id="filter0_d" x="8.5" y="18.75" width="83" height="83" filterUnits="userSpaceOnUse" color-interpolation-filters="sRGB">
<feFlood flood-opacity="0" result="BackgroundImageFix"/>
<feColorMatrix in="SourceAlpha" type="matrix" values="0 0 0 0 0 0 0 0 0 0 0 0 0 0 0 0 0 0 127 0" result="hardAlpha"/>
<feOffset dy="4"/>
<feGaussianBlur stdDeviation="2"/>
<feComposite in2="hardAlpha" operator="out"/>
<feColorMatrix type="matrix" values="0 0 0 0 0 0 0 0 0 0 0 0 0 0 0 0 0 0 0.25 0"/>
<feBlend mode="normal" in2="BackgroundImageFix" result="effect1_dropShadow"/>
<feBlend mode="normal" in="SourceGraphic" in2="effect1_dropShadow" result="shape"/>
</filter>
<clipPath id="clip0">
<rect width="100" height="100" fill="white"/>
</clipPath>
</defs>
</svg>
