<svg width="20" height="20" viewBox="0 0 20 20" fill="none" xmlns="http://www.w3.org/2000/svg">
<g clip-path="url(#clip0)">
<path d="M14.7524 19.1927C14.5949 19.1927 14.4341 19.1727 14.2748 19.1311L1.38782 15.6801C0.393687 15.4059 -0.198827 14.3775 0.0611895 13.3842L1.47785 7.95161C1.56452 7.61819 1.90541 7.41571 2.24035 7.50497C2.57376 7.59164 2.77457 7.9333 2.68714 8.26747L1.27033 13.701C1.18289 14.0359 1.38202 14.3817 1.71544 14.4734L14.5949 17.9227C14.9258 18.0101 15.2674 17.8135 15.3541 17.4843L15.794 15.7092C15.8775 15.3743 16.2158 15.1709 16.5507 15.2527C16.8858 15.336 17.09 15.6743 17.0074 16.0092L16.5658 17.7927C16.3432 18.6368 15.5833 19.1927 14.7524 19.1927Z" fill="#CCCCCC"/>
<path d="M18.125 14.1926H5.20795C4.17384 14.1926 3.33291 13.3517 3.33291 12.3176V2.73389C3.33291 1.69977 4.17384 0.858841 5.20795 0.858841H18.125C19.1591 0.858841 20 1.69977 20 2.73389V12.3176C20 13.3517 19.1591 14.1926 18.125 14.1926ZM5.20795 2.10887C4.86295 2.10887 4.58294 2.38888 4.58294 2.73389V12.3176C4.58294 12.6626 4.86295 12.9426 5.20795 12.9426H18.125C18.47 12.9426 18.75 12.6626 18.75 12.3176V2.73389C18.75 2.38888 18.47 2.10887 18.125 2.10887H5.20795Z" fill="#CCCCCC"/>
<path d="M7.49972 6.69242C6.58051 6.69242 5.83297 5.94487 5.83297 5.02566C5.83297 4.10645 6.58051 3.3589 7.49972 3.3589C8.41893 3.3589 9.16633 4.10645 9.16633 5.02566C9.16633 5.94487 8.41893 6.69242 7.49972 6.69242ZM7.49972 4.60893C7.26962 4.60893 7.083 4.7957 7.083 5.02566C7.083 5.25562 7.26962 5.44239 7.49972 5.44239C7.72968 5.44239 7.9163 5.25562 7.9163 5.02566C7.9163 4.7957 7.72968 4.60893 7.49972 4.60893Z" fill="#CCCCCC"/>
<path d="M3.97456 13.3425C3.81464 13.3425 3.65457 13.2816 3.53296 13.1592C3.28881 12.9151 3.28881 12.5191 3.53296 12.275L7.29968 8.50826C7.86976 7.93818 8.79721 7.93818 9.36638 8.50826L10.3739 9.51582L13.469 5.80068C13.7456 5.46895 14.1515 5.27729 14.5824 5.27485C15.0457 5.24906 15.4207 5.45979 15.6998 5.7874L19.8483 10.6274C20.0733 10.8891 20.0424 11.2842 19.7807 11.5091C19.5183 11.7342 19.1241 11.7034 18.8991 11.4417L14.749 6.59995C14.694 6.53403 14.6265 6.53739 14.589 6.52564C14.5533 6.52564 14.484 6.53647 14.4291 6.60148L10.8956 10.8434C10.783 10.9783 10.619 11.06 10.444 11.0675C10.2656 11.0774 10.0973 11.0091 9.97384 10.885L8.48226 9.39329C8.37636 9.28739 8.28893 9.28739 8.18303 9.39329L4.41631 13.1592C4.29454 13.2816 4.13462 13.3425 3.97456 13.3425V13.3425Z" fill="#CCCCCC"/>
</g>
<defs>
<clipPath id="clip0">
<rect width="20" height="20" fill="white"/>
</clipPath>
</defs>
</svg>
