<svg width="46" height="47" viewBox="0 0 46 47" fill="none" xmlns="http://www.w3.org/2000/svg">
<path fill-rule="evenodd" clip-rule="evenodd" d="M23.3091 10.0769C23.2936 3.89993 23.1699 3.46093 22.8755 3.02982C22.581 2.59869 22.1158 2.1754 21.6674 1.87754C21.219 1.57964 20.7873 1.40721 20.3444 1.27395C19.9015 1.14068 19.4474 1.04661 18.9835 1.03092C18.5196 1.01525 18.0459 1.07797 17.5795 1.21124C17.1131 1.34449 16.654 1.54828 16.2828 1.81483C15.9117 2.08133 15.6286 2.41056 15.4562 2.76331C15.2837 3.11604 15.2218 3.49233 15.0363 3.60468C14.8507 3.71702 14.5415 3.5655 14.2322 3.42438C13.923 3.28328 13.6137 3.15262 13.3028 3.07687C12.9918 3.00107 12.6792 2.98019 12.3301 3.00372C11.9809 3.02723 11.5951 3.09516 11.265 3.21928C10.935 3.34339 10.6606 3.52369 10.4137 3.71574C10.1667 3.90779 9.94723 4.11158 9.79963 4.37422C9.65202 4.63681 9.57625 4.9582 9.52427 5.26C9.47231 5.56181 9.44408 5.84398 9.47804 6.12619C9.51198 6.40838 9.60816 6.6906 9.59742 6.94145C9.58671 7.19227 9.46907 7.41175 9.25746 7.53717C9.04581 7.6626 8.74005 7.69391 8.36179 7.78803C7.98355 7.8821 7.53275 8.03888 7.15057 8.28192C6.7684 8.52493 6.45487 8.85417 6.22752 9.25005C6.0002 9.64589 5.85912 10.1084 5.83563 10.5571C5.81214 11.0059 5.90626 11.4409 6.0082 11.8191C6.11009 12.1973 6.21985 12.5187 6.36094 12.7598C6.50202 13.0008 6.67452 13.1615 6.80097 13.3751C6.92742 13.5887 7.00784 13.8552 6.95527 14.0669C6.90273 14.2786 6.71719 14.4353 6.45523 14.4981C6.19329 14.5609 5.85502 14.5297 5.43504 14.5965C5.01505 14.6632 4.5134 14.8278 4.12152 15.1688C3.72959 15.5098 3.44738 16.0272 3.42108 16.57C3.39475 17.1129 3.62428 17.6812 3.89685 18.0652C4.16941 18.4493 4.48504 18.649 4.63755 18.886C4.79003 19.123 4.7794 19.3973 4.6968 19.6129C4.61418 19.8284 4.45957 19.9852 4.18124 20.1733C3.9029 20.3615 3.50085 20.5809 3.11494 20.7849C2.72905 20.9888 2.35925 21.1771 2.02149 21.4673C1.68373 21.7574 1.37801 22.1493 1.20947 22.5177C1.0409 22.8861 1.00951 23.2311 1.00169 23.5799C0.993842 23.9287 1.00956 24.2815 1.1311 24.6107C1.2526 24.9399 1.47995 25.2457 1.74823 25.5317C2.01651 25.8177 2.3257 26.084 2.81772 26.3388C3.3097 26.5934 3.98444 26.8366 4.30609 27.0836C4.62775 27.3306 4.59632 27.5815 4.512 27.7932C4.42762 28.0049 4.29036 28.1774 4.11446 28.3203C3.93855 28.4633 3.72393 28.5767 3.53047 28.7587C3.33702 28.9407 3.16466 29.1912 3.05292 29.5172C2.94112 29.8432 2.88991 30.2448 2.95345 30.6592C3.01699 31.0735 3.19527 31.5007 3.44572 31.8077C3.69612 32.1148 4.01874 32.3018 4.35643 32.4227C4.69408 32.5436 5.0468 32.5985 5.33703 32.5984C5.62726 32.5983 5.85502 32.5433 6.06276 32.5629C6.27044 32.5825 6.45815 32.6767 6.57163 32.8426C6.6851 33.0085 6.7243 33.2461 6.63653 33.5456C6.54874 33.8452 6.33396 34.2066 6.21873 34.5015C6.10347 34.7964 6.0878 35.0247 6.13802 35.4035C6.18819 35.7822 6.30425 36.3114 6.58431 36.7385C6.86439 37.1655 7.30847 37.4904 7.7449 37.6665C8.18129 37.8425 8.61005 37.8697 8.96323 37.8089C9.3164 37.748 9.59402 37.5991 9.93384 37.4776C10.2737 37.3561 10.6757 37.262 10.9386 37.3247C11.2015 37.3874 11.3252 37.6069 11.3625 37.9009C11.3999 38.195 11.3508 38.5636 11.3969 38.9361C11.4429 39.3085 11.584 39.6848 11.8271 40.0219C12.0701 40.3589 12.415 40.6568 12.8174 40.8017C13.2197 40.9466 13.6796 40.9386 14.1724 40.8562C14.6652 40.7738 15.1909 40.6171 15.4847 40.7582C15.7785 40.8992 15.8404 41.3382 16.0259 41.7458C16.2115 42.1534 16.5208 42.5297 16.8985 42.8473C17.2762 43.1648 17.7225 43.4237 18.2356 43.5453C18.7487 43.6669 19.3288 43.6512 19.9252 43.4904C20.5217 43.3296 21.1345 43.0238 21.6264 42.714C22.1184 42.4043 22.4895 42.0907 22.7524 41.7929C23.0152 41.495 23.1699 41.2128 23.2163 40.9306C23.2627 40.6484 23.2008 40.3662 23.2163 34.2676C23.2317 28.169 23.3245 16.2539 23.3091 10.0769V10.0769Z" fill="#E5097F" stroke="#FEFEFE" stroke-miterlimit="22.9256"/>
<path d="M9.7794 13.8038C9.6401 13.6589 9.50079 13.514 9.42877 13.257C9.35676 12.9998 9.35207 12.6306 9.50614 12.2262C9.66018 11.8218 9.97301 11.3824 10.2777 11.1116C10.5823 10.8407 10.8788 10.7386 11.1545 10.6726C11.4302 10.6066 11.6853 10.5767 11.9185 10.5917C12.1516 10.6067 12.3629 10.6665 12.5437 10.7701C12.7245 10.8736 12.8747 11.0208 13.0249 11.168" stroke="#FEFEFE" stroke-miterlimit="22.9256"/>
<path d="M11.9185 10.5916C11.7872 10.3533 11.6558 10.1151 11.6687 9.76276C11.6815 9.41042 11.8384 8.94401 12.1443 8.61677C12.4501 8.28951 12.9048 8.1014 13.3124 8.06219C13.72 8.02297 14.0806 8.13273 14.3706 8.28951C14.6607 8.44626 14.8801 8.65007 15.0996 8.8539" stroke="#FEFEFE" stroke-miterlimit="22.9256"/>
<path d="M19.5004 15.9059C19.2995 15.9114 19.0986 15.9169 18.86 15.7972C18.6213 15.6774 18.345 15.4324 18.1497 15.0463C17.9542 14.6602 17.8397 14.133 17.8444 13.7255C17.8492 13.3179 17.9731 13.0298 18.1099 12.7815C18.2466 12.5331 18.3961 12.3244 18.5641 12.162C18.7321 11.9996 18.9186 11.8836 19.1169 11.8195C19.3151 11.7555 19.5251 11.7435 19.7351 11.7314" stroke="#FEFEFE" stroke-miterlimit="22.9256"/>
<path d="M6.84161 23.1739C6.69817 23.1778 6.55471 23.1818 6.38432 23.0963C6.21393 23.0107 6.01666 22.8358 5.87715 22.5601C5.7376 22.2844 5.65583 21.908 5.65922 21.617C5.66259 21.326 5.75108 21.1203 5.84873 20.943C5.94637 20.7656 6.05312 20.6166 6.17309 20.5007C6.29305 20.3847 6.42619 20.3019 6.56774 20.2561C6.70929 20.2104 6.85921 20.2018 7.00917 20.1932" stroke="#FEFEFE" stroke-miterlimit="22.9256"/>
<path d="M14.6369 26.3496C14.4385 26.3148 14.2401 26.2801 14.0304 26.1154C13.8207 25.9508 13.5997 25.6563 13.4872 25.2401C13.3746 24.824 13.3704 24.2863 13.4587 23.8892C13.5471 23.492 13.7279 23.2355 13.9133 23.0202C14.0985 22.805 14.2882 22.631 14.4866 22.506C14.6848 22.381 14.8918 22.3049 15.0996 22.282C15.3074 22.2591 15.516 22.2893 15.7247 22.3195" stroke="#FEFEFE" stroke-miterlimit="22.9256"/>
<path d="M14.9997 22.2338C14.8293 22.1276 14.6588 22.0214 14.5268 21.7904C14.3948 21.5593 14.3015 21.2035 14.3543 20.7751C14.4071 20.3467 14.6061 19.8457 14.8377 19.5098C15.0693 19.1739 15.3334 19.003 15.5861 18.8722C15.8387 18.7413 16.0799 18.6504 16.3106 18.6082C16.5413 18.566 16.7615 18.5724 16.9625 18.6286C17.1634 18.6847 17.3451 18.7905 17.5268 18.8963" stroke="#FEFEFE" stroke-miterlimit="22.9256"/>
<path d="M18.7924 36.2487C18.5915 36.2542 18.3906 36.2597 18.152 36.1399C17.9133 36.0202 17.637 35.7752 17.4416 35.3891C17.2462 35.003 17.1317 34.4758 17.1364 34.0683C17.1411 33.6607 17.2651 33.3726 17.4019 33.1242C17.5386 32.8759 17.6881 32.6672 17.8561 32.5048C18.0241 32.3424 18.2106 32.2264 18.4089 32.1623C18.6071 32.0983 18.8171 32.0863 19.0271 32.0742" stroke="#FEFEFE" stroke-miterlimit="22.9256"/>
<path d="M11.964 34.9123C11.7644 34.8846 11.5649 34.8568 11.3496 34.6996C11.1342 34.5425 10.9031 34.2558 10.776 33.8439C10.6489 33.432 10.6258 32.8948 10.7002 32.4948C10.7745 32.0948 10.9463 31.8321 11.1239 31.6104C11.3015 31.3888 11.485 31.2083 11.6788 31.0764C11.8726 30.9445 12.0767 30.8612 12.2836 30.831C12.4905 30.8008 12.7 30.8237 12.9096 30.8465" stroke="#FEFEFE" stroke-miterlimit="22.9256"/>
<path d="M10.808 32.1261C10.6083 32.1477 10.4086 32.1693 10.1623 32.0688C9.91591 31.9683 9.62295 31.7457 9.40035 31.3759C9.1777 31.0061 9.02541 30.489 9.00057 30.0818C8.97572 29.6746 9.07828 29.3771 9.19647 29.1183C9.31464 28.8595 9.44843 28.6392 9.60402 28.4637C9.75957 28.2882 9.93686 28.1575 10.1297 28.0777C10.3225 27.998 10.5307 27.9692 10.739 27.9404" stroke="#FEFEFE" stroke-miterlimit="22.9256"/>
<path fill-rule="evenodd" clip-rule="evenodd" d="M24.31 10.0516C24.3246 3.87237 24.4415 3.43322 24.7198 3.00195C24.9982 2.57067 25.4379 2.14723 25.8618 1.84926C26.2857 1.55127 26.6938 1.37877 27.1125 1.24548C27.5311 1.11214 27.9604 1.01803 28.3989 1.00236C28.8374 0.986673 29.2852 1.04941 29.7261 1.18275C30.167 1.31604 30.601 1.51989 30.9518 1.78653C31.3027 2.05312 31.5703 2.38249 31.7333 2.73537C31.8963 3.0882 31.9548 3.46462 32.1302 3.57701C32.3056 3.6894 32.598 3.53783 32.8903 3.39667C33.1826 3.25551 33.475 3.1248 33.7689 3.049C34.0628 2.97318 34.3583 2.9523 34.6884 2.97586C35.0185 2.99937 35.3832 3.06732 35.6952 3.19149C36.0072 3.31564 36.2666 3.496 36.4999 3.68812C36.7334 3.88023 36.9409 4.08409 37.0804 4.34681C37.22 4.60951 37.2916 4.93101 37.3407 5.23291C37.3898 5.53484 37.4165 5.81711 37.3844 6.09942C37.3523 6.38169 37.2614 6.66401 37.2716 6.91496C37.2817 7.16588 37.3929 7.38542 37.5929 7.51089C37.793 7.63636 38.082 7.6677 38.4396 7.76184C38.7972 7.85595 39.2233 8.01278 39.5846 8.2559C39.9458 8.499 40.2422 8.82837 40.4571 9.22439C40.672 9.62036 40.8054 10.083 40.8276 10.5319C40.8498 10.9808 40.7608 11.416 40.6645 11.7943C40.5682 12.1727 40.4644 12.4942 40.331 12.7353C40.1976 12.9765 40.0346 13.1372 39.9151 13.3509C39.7955 13.5646 39.7195 13.8312 39.7692 14.0429C39.8189 14.2547 39.9943 14.4115 40.2419 14.4743C40.4895 14.5371 40.8093 14.5059 41.2063 14.5727C41.6033 14.6394 42.0775 14.8041 42.4479 15.1452C42.8184 15.4863 43.0852 16.0039 43.1101 16.5469C43.135 17.09 42.918 17.6585 42.6603 18.0426C42.4027 18.4268 42.1043 18.6266 41.9601 18.8637C41.816 19.1008 41.826 19.3752 41.9041 19.5909C41.9822 19.8065 42.1284 19.9633 42.3915 20.1515C42.6546 20.3397 43.0347 20.5593 43.3995 20.7633C43.7643 20.9672 44.1138 21.1557 44.4331 21.4459C44.7524 21.7361 45.0414 22.1282 45.2007 22.4967C45.36 22.8653 45.3897 23.2103 45.3971 23.5593C45.4045 23.9082 45.3897 24.2611 45.2748 24.5904C45.1599 24.9198 44.945 25.2257 44.6914 25.5118C44.4378 25.7979 44.1455 26.0643 43.6804 26.3191C43.2154 26.5739 42.5775 26.8171 42.2735 27.0642C41.9694 27.3113 41.9991 27.5623 42.0788 27.774C42.1586 27.9858 42.2883 28.1583 42.4546 28.3013C42.6209 28.4443 42.8238 28.5578 43.0067 28.7399C43.1895 28.9219 43.3525 29.1725 43.4581 29.4987C43.5638 29.8248 43.6121 30.2265 43.5521 30.641C43.492 31.0555 43.3235 31.4828 43.0868 31.79C42.8501 32.0972 42.5451 32.2842 42.2259 32.4052C41.9067 32.5261 41.5733 32.5811 41.2989 32.581C41.0246 32.5809 40.8092 32.5258 40.6129 32.5454C40.4166 32.565 40.2391 32.6593 40.1318 32.8253C40.0246 32.9912 39.9875 33.2289 40.0705 33.5285C40.1535 33.8281 40.3565 34.1897 40.4655 34.4847C40.5744 34.7797 40.5892 35.0081 40.5418 35.387C40.4943 35.7659 40.3846 36.2953 40.1198 36.7225C39.8551 37.1497 39.4353 37.4747 39.0228 37.6508C38.6102 37.8269 38.2049 37.8541 37.8711 37.7933C37.5372 37.7324 37.2748 37.5834 36.9535 37.4619C36.6323 37.3403 36.2523 37.2462 36.0037 37.3089C35.7553 37.3717 35.6383 37.5912 35.6031 37.8854C35.5677 38.1795 35.614 38.5483 35.5705 38.9209C35.527 39.2934 35.3936 39.6698 35.1639 40.007C34.9342 40.3442 34.6081 40.6422 34.2278 40.7872C33.8474 40.9321 33.4127 40.9241 32.9468 40.8417C32.481 40.7592 31.984 40.6024 31.7063 40.7436C31.4286 40.8847 31.3701 41.3238 31.1947 41.7316C31.0193 42.1393 30.727 42.5158 30.3699 42.8334C30.0128 43.1511 29.591 43.4101 29.1059 43.5317C28.6208 43.6533 28.0725 43.6377 27.5087 43.4768C26.9449 43.316 26.3656 43.01 25.9006 42.7001C25.4355 42.3903 25.0847 42.0766 24.8362 41.7787C24.5877 41.4807 24.4415 41.1984 24.3977 40.9161C24.3538 40.6338 24.4123 40.3515 24.3977 34.2507C24.3831 28.1499 24.2954 16.2307 24.31 10.0516V10.0516Z" fill="#00A0E3" stroke="#FEFEFE" stroke-miterlimit="22.9256"/>
<path d="M37.0996 14.0658C37.2313 13.9209 37.363 13.776 37.4311 13.5189C37.4992 13.2618 37.5036 12.8925 37.358 12.4882C37.2123 12.0838 36.9166 11.6443 36.6286 11.3735C36.3406 11.1027 36.0604 11.0005 35.7997 10.9345C35.5391 10.8685 35.298 10.8387 35.0776 10.8537C34.8572 10.8686 34.6574 10.9285 34.4865 11.032C34.3156 11.1355 34.1736 11.2827 34.0316 11.43" stroke="#FEFEFE" stroke-miterlimit="22.9256"/>
<path d="M35.0776 10.8536C35.2018 10.6153 35.3259 10.377 35.3138 10.0247C35.3017 9.67237 35.1533 9.206 34.8642 8.87876C34.5751 8.55147 34.1453 8.36335 33.76 8.32415C33.3747 8.28495 33.0338 8.39469 32.7596 8.55148C32.4855 8.70824 32.278 8.91205 32.0705 9.11586" stroke="#FEFEFE" stroke-miterlimit="22.9256"/>
<path d="M27.9103 16.1677C28.1002 16.1732 28.2901 16.1788 28.5157 16.059C28.7413 15.9393 29.0025 15.6942 29.1872 15.3081C29.3719 14.9221 29.4802 14.3949 29.4757 13.9873C29.4713 13.5797 29.3541 13.2917 29.2248 13.0433C29.0956 12.7949 28.9542 12.5862 28.7954 12.4239C28.6365 12.2615 28.4603 12.1454 28.2729 12.0814C28.0855 12.0174 27.887 12.0053 27.6885 11.9933" stroke="#FEFEFE" stroke-miterlimit="22.9256"/>
<path d="M39.8767 23.4358C40.0123 23.4397 40.1479 23.4437 40.3089 23.3582C40.47 23.2727 40.6565 23.0977 40.7884 22.822C40.9203 22.5464 40.9976 22.17 40.9944 21.879C40.9912 21.5879 40.9076 21.3823 40.8152 21.2049C40.723 21.0276 40.622 20.8786 40.5086 20.7626C40.3952 20.6467 40.2694 20.5638 40.1355 20.5181C40.0017 20.4724 39.86 20.4638 39.7183 20.4552" stroke="#FEFEFE" stroke-miterlimit="22.9256"/>
<path d="M32.5079 26.6116C32.6954 26.5768 32.883 26.542 33.0812 26.3774C33.2795 26.2128 33.4883 25.9182 33.5948 25.5021C33.7012 25.086 33.7051 24.5482 33.6216 24.1511C33.5381 23.754 33.3671 23.4975 33.1919 23.2822C33.0168 23.0669 32.8375 22.893 32.65 22.768C32.4626 22.6429 32.267 22.5669 32.0705 22.5439C31.8741 22.521 31.6769 22.5512 31.4796 22.5814" stroke="#FEFEFE" stroke-miterlimit="22.9256"/>
<path d="M32.1648 22.4958C32.326 22.3895 32.4872 22.2834 32.6119 22.0523C32.7366 21.8213 32.8249 21.4654 32.775 21.037C32.7251 20.6086 32.5369 20.1077 32.318 19.7718C32.0991 19.4359 31.8494 19.265 31.6105 19.1341C31.3717 19.0032 31.1437 18.9124 30.9256 18.8702C30.7076 18.8279 30.4995 18.8344 30.3095 18.8905C30.1195 18.9467 29.9478 19.0524 29.776 19.1582" stroke="#FEFEFE" stroke-miterlimit="22.9256"/>
<path d="M30.2184 32.7998C30.344 32.8034 30.4696 32.8071 30.6188 32.7278C30.768 32.6486 30.9407 32.4866 31.0629 32.2312C31.1851 31.9759 31.2567 31.6273 31.2537 31.3577C31.2508 31.0882 31.1733 30.8977 31.0878 30.7334C31.0023 30.5691 30.9088 30.4311 30.8038 30.3237C30.6987 30.2163 30.5821 30.1396 30.4582 30.0972C30.3343 30.0549 30.203 30.0469 30.0717 30.0389" stroke="#FEFEFE" stroke-miterlimit="22.9256"/>
<path d="M34.4873 31.916C34.6121 31.8976 34.7368 31.8792 34.8714 31.7753C35.0061 31.6713 35.1506 31.4818 35.23 31.2093C35.3095 30.9369 35.3239 30.5816 35.2774 30.3171C35.231 30.0525 35.1236 29.8788 35.0125 29.7322C34.9015 29.5856 34.7868 29.4663 34.6656 29.379C34.5445 29.2918 34.4168 29.2367 34.2875 29.2167C34.1582 29.1968 34.0272 29.2119 33.8961 29.227" stroke="#FEFEFE" stroke-miterlimit="22.9256"/>
<path d="M35.4273 34.7612C35.5829 34.7789 35.7385 34.7967 35.9304 34.7139C36.1223 34.631 36.3506 34.4476 36.524 34.1428C36.6974 33.8381 36.8161 33.4119 36.8354 33.0763C36.8548 32.7407 36.7749 32.4956 36.6828 32.2822C36.5908 32.0689 36.4865 31.8874 36.3653 31.7427C36.2441 31.5981 36.106 31.4904 35.9558 31.4247C35.8056 31.359 35.6433 31.3352 35.4811 31.3115" stroke="#FEFEFE" stroke-miterlimit="22.9256"/>
<path d="M36.777 46L30.5765 38.4447L27.5429 40.9343L27.4095 28.3998L39.6772 30.9759L36.6436 33.4655L42.8441 41.0208L36.777 46Z" fill="#2B2A29" stroke="#FEFEFE" stroke-miterlimit="22.9256"/>
</svg>
