<svg width="20" height="20" viewBox="0 0 20 20" fill="none" xmlns="http://www.w3.org/2000/svg">
<path d="M2.00001 12C3.10459 12 4.00003 11.1046 4.00003 9.99998C4.00003 8.89541 3.10459 7.99997 2.00001 7.99997C0.895437 7.99997 0 8.89541 0 9.99998C0 11.1046 0.895437 12 2.00001 12Z" fill="#645A81"/>
<path d="M9.99995 12C11.1045 12 12 11.1046 12 9.99998C12 8.89541 11.1045 7.99997 9.99995 7.99997C8.89537 7.99997 7.99994 8.89541 7.99994 9.99998C7.99994 11.1046 8.89537 12 9.99995 12Z" fill="#645A81"/>
<path d="M18 12C19.1046 12 20 11.1046 20 9.99998C20 8.89541 19.1046 7.99997 18 7.99997C16.8954 7.99997 16 8.89541 16 9.99998C16 11.1046 16.8954 12 18 12Z" fill="#645A81"/>
</svg>
