<svg width="20" height="20" viewBox="0 0 20 20" fill="none" xmlns="http://www.w3.org/2000/svg">
<g clip-path="url(#clip0)">
<path d="M7.29166 14.6767V18.5417C7.29166 18.8117 7.46499 19.0508 7.72165 19.1358C7.78582 19.1567 7.85165 19.1667 7.91665 19.1667C8.11165 19.1667 8.29999 19.075 8.41999 18.9117L10.6808 15.835L7.29166 14.6767Z" fill="white"/>
<path d="M19.7375 0.115831C19.5458 -0.0200025 19.2942 -0.0383358 19.0858 0.0708309L0.33581 9.8625C0.114143 9.97833 -0.0166907 10.215 0.0016427 10.4642C0.0208094 10.7142 0.186643 10.9275 0.422477 11.0083L5.63498 12.79L16.7358 3.29833L8.14582 13.6475L16.8817 16.6333C16.9467 16.655 17.015 16.6667 17.0833 16.6667C17.1967 16.6667 17.3092 16.6358 17.4083 16.5758C17.5667 16.4792 17.6742 16.3167 17.7017 16.1342L19.9933 0.717498C20.0275 0.484164 19.9292 0.252498 19.7375 0.115831Z" fill="white"/>
</g>
<defs>
<clipPath id="clip0">
<rect width="20" height="20" rx="5" fill="white"/>
</clipPath>
</defs>
</svg>
