<svg width="100" height="100" viewBox="0 0 100 100" fill="none" xmlns="http://www.w3.org/2000/svg">
<g clip-path="url(#clip0)">
<g filter="url(#filter0_d)">
<path d="M85.3486 21.5477C75.9 12.0999 63.3463 6.89673 50 6.89673C36.6537 6.89673 24.1 12.0999 14.6514 21.5479C13.507 22.6922 13.5084 24.5479 14.6514 25.6911L23.5252 34.5655C24.6695 35.7098 26.5256 35.7086 27.6687 34.5653C33.6367 28.5958 41.5676 25.3081 50 25.3081C58.4324 25.3081 66.3633 28.5958 72.3314 34.5651C72.8809 35.1145 73.6262 35.4235 74.4031 35.4235C75.6691 35.4235 76.4139 34.6264 76.4748 34.5653L85.3486 25.6909C86.493 24.5467 86.4918 22.6909 85.3486 21.5477Z" fill="#FFE600"/>
</g>
<g filter="url(#filter1_d)">
<path d="M85.3486 21.5477C75.9 12.0999 63.3463 6.89673 50 6.89673V25.3083C58.4324 25.3083 66.3633 28.5959 72.3314 34.5653C72.8809 35.1147 73.6262 35.4237 74.4031 35.4237C75.6691 35.4237 76.4139 34.6266 76.4748 34.5655L85.3486 25.6911C86.493 24.5467 86.4918 22.6909 85.3486 21.5477Z" fill="#FFAA32"/>
</g>
<g filter="url(#filter2_d)">
<path d="M27.6684 79.2278C25.1477 76.7073 18.4555 69.2536 18.4115 56.8905C18.4131 48.4614 21.7004 40.5331 27.6684 34.5657L14.6514 21.548C5.20332 30.9952 0 43.5491 0 56.8968C0 70.2445 5.20332 82.7984 14.6514 92.2456C15.2234 92.8177 15.973 93.1036 16.7229 93.1036C17.4727 93.1036 18.2225 92.8175 18.7945 92.2454L27.6684 83.371C28.8125 82.2269 28.8125 80.372 27.6684 79.2278Z" fill="#9BFF00"/>
</g>
<g filter="url(#filter3_d)">
<path d="M72.3316 79.2278C74.8523 76.7073 81.5445 69.2536 81.5885 56.8905C81.5869 48.4614 78.2996 40.5331 72.3316 34.5657L85.3486 21.548C94.7967 30.9952 100 43.5491 100 56.8968C100 70.2445 94.7967 82.7984 85.3486 92.2456C84.7765 92.8177 84.0269 93.1036 83.2771 93.1036C82.5273 93.1036 81.7775 92.8175 81.2055 92.2454L72.3316 83.371C71.1875 82.2269 71.1875 80.372 72.3316 79.2278Z" fill="#FF1E5A"/>
</g>
<g filter="url(#filter4_d)">
<path d="M18.4115 56.8905C18.4131 48.4614 21.7004 40.5331 27.6684 34.5657L14.6514 21.548C5.20332 30.9952 0 43.5491 0 56.8968L18.4115 56.8905Z" fill="#00D200"/>
</g>
<g filter="url(#filter5_d)">
<path d="M72.3316 79.2278C74.8523 76.7073 81.5445 69.2536 81.5885 56.8905L100 56.8968C100 70.2444 94.7967 82.7983 85.3486 92.2456C84.7765 92.8176 84.0269 93.1036 83.2771 93.1036C82.5273 93.1036 81.7775 92.8175 81.2055 92.2454L72.3316 83.371C71.1875 82.2268 71.1875 80.3719 72.3316 79.2278Z" fill="#C40050"/>
</g>
<g filter="url(#filter6_d)">
<path d="M43.4908 50.3862C39.9016 53.9754 39.9016 59.8157 43.4908 63.4051C48.0252 67.9395 70.3094 82.168 72.8356 83.7754C73.9939 84.5127 75.509 84.3463 76.4801 83.3754C77.451 82.4045 77.6174 80.8895 76.8801 79.7309C75.2727 77.2049 61.0441 54.9205 56.5098 50.3862C52.9205 46.7969 47.0803 46.7969 43.4908 50.3862Z" fill="#003C50"/>
</g>
<g filter="url(#filter7_d)">
<path d="M43.4908 50.3862L76.4799 83.3752C77.4508 82.4043 77.6172 80.8893 76.8799 79.7307C75.2725 77.2047 61.044 54.9204 56.5096 50.386C52.9205 46.7969 47.0803 46.7969 43.4908 50.3862Z" fill="#001428"/>
</g>
</g>
<defs>
<filter id="filter0_d" x="9.79362" y="6.89673" width="80.4128" height="36.5268" filterUnits="userSpaceOnUse" color-interpolation-filters="sRGB">
<feFlood flood-opacity="0" result="BackgroundImageFix"/>
<feColorMatrix in="SourceAlpha" type="matrix" values="0 0 0 0 0 0 0 0 0 0 0 0 0 0 0 0 0 0 127 0" result="hardAlpha"/>
<feOffset dy="4"/>
<feGaussianBlur stdDeviation="2"/>
<feComposite in2="hardAlpha" operator="out"/>
<feColorMatrix type="matrix" values="0 0 0 0 0 0 0 0 0 0 0 0 0 0 0 0 0 0 0.25 0"/>
<feBlend mode="normal" in2="BackgroundImageFix" result="effect1_dropShadow"/>
<feBlend mode="normal" in="SourceGraphic" in2="effect1_dropShadow" result="shape"/>
</filter>
<filter id="filter1_d" x="46" y="6.89673" width="44.2064" height="36.527" filterUnits="userSpaceOnUse" color-interpolation-filters="sRGB">
<feFlood flood-opacity="0" result="BackgroundImageFix"/>
<feColorMatrix in="SourceAlpha" type="matrix" values="0 0 0 0 0 0 0 0 0 0 0 0 0 0 0 0 0 0 127 0" result="hardAlpha"/>
<feOffset dy="4"/>
<feGaussianBlur stdDeviation="2"/>
<feComposite in2="hardAlpha" operator="out"/>
<feColorMatrix type="matrix" values="0 0 0 0 0 0 0 0 0 0 0 0 0 0 0 0 0 0 0.25 0"/>
<feBlend mode="normal" in2="BackgroundImageFix" result="effect1_dropShadow"/>
<feBlend mode="normal" in="SourceGraphic" in2="effect1_dropShadow" result="shape"/>
</filter>
<filter id="filter2_d" x="-4" y="21.548" width="36.5265" height="79.5557" filterUnits="userSpaceOnUse" color-interpolation-filters="sRGB">
<feFlood flood-opacity="0" result="BackgroundImageFix"/>
<feColorMatrix in="SourceAlpha" type="matrix" values="0 0 0 0 0 0 0 0 0 0 0 0 0 0 0 0 0 0 127 0" result="hardAlpha"/>
<feOffset dy="4"/>
<feGaussianBlur stdDeviation="2"/>
<feComposite in2="hardAlpha" operator="out"/>
<feColorMatrix type="matrix" values="0 0 0 0 0 0 0 0 0 0 0 0 0 0 0 0 0 0 0.25 0"/>
<feBlend mode="normal" in2="BackgroundImageFix" result="effect1_dropShadow"/>
<feBlend mode="normal" in="SourceGraphic" in2="effect1_dropShadow" result="shape"/>
</filter>
<filter id="filter3_d" x="67.4735" y="21.548" width="36.5265" height="79.5557" filterUnits="userSpaceOnUse" color-interpolation-filters="sRGB">
<feFlood flood-opacity="0" result="BackgroundImageFix"/>
<feColorMatrix in="SourceAlpha" type="matrix" values="0 0 0 0 0 0 0 0 0 0 0 0 0 0 0 0 0 0 127 0" result="hardAlpha"/>
<feOffset dy="4"/>
<feGaussianBlur stdDeviation="2"/>
<feComposite in2="hardAlpha" operator="out"/>
<feColorMatrix type="matrix" values="0 0 0 0 0 0 0 0 0 0 0 0 0 0 0 0 0 0 0.25 0"/>
<feBlend mode="normal" in2="BackgroundImageFix" result="effect1_dropShadow"/>
<feBlend mode="normal" in="SourceGraphic" in2="effect1_dropShadow" result="shape"/>
</filter>
<filter id="filter4_d" x="-4" y="21.548" width="35.6684" height="43.3488" filterUnits="userSpaceOnUse" color-interpolation-filters="sRGB">
<feFlood flood-opacity="0" result="BackgroundImageFix"/>
<feColorMatrix in="SourceAlpha" type="matrix" values="0 0 0 0 0 0 0 0 0 0 0 0 0 0 0 0 0 0 127 0" result="hardAlpha"/>
<feOffset dy="4"/>
<feGaussianBlur stdDeviation="2"/>
<feComposite in2="hardAlpha" operator="out"/>
<feColorMatrix type="matrix" values="0 0 0 0 0 0 0 0 0 0 0 0 0 0 0 0 0 0 0.25 0"/>
<feBlend mode="normal" in2="BackgroundImageFix" result="effect1_dropShadow"/>
<feBlend mode="normal" in="SourceGraphic" in2="effect1_dropShadow" result="shape"/>
</filter>
<filter id="filter5_d" x="67.4735" y="56.8905" width="36.5265" height="44.2131" filterUnits="userSpaceOnUse" color-interpolation-filters="sRGB">
<feFlood flood-opacity="0" result="BackgroundImageFix"/>
<feColorMatrix in="SourceAlpha" type="matrix" values="0 0 0 0 0 0 0 0 0 0 0 0 0 0 0 0 0 0 127 0" result="hardAlpha"/>
<feOffset dy="4"/>
<feGaussianBlur stdDeviation="2"/>
<feComposite in2="hardAlpha" operator="out"/>
<feColorMatrix type="matrix" values="0 0 0 0 0 0 0 0 0 0 0 0 0 0 0 0 0 0 0.25 0"/>
<feBlend mode="normal" in2="BackgroundImageFix" result="effect1_dropShadow"/>
<feBlend mode="normal" in="SourceGraphic" in2="effect1_dropShadow" result="shape"/>
</filter>
<filter id="filter6_d" x="36.7989" y="47.6942" width="44.5393" height="44.5393" filterUnits="userSpaceOnUse" color-interpolation-filters="sRGB">
<feFlood flood-opacity="0" result="BackgroundImageFix"/>
<feColorMatrix in="SourceAlpha" type="matrix" values="0 0 0 0 0 0 0 0 0 0 0 0 0 0 0 0 0 0 127 0" result="hardAlpha"/>
<feOffset dy="4"/>
<feGaussianBlur stdDeviation="2"/>
<feComposite in2="hardAlpha" operator="out"/>
<feColorMatrix type="matrix" values="0 0 0 0 0 0 0 0 0 0 0 0 0 0 0 0 0 0 0.25 0"/>
<feBlend mode="normal" in2="BackgroundImageFix" result="effect1_dropShadow"/>
<feBlend mode="normal" in="SourceGraphic" in2="effect1_dropShadow" result="shape"/>
</filter>
<filter id="filter7_d" x="39.4908" y="47.6942" width="41.8472" height="43.681" filterUnits="userSpaceOnUse" color-interpolation-filters="sRGB">
<feFlood flood-opacity="0" result="BackgroundImageFix"/>
<feColorMatrix in="SourceAlpha" type="matrix" values="0 0 0 0 0 0 0 0 0 0 0 0 0 0 0 0 0 0 127 0" result="hardAlpha"/>
<feOffset dy="4"/>
<feGaussianBlur stdDeviation="2"/>
<feComposite in2="hardAlpha" operator="out"/>
<feColorMatrix type="matrix" values="0 0 0 0 0 0 0 0 0 0 0 0 0 0 0 0 0 0 0.25 0"/>
<feBlend mode="normal" in2="BackgroundImageFix" result="effect1_dropShadow"/>
<feBlend mode="normal" in="SourceGraphic" in2="effect1_dropShadow" result="shape"/>
</filter>
<clipPath id="clip0">
<rect width="100" height="100" fill="white"/>
</clipPath>
</defs>
</svg>
