<svg width="20" height="20" viewBox="0 0 20 20" fill="none" xmlns="http://www.w3.org/2000/svg">
<path d="M11.3129 4.12474H2.18818C0.984683 4.12474 0 5.10942 0 6.31292V13.6871C0 14.8906 0.984683 15.8753 2.18818 15.8753H11.3129C12.5164 15.8753 13.5011 14.8906 13.5011 13.6871V6.31292C13.5011 5.08754 12.5164 4.12474 11.3129 4.12474Z" fill="#CCCCCC"/>
<path d="M18.3807 5.32821C18.2495 5.3501 18.1182 5.41574 18.0088 5.48139L14.5952 7.45075V12.5273L18.0306 14.4967C18.6652 14.8687 19.453 14.6499 19.8249 14.0153C19.9344 13.8184 20 13.5995 20 13.3588V6.59736C20 5.78773 19.2341 5.13128 18.3807 5.32821Z" fill="#CCCCCC"/>
</svg>
