<?xml version="1.0"?>
<svg xmlns="http://www.w3.org/2000/svg" xmlns:xlink="http://www.w3.org/1999/xlink" xmlns:svgjs="http://svgjs.com/svgjs" version="1.1" width="512" height="512" x="0" y="0" viewBox="0 0 480 480" style="enable-background:new 0 0 512 512" xml:space="preserve" class=""><g>
<g xmlns="http://www.w3.org/2000/svg">
	<g>
		<path d="M456,72H24C10.745,72,0,82.745,0,96v288c0,13.255,10.745,24,24,24h432c13.255,0,24-10.745,24-24V96    C480,82.745,469.255,72,456,72z M408,160c-4.418,0-8-3.582-8-8c-0.004-2.157,0.885-4.219,2.456-5.696    c1.455-1.495,3.458-2.328,5.544-2.304h16c4.418,0,8,3.582,8,8c0.003,2.155-0.882,4.215-2.448,5.696    c-1.459,1.493-3.465,2.325-5.552,2.304H408z M424,288c4.418,0,8,3.582,8,8c0.003,2.155-0.882,4.215-2.448,5.696    c-1.459,1.493-3.465,2.325-5.552,2.304h-16c-4.418,0-8-3.582-8-8c-0.004-2.157,0.885-4.219,2.456-5.696    c1.455-1.495,3.458-2.328,5.544-2.304H424z M368,88h40v40c-13.224,0.074-23.926,10.776-24,24c0,13.255,10.745,24,24,24v16h-40V88z     M304,160c-4.418,0-8-3.582-8-8c-0.004-2.157,0.885-4.219,2.456-5.696c1.455-1.495,3.458-2.328,5.544-2.304h16    c4.418,0,8,3.582,8,8c0.003,2.155-0.882,4.215-2.448,5.696c-1.459,1.493-3.465,2.325-5.552,2.304H304z M320,288    c4.418,0,8,3.582,8,8c0.003,2.155-0.882,4.215-2.448,5.696c-1.459,1.493-3.465,2.325-5.552,2.304h-16c-4.418,0-8-3.582-8-8    c-0.004-2.157,0.885-4.219,2.456-5.696c1.455-1.495,3.458-2.328,5.544-2.304H320z M248,88h56v40    c-13.224,0.074-23.926,10.776-24,24c0,13.255,10.745,24,24,24v16h-56v-16c13.224-0.074,23.926-10.776,24-24    c0-13.255-10.745-24-24-24V88z M256,152c0.003,2.155-0.882,4.215-2.448,5.696c-1.459,1.493-3.465,2.325-5.552,2.304h-16    c-4.418,0-8-3.582-8-8c-0.004-2.157,0.885-4.219,2.456-5.696c1.455-1.495,3.458-2.328,5.544-2.304h16    C252.418,144,256,147.582,256,152z M248,288c4.418,0,8,3.582,8,8c0.003,2.155-0.882,4.215-2.448,5.696    c-1.459,1.493-3.465,2.325-5.552,2.304h-16c-4.418,0-8-3.582-8-8c-0.004-2.157,0.885-4.219,2.456-5.696    c1.455-1.495,3.458-2.328,5.544-2.304H248z M176,88h56v40c-13.224,0.074-23.926,10.776-24,24c0,13.255,10.745,24,24,24v16h-56v-16    c13.224-0.074,23.926-10.776,24-24c0-13.255-10.745-24-24-24V88z M184,152c0.003,2.155-0.882,4.215-2.448,5.696    c-1.459,1.493-3.465,2.325-5.552,2.304h-16c-4.418,0-8-3.582-8-8c-0.004-2.157,0.885-4.219,2.456-5.696    c1.455-1.495,3.458-2.328,5.544-2.304h16C180.418,144,184,147.582,184,152z M176,288c4.418,0,8,3.582,8,8    c0.003,2.155-0.882,4.215-2.448,5.696c-1.459,1.493-3.465,2.325-5.552,2.304h-16c-4.418,0-8-3.582-8-8    c-0.004-2.157,0.885-4.219,2.456-5.696c1.455-1.495,3.458-2.328,5.544-2.304H176z M128,88h32v40    c-13.224,0.074-23.926,10.776-24,24c0,13.255,10.745,24,24,24v16h-32V88z M56,160c-4.418,0-8-3.582-8-8    c-0.004-2.157,0.885-4.219,2.456-5.696c1.455-1.495,3.458-2.328,5.544-2.304h16c4.418,0,8,3.582,8,8    c0.003,2.155-0.882,4.215-2.448,5.696c-1.459,1.493-3.465,2.325-5.552,2.304H56z M72,288c4.418,0,8,3.582,8,8    c0.003,2.155-0.882,4.215-2.448,5.696c-1.459,1.493-3.465,2.325-5.552,2.304H56c-4.418,0-8-3.582-8-8    c-0.004-2.157,0.885-4.219,2.456-5.696c1.455-1.495,3.458-2.328,5.544-2.304H72z M16,96c0-4.418,3.582-8,8-8h32v40    c-13.224,0.074-23.926,10.776-24,24c0,13.255,10.745,24,24,24v16H16V96z M56,392H24c-4.418,0-8-3.582-8-8V208h40v64    c-13.224,0.074-23.926,10.776-24,24c0,13.255,10.745,24,24,24v8c-13.224,0.074-23.926,10.776-24,24c0,13.255,10.745,24,24,24V392z     M48,352c-0.004-2.157,0.885-4.219,2.456-5.696c1.455-1.495,3.458-2.328,5.544-2.304h16c4.418,0,8,3.582,8,8    c0.003,2.155-0.882,4.215-2.448,5.696c-1.459,1.493-3.465,2.325-5.552,2.304H56C51.582,360,48,356.418,48,352z M112,392H72v-16    c6.334,0.047,12.416-2.475,16.856-6.992C93.458,364.551,96.039,358.407,96,352c0-13.255-10.745-24-24-24v-8    c13.224-0.074,23.926-10.776,24-24c0-13.255-10.745-24-24-24v-64h40V392z M112,192H72v-16c6.334,0.047,12.416-2.475,16.856-6.992    C93.458,164.551,96.039,158.407,96,152c0-13.255-10.745-24-24-24V88h40V192z M160,392h-32V208h32v64    c-13.224,0.074-23.926,10.776-24,24c0,13.255,10.745,24,24,24v8c-13.224,0.074-23.926,10.776-24,24c0,13.255,10.745,24,24,24V392z     M152,352c-0.004-2.157,0.885-4.219,2.456-5.696c1.455-1.495,3.458-2.328,5.544-2.304h16c4.418,0,8,3.582,8,8    c0.003,2.155-0.882,4.215-2.448,5.696c-1.459,1.493-3.465,2.325-5.552,2.304h-16C155.582,360,152,356.418,152,352z M232,392h-56    v-16c13.224-0.074,23.926-10.776,24-24c0-13.255-10.745-24-24-24v-8c13.224-0.074,23.926-10.776,24-24c0-13.255-10.745-24-24-24    v-64h56v64c-13.224,0.074-23.926,10.776-24,24c0,13.255,10.745,24,24,24v8c-13.224,0.074-23.926,10.776-24,24    c0,13.255,10.745,24,24,24V392z M224,352c-0.004-2.157,0.885-4.219,2.456-5.696c1.455-1.495,3.458-2.328,5.544-2.304h16    c4.418,0,8,3.582,8,8c0.003,2.155-0.882,4.215-2.448,5.696c-1.459,1.493-3.465,2.325-5.552,2.304h-16    C227.582,360,224,356.418,224,352z M304,392h-56v-16c13.224-0.074,23.926-10.776,24-24c0-13.255-10.745-24-24-24v-8    c13.224-0.074,23.926-10.776,24-24c0-13.255-10.745-24-24-24v-64h56v64c-13.224,0.074-23.926,10.776-24,24    c0,13.255,10.745,24,24,24v8c-13.224,0.074-23.926,10.776-24,24c0,13.255,10.745,24,24,24V392z M296,352    c-0.004-2.157,0.885-4.219,2.456-5.696c1.455-1.495,3.458-2.328,5.544-2.304h16c4.418,0,8,3.582,8,8    c0.003,2.155-0.882,4.215-2.448,5.696c-1.459,1.493-3.465,2.325-5.552,2.304h-16C299.582,360,296,356.418,296,352z M352,392h-32    v-16c13.224-0.074,23.926-10.776,24-24c0-13.255-10.745-24-24-24v-8c13.224-0.074,23.926-10.776,24-24c0-13.255-10.745-24-24-24    v-64h32V392z M352,192h-32v-16c6.334,0.047,12.416-2.475,16.856-6.992c4.602-4.457,7.183-10.601,7.144-17.008    c0-13.255-10.745-24-24-24V88h32V192z M408,392h-40V208h40v64c-6.334-0.05-12.417,2.473-16.856,6.992    c-4.602,4.457-7.183,10.601-7.144,17.008c0,13.255,10.745,24,24,24v8c-13.224,0.074-23.926,10.776-24,24c0,13.255,10.745,24,24,24    V392z M400,352c-0.004-2.157,0.885-4.219,2.456-5.696c1.455-1.495,3.458-2.328,5.544-2.304h16c4.418,0,8,3.582,8,8    c0.003,2.155-0.882,4.215-2.448,5.696c-1.459,1.493-3.465,2.325-5.552,2.304h-16C403.582,360,400,356.418,400,352z M464,384    c0,4.418-3.582,8-8,8h-32v-16c13.224-0.074,23.926-10.776,24-24c0-13.255-10.745-24-24-24v-8c13.224-0.074,23.926-10.776,24-24    c0-13.255-10.745-24-24-24v-64h40V384z M464,192h-40v-16c13.224-0.074,23.926-10.776,24-24c0-13.255-10.745-24-24-24V88h32    c4.418,0,8,3.582,8,8V192z" fill="#ffffff" data-original="#000000" style="" class=""/>
	</g>
</g>
<g xmlns="http://www.w3.org/2000/svg">
</g>
<g xmlns="http://www.w3.org/2000/svg">
</g>
<g xmlns="http://www.w3.org/2000/svg">
</g>
<g xmlns="http://www.w3.org/2000/svg">
</g>
<g xmlns="http://www.w3.org/2000/svg">
</g>
<g xmlns="http://www.w3.org/2000/svg">
</g>
<g xmlns="http://www.w3.org/2000/svg">
</g>
<g xmlns="http://www.w3.org/2000/svg">
</g>
<g xmlns="http://www.w3.org/2000/svg">
</g>
<g xmlns="http://www.w3.org/2000/svg">
</g>
<g xmlns="http://www.w3.org/2000/svg">
</g>
<g xmlns="http://www.w3.org/2000/svg">
</g>
<g xmlns="http://www.w3.org/2000/svg">
</g>
<g xmlns="http://www.w3.org/2000/svg">
</g>
<g xmlns="http://www.w3.org/2000/svg">
</g>
</g></svg>
